<?xml version="1.0" standalone="no"?>
<!DOCTYPE svg PUBLIC "-//W3C//DTD SVG 1.1//EN" "http://www.w3.org/Graphics/SVG/1.1/DTD/svg11.dtd" >
<svg xmlns="http://www.w3.org/2000/svg" xmlns:xlink="http://www.w3.org/1999/xlink" version="1.1">
<metadata>
Created by FontForge 20190801 at Tue Apr 26 02:57:15 2016
 By Unknown
Copyright (c) 2012 Linotype GmbH, www.linotype.com. All rights reserved. This font software may not be reproduced, modified, disclosed or transferred without the express written approval of Linotype GmbH. DIN Next is a trademark of Linotype GmbH and may be registered in certain jurisdictions. This typeface is original artwork of "Kimya Gandhi, Linotype Design Studio". The design may be protected in certain jurisdictions.
</metadata>
<defs>
<font id="DINNextDevanagariW05-Bold" horiz-adv-x="0" >
  <font-face 
    font-family="DINNextDevanagariW05-Bold"
    font-weight="700"
    font-stretch="normal"
    units-per-em="1000"
    panose-1="2 11 8 3 2 3 2 2 2 4"
    ascent="800"
    descent="-200"
    x-height="484"
    cap-height="680"
    bbox="-894 -779 2042 1180"
    underline-thickness="50"
    underline-position="-175"
    unicode-range="U+0020-FB02"
  />
<missing-glyph horiz-adv-x="506" 
d="M0 670q0 10 10 10h486q10 0 10 -10v-660q0 -10 -10 -10h-486q-10 0 -10 10v660zM69 71q0 -6 6 -6h356q6 0 6 6v538q0 6 -6 6h-356q-6 0 -6 -6v-538zM209 243q-10 0 -10 10v24q0 19 5 30.5t14 23.5l46 60q12 16 17.5 27t5.5 25q0 18 -11 30t-30 12q-21 0 -32 -11t-16 -28
q-2 -11 -11 -9l-65 10q-10 0 -8 11q9 48 43.5 76.5t92.5 28.5q28 0 51.5 -9t40.5 -25t26 -37.5t9 -45.5q0 -46 -32 -82l-45 -60q-6 -8 -9.5 -16.5t-3.5 -21.5v-13q0 -10 -10 -10h-68zM198 191q0 10 10 10h71q10 0 10 -10v-67q0 -10 -10 -10h-71q-10 0 -10 10v67z" />
    <glyph glyph-name="uni0915_uni094D_uni0937.akhn" unicode="&#x915;&#x94d;&#x937;" horiz-adv-x="786" 
d="M262 451q29 12 37 28t8 37t-10.5 33.5t-33.5 12.5q-22 0 -33.5 -12.5t-11.5 -33.5q0 -20 9 -37.5t35 -27.5zM331 72q25 0 40 3t23 10t10.5 18t2.5 27q0 17 -8.5 28t-28.5 11t-31 -10.5t-11 -41.5q0 -5 0.5 -18t2.5 -27zM684 0h-107q-10 0 -10 10v280q-88 4 -163 17.5
t-141 48.5q-33 -11 -53.5 -26t-32.5 -35t-16.5 -44t-4.5 -52q0 -30 2.5 -52t9.5 -37.5t20 -24.5t35 -12q-3 33 -3 51q1 76 43 108.5t108 32.5q33 0 59.5 -7.5t46 -24t30 -43t10.5 -64.5q0 -37 -9 -63.5t-29.5 -43.5t-54 -26t-81.5 -11q4 -20 8 -36.5t12 -39.5q4 -10 0 -14
t-12 -6l-81 -21q-5 -2 -10.5 -1t-7.5 8q-5 17 -11.5 50t-9.5 64q-46 2 -83 13t-63 34.5t-40 62t-14 95.5q0 44 9.5 77.5t27.5 59t45 45t63 34.5q-70 37 -70 116q0 38 13 63t35 40t49.5 21.5t57.5 6.5q31 0 59.5 -5.5t50.5 -19.5t34.5 -38t12.5 -62q0 -23 -5 -40.5
t-13.5 -30.5t-20 -22.5t-23.5 -16.5q18 -7 44.5 -11.5t56 -7.5t58.5 -4t52 -1v112h-85q-10 0 -10 10v76q0 10 10 10h304q10 0 10 -10v-77q0 -9 -10 -9h-92v-497q0 -10 -10 -10z" />
    <glyph glyph-name="uni091C_uni094D_uni091E.akhn" unicode="&#x91c;&#x94d;&#x91e;" horiz-adv-x="772" 
d="M550 298q0 9 -10 9h-111q53 -39 53 -119q0 -52 -16 -86t-41.5 -55t-57 -31t-62.5 -13q-2 -29 -5.5 -56t-11.5 -44q-3 -5 -6 -6t-8 0l-83 13q-7 1 -10 4.5t0 12.5q5 16 8.5 35t4.5 40q-46 0 -77.5 8.5t-51 25t-28 42t-8.5 59.5q0 70 38.5 97t103.5 27q30 0 55 -7
t43.5 -23.5t28.5 -43t10 -65.5v-9t-1 -11q27 8 37.5 30.5t10.5 64.5q0 33 -5.5 54.5t-18 33.5t-33.5 17t-52 5h-36q-9 0 -9 8v86q0 8 9 8h330q10 0 10 9v89h-551q-10 0 -10 10v77q0 9 10 9h773q10 0 10 -10v-77q0 -9 -10 -9h-87v-497q0 -10 -10 -10h-115q-10 0 -10 10v288z
M198 93q1 6 1 11v6q0 33 -5 46.5t-31 13.5q-35 0 -35 -39q0 -27 14.5 -32.5t55.5 -5.5z" />
    <glyph glyph-name=".notdef" horiz-adv-x="506" 
d="M0 670q0 10 10 10h486q10 0 10 -10v-660q0 -10 -10 -10h-486q-10 0 -10 10v660zM69 71q0 -6 6 -6h356q6 0 6 6v538q0 6 -6 6h-356q-6 0 -6 -6v-538zM209 243q-10 0 -10 10v24q0 19 5 30.5t14 23.5l46 60q12 16 17.5 27t5.5 25q0 18 -11 30t-30 12q-21 0 -32 -11t-16 -28
q-2 -11 -11 -9l-65 10q-10 0 -8 11q9 48 43.5 76.5t92.5 28.5q28 0 51.5 -9t40.5 -25t26 -37.5t9 -45.5q0 -46 -32 -82l-45 -60q-6 -8 -9.5 -16.5t-3.5 -21.5v-13q0 -10 -10 -10h-68zM198 191q0 10 10 10h71q10 0 10 -10v-67q0 -10 -10 -10h-71q-10 0 -10 10v67z" />
    <glyph glyph-name=".null" 
 />
    <glyph glyph-name="nonmarkingreturn" horiz-adv-x="333" 
 />
    <glyph glyph-name="glyph1126" horiz-adv-x="500" 
 />
    <glyph glyph-name="glyph1126" horiz-adv-x="500" 
 />
    <glyph glyph-name="space" unicode=" " horiz-adv-x="236" 
 />
    <glyph glyph-name="exclam" unicode="!" horiz-adv-x="312" 
d="M115 199q-10 0 -10 10l-24 461q0 10 10 10h130q10 0 10 -10l-24 -461q0 -10 -10 -10h-82zM86 124q0 10 10 10h120q10 0 10 -10v-114q0 -10 -10 -10h-120q-10 0 -10 10v114z" />
    <glyph glyph-name="quotedbl" unicode="&#x22;" horiz-adv-x="374" 
d="M227 472q-10 0 -10 10v188q0 10 10 10h79q10 0 10 -10v-188q0 -10 -10 -10h-79zM68 472q-10 0 -10 10v188q0 10 10 10h79q10 0 10 -10v-188q0 -10 -10 -10h-79z" />
    <glyph glyph-name="numbersign" unicode="#" horiz-adv-x="548" 
d="M91 195h-63q-10 0 -10 10v79q0 10 10 10h76l14 102h-64q-10 0 -10 10v79q0 10 10 10h78l24 175q2 10 11 10h89q11 0 9 -10l-24 -175h104l24 175q2 10 11 10h89q11 0 9 -10l-24 -175h66q10 0 10 -10v-79q0 -10 -10 -10h-80l-14 -102h68q10 0 10 -10v-79q0 -10 -10 -10h-81
l-25 -185q-2 -10 -11 -10h-89q-11 0 -9 10l25 185h-104l-25 -185q-2 -10 -11 -10h-89q-11 0 -9 10zM317 294l14 102h-104l-14 -102h104z" />
    <glyph glyph-name="dollar" unicode="$" horiz-adv-x="556" 
d="M54 63q-9 7 -2 15l68 84q7 8 13 2q22 -18 53 -33.5t67 -19.5v171q-88 14 -138 65t-50 132q0 42 13.5 78t38.5 63.5t59.5 45.5t76.5 23v59q0 10 10 10h46q10 0 10 -10v-59q48 -4 88 -19t71 -35q8 -6 2 -15l-58 -84q-6 -8 -14 -3q-21 13 -43.5 22t-45.5 13v-161
q95 -15 142 -66.5t47 -132.5q0 -88 -50.5 -145t-138.5 -70v-61q0 -10 -10 -10h-46q-10 0 -10 10v58q-60 3 -110.5 23t-88.5 50zM253 563q-23 -9 -36.5 -28t-13.5 -45q0 -24 10.5 -41.5t39.5 -28.5v143zM319 118q51 20 51 83q0 22 -11 39t-40 28v-150z" />
    <glyph glyph-name="percent" unicode="%" horiz-adv-x="814" 
d="M553 681q6 10 16 10h84q5 0 5.5 -3t-1.5 -7l-395 -682q-6 -10 -16 -10h-83q-5 0 -6 3t1 7zM198 330q-48 0 -82 22t-47 60q-3 7 -4.5 14.5t-2.5 18t-1.5 25.5t-0.5 39t0.5 39t1.5 25.5t2.5 17.5t4.5 15q13 38 47 60t82 22t82 -22t47 -60q3 -8 4.5 -15t2.5 -17.5t1.5 -25.5
t0.5 -39t-0.5 -39t-1.5 -25.5t-2.5 -18t-4.5 -14.5q-13 -38 -47 -60t-82 -22zM198 409q27 0 35 23q1 3 2 7t1.5 12t0.5 21.5v36.5v36.5t-0.5 21.5t-1.5 12t-2 7q-8 23 -35 23t-35 -23q-1 -3 -2 -7t-1.5 -12t-0.5 -21.5v-36.5v-36.5t0.5 -21.5t1.5 -12t2 -7q8 -23 35 -23z
M487 74q-3 7 -4.5 14.5t-2.5 18t-1.5 25.5t-0.5 38q0 24 0.5 39t1.5 25.5t2.5 17.5t4.5 15q13 38 46.5 60t82.5 22q48 0 82 -22t47 -60q2 -8 4 -15t3 -17.5t1.5 -25.5t0.5 -39q0 -23 -0.5 -38t-1.5 -25.5t-3 -18t-4 -14.5q-13 -38 -47 -60.5t-82 -22.5q-49 0 -82.5 22.5
t-46.5 60.5zM581 94q7 -24 35 -24q27 0 35 24q1 3 2 6.5t1.5 11.5t0.5 21.5v36.5v36.5t-0.5 21.5t-1.5 12t-2 7q-8 23 -35 23t-35 -23q-1 -3 -2 -7t-1.5 -12t-0.5 -21.5v-36.5v-36.5t0.5 -21.5t1.5 -11.5t2 -6.5z" />
    <glyph glyph-name="ampersand" unicode="&#x26;" horiz-adv-x="648" 
d="M54 172q0 27 6.5 52.5t21.5 50t39 50t59 53.5q-37 47 -55 81t-18 71q0 35 14 64.5t38 51t57 33.5t71 12q40 0 73 -12.5t56 -34.5t35.5 -50.5t12.5 -61.5q0 -23 -6 -43.5t-19.5 -41t-35.5 -41.5t-53 -45l89 -113l66 76q7 8 14 1l69 -58q7 -6 1 -14l-80 -95l18 -22
q9 -12 18 -16.5t21 -4.5h15q10 0 10 -10v-95q0 -10 -10 -10h-42q-36 0 -59 11t-48 44l-8 9q-43 -41 -83 -58t-91 -17q-47 0 -83.5 13.5t-61.5 38t-38 58t-13 73.5zM279 451q37 28 49.5 45.5t12.5 36.5q0 23 -15 38.5t-38 15.5q-24 0 -38.5 -15t-14.5 -39q0 -16 9 -33t35 -49
zM182 183q0 -34 20 -55.5t58 -21.5q24 0 45.5 10.5t49.5 37.5l-104 134q-40 -32 -54.5 -56.5t-14.5 -48.5z" />
    <glyph glyph-name="quotesingle" unicode="'" horiz-adv-x="215" 
d="M68 472q-10 0 -10 10v188q0 10 10 10h79q10 0 10 -10v-188q0 -10 -10 -10h-79z" />
    <glyph glyph-name="parenleft" unicode="(" horiz-adv-x="311" 
d="M180 -74q-66 91 -97.5 195t-31.5 207t31.5 207t97.5 195q7 10 16 10h72q11 0 6 -10q-44 -91 -67 -195t-23 -207t23.5 -208t66.5 -194q5 -10 -6 -10h-72q-9 0 -16 10z" />
    <glyph glyph-name="parenright" unicode=")" horiz-adv-x="311" 
d="M37 -74q43 89 66.5 194t23.5 208t-23 207t-67 195q-5 10 6 10h72q9 0 16 -10q66 -91 97.5 -195t31.5 -207t-31.5 -207t-97.5 -195q-7 -10 -16 -10h-72q-11 0 -6 10z" />
    <glyph glyph-name="asterisk" unicode="*" horiz-adv-x="367" 
d="M156 374q-10 0 -10 10l1 80l-69 -41q-9 -5 -14 4l-27 48q-5 9 4 14l69 38l-69 39q-9 5 -4 14l27 48q5 8 14 3l69 -41l-1 80q0 10 10 10h55q10 0 10 -10l-2 -80l69 41q9 5 14 -3l27 -48q5 -9 -3 -14l-70 -39l70 -38q9 -5 4 -14l-28 -48q-5 -9 -14 -4l-69 41l2 -80
q0 -10 -10 -10h-55z" />
    <glyph glyph-name="plus" unicode="+" horiz-adv-x="556" 
d="M217 211q0 6 -6 6h-150q-10 0 -10 10v98q0 10 10 10h150q6 0 6 6v152q0 10 10 10h102q10 0 10 -10v-152q0 -6 6 -6h150q10 0 10 -10v-98q0 -10 -10 -10h-150q-6 0 -6 -6v-152q0 -10 -10 -10h-102q-10 0 -10 10v152z" />
    <glyph glyph-name="comma" unicode="," horiz-adv-x="253" 
d="M60 130q0 10 10 10h113q10 0 10 -10v-121q0 -11 -9 -20l-99 -90q-8 -7 -15 -7q-10 0 -10 11v227z" />
    <glyph glyph-name="hyphen" unicode="-" horiz-adv-x="392" 
d="M52 204q-10 0 -10 10v102q0 10 10 10h288q10 0 10 -10v-102q0 -10 -10 -10h-288z" />
    <glyph glyph-name="period" unicode="." horiz-adv-x="259" 
d="M60 130q0 10 10 10h119q10 0 10 -10v-120q0 -10 -10 -10h-119q-10 0 -10 10v120z" />
    <glyph glyph-name="slash" unicode="/" horiz-adv-x="436" 
d="M262 681q3 10 13 10h109q10 0 7 -10l-218 -682q-3 -10 -13 -10h-108q-10 0 -7 10z" />
    <glyph glyph-name="zero" unicode="0" horiz-adv-x="556" 
d="M73 128q-4 11 -6.5 24.5t-4.5 36t-3 58.5t-1 93t1 93t3 58.5t4.5 36t6.5 24.5q21 66 72.5 102.5t132.5 36.5t132.5 -36.5t72.5 -102.5q4 -11 6.5 -24.5t4.5 -36t3 -58.5t1 -93t-1 -93t-3 -58.5t-4.5 -36t-6.5 -24.5q-21 -66 -72.5 -102.5t-132.5 -36.5t-132.5 36.5
t-72.5 102.5zM209 153q15 -46 69 -46t69 46q2 7 3.5 16t2.5 28.5t1.5 53t0.5 89.5t-0.5 89.5t-1.5 53t-2.5 28.5t-3.5 16q-15 46 -69 46t-69 -46q-2 -7 -3.5 -16t-2.5 -28.5t-1.5 -53t-0.5 -89.5t0.5 -89.5t1.5 -53t2.5 -28.5t3.5 -16z" />
    <glyph glyph-name="one" unicode="1" horiz-adv-x="556" 
d="M242 522h-2l-108 -74q-11 -7 -11 6v124q0 8 7 14l114 82q7 6 18 6h112q10 0 10 -10v-660q0 -10 -10 -10h-120q-10 0 -10 10v512z" />
    <glyph glyph-name="two" unicode="2" horiz-adv-x="556" 
d="M65 103q0 8 5 14l239 284q20 23 30 45.5t10 48.5q0 34 -19.5 56t-54.5 22q-71 0 -80 -80q0 -10 -11 -8l-110 18q-10 2 -8 12q3 35 18 67t42.5 56t66 38.5t87.5 14.5t87.5 -15t65.5 -41t41.5 -61.5t14.5 -76.5q0 -49 -18.5 -88.5t-50.5 -76.5l-179 -211v-2h238
q10 0 10 -10v-99q0 -10 -10 -10h-404q-10 0 -10 10v93z" />
    <glyph glyph-name="three" unicode="3" horiz-adv-x="556" 
d="M56 145q-2 10 8 13l110 21q9 1 12 -8q9 -27 31 -45.5t58 -18.5q39 0 61.5 25t22.5 63q0 46 -25.5 71t-69.5 25h-29q-10 0 -10 10v97q0 10 10 10h27q38 0 61 23t23 62q0 36 -20.5 58t-56.5 22q-32 0 -50.5 -17t-26.5 -46q-3 -9 -12 -7l-109 21q-10 2 -8 11q6 34 23 62.5
t44.5 49.5t64 32.5t81.5 11.5q50 0 89 -14t66 -39t41 -59.5t14 -75.5q0 -44 -19.5 -80t-56.5 -60v-2q15 -8 31 -22t29 -34.5t21 -47.5t8 -61q0 -47 -16.5 -85t-46.5 -65t-70.5 -42t-88.5 -15q-87 0 -147 41t-74 115z" />
    <glyph glyph-name="four" unicode="4" horiz-adv-x="556" 
d="M51 99q-10 0 -10 10v102q0 8 2 12l204 449q4 8 14 8h127q10 0 7 -10l-204 -447v-3h125q6 0 6 6v147q0 10 10 10h116q10 0 10 -10v-147q0 -6 6 -6h45q10 0 10 -10v-101q0 -10 -10 -10h-45q-6 0 -6 -6v-83q0 -10 -10 -10h-116q-10 0 -10 10v83q0 6 -6 6h-265z" />
    <glyph glyph-name="five" unicode="5" horiz-adv-x="556" 
d="M71 139q-2 9 8 11l108 21q9 1 12 -8q9 -24 28 -40t51 -16q26 0 44.5 12t26.5 36q5 12 6.5 27.5t1.5 38.5q0 25 -1.5 40t-6.5 27q-8 26 -27 36.5t-44 10.5q-28 0 -44.5 -12t-24.5 -27q-4 -10 -13 -10h-107q-10 0 -10 10v374q0 10 10 10h380q10 0 10 -10v-99q0 -10 -10 -10
h-261q-6 0 -6 -6v-134h3q13 11 38.5 21.5t63.5 10.5q66 0 111 -29t64 -86q7 -21 10.5 -47t3.5 -69q0 -32 -4 -58.5t-11 -47.5q-20 -63 -74 -95t-127 -32q-44 0 -80 11t-63.5 30.5t-44.5 47.5t-21 61z" />
    <glyph glyph-name="six" unicode="6" horiz-adv-x="556" 
d="M50 203q0 44 13 84t37 84l165 302q3 7 12 7h127q12 0 7 -10l-144 -263l2 -2q5 2 16.5 4t25.5 2q40 0 75.5 -14.5t62 -41t42 -64.5t15.5 -85q0 -51 -17.5 -91.5t-48 -68.5t-72.5 -42.5t-90 -14.5q-49 0 -90.5 14.5t-72 42t-48 67.5t-17.5 90zM188 201q0 -42 24 -68t66 -26
t66 26t24 68t-24 68.5t-66 26.5t-66 -26.5t-24 -68.5z" />
    <glyph glyph-name="seven" unicode="7" horiz-adv-x="556" 
d="M349 555v3h-143q-6 0 -6 -6v-71q0 -10 -10 -10h-111q-10 0 -10 10v189q0 10 10 10h407q10 0 10 -10v-104q0 -6 -2 -12l-216 -545q-4 -9 -14 -9h-125q-11 0 -6 11z" />
    <glyph glyph-name="eight" unicode="8" horiz-adv-x="556" 
d="M48 196q0 57 24.5 97t56.5 62v2q-24 17 -45 52.5t-21 83.5q0 39 14 75t41.5 63.5t67.5 43.5t92 16t92 -16t67.5 -43.5t41.5 -63.5t14 -75q0 -48 -21 -83.5t-45 -52.5v-2q32 -22 56.5 -62t24.5 -97q0 -47 -17.5 -85t-48 -65t-73 -42t-91.5 -15q-50 0 -92 15t-72.5 42
t-48 65t-17.5 85zM278 414q35 0 56.5 23.5t21.5 55.5q0 33 -21.5 56.5t-56.5 23.5t-56.5 -23.5t-21.5 -56.5q0 -32 21.5 -55.5t56.5 -23.5zM186 202q0 -42 25 -68.5t67 -26.5t67 26.5t25 68.5t-25 68t-67 26t-67 -26t-25 -68z" />
    <glyph glyph-name="nine" unicode="9" horiz-adv-x="556" 
d="M289 273l-2 2q-5 -2 -16.5 -4t-25.5 -2q-40 0 -75.5 14.5t-62 41t-42 64.5t-15.5 85q0 51 17.5 91.5t48 68.5t72.5 42.5t90 14.5q49 0 90.5 -14.5t72 -42t48 -67.5t17.5 -90q0 -44 -13 -84t-37 -84l-165 -302q-4 -7 -12 -7h-127q-12 0 -7 10zM278 384q42 0 66 26.5
t24 68.5t-24 68t-66 26t-66 -26t-24 -68t24 -68.5t66 -26.5z" />
    <glyph glyph-name="colon" unicode=":" horiz-adv-x="270" 
d="M75 345q-10 0 -10 10v119q0 10 10 10h120q10 0 10 -10v-119q0 -10 -10 -10h-120zM65 130q0 10 10 10h120q10 0 10 -10v-120q0 -10 -10 -10h-120q-10 0 -10 10v120z" />
    <glyph glyph-name="semicolon" unicode=";" horiz-adv-x="270" 
d="M75 345q-10 0 -10 10v119q0 10 10 10h120q10 0 10 -10v-119q0 -10 -10 -10h-120zM69 130q0 10 10 10h113q10 0 10 -10v-121q0 -12 -8 -20l-100 -90q-8 -7 -15 -7q-10 0 -10 11v227z" />
    <glyph glyph-name="less" unicode="&#x3c;" horiz-adv-x="556" 
d="M61 220q-10 3 -10 14v84q0 11 10 14l434 170q10 3 10 -6v-109q0 -9 -10 -13l-265 -97v-2l265 -97q10 -4 10 -13v-109q0 -9 -10 -6z" />
    <glyph glyph-name="equal" unicode="=" horiz-adv-x="556" 
d="M61 322q-10 0 -10 10v98q0 10 10 10h434q10 0 10 -10v-98q0 -10 -10 -10h-434zM61 112q-10 0 -10 10v98q0 10 10 10h434q10 0 10 -10v-98q0 -10 -10 -10h-434z" />
    <glyph glyph-name="greater" unicode="&#x3e;" horiz-adv-x="556" 
d="M51 165q0 9 10 13l265 97v2l-265 97q-10 4 -10 13v109q0 9 10 6l434 -170q10 -3 10 -14v-84q0 -11 -10 -14l-434 -170q-10 -3 -10 6v109z" />
    <glyph glyph-name="question" unicode="?" horiz-adv-x="473" 
d="M170 199q-10 0 -10 10v42q0 29 7 47t22 37l70 91q21 25 29.5 43t8.5 37q0 29 -17.5 47.5t-48.5 18.5t-49.5 -18.5t-25.5 -51.5q-3 -10 -13 -9l-108 16q-10 1 -8 12q11 78 65.5 124t142.5 46q45 0 82 -14t63.5 -38t41 -57t14.5 -71t-13.5 -68.5t-39.5 -61.5l-67 -88
q-12 -14 -16 -26.5t-4 -33.5v-24q0 -10 -10 -10h-116zM158 124q0 10 10 10h120q10 0 10 -10v-114q0 -10 -10 -10h-120q-10 0 -10 10v114z" />
    <glyph glyph-name="at" unicode="@" horiz-adv-x="910" 
d="M43 265q0 90 30 164.5t84 128t129 82.5t166 29t166.5 -29.5t129.5 -82.5t83.5 -126.5t29.5 -162.5q0 -55 -14.5 -95.5t-39 -67t-56.5 -39.5t-68 -13q-48 0 -80 18t-49 47h-1q-16 -29 -47 -46.5t-87 -17.5q-113 0 -143 95q-8 22 -11 47.5t-3 68.5q0 42 3 68t11 47
q15 48 49.5 72t85.5 24q39 0 67 -15t41 -36h1v31q0 9 8 9h96q8 0 8 -9v-243q0 -33 15.5 -48t37.5 -15q28 0 46.5 26t18.5 91q0 68 -20.5 124.5t-59.5 96.5t-94 62t-124 22t-124 -22t-94 -62t-59.5 -97t-20.5 -126q0 -68 20.5 -124t59.5 -95.5t94 -61.5t124 -22
q66 0 114.5 12.5t92.5 34.5q10 5 14 -4l36 -65q5 -8 -4 -13q-54 -32 -115 -47.5t-138 -15.5q-91 0 -166 29.5t-129 82.5t-84 126.5t-30 162.5zM382 198q16 -46 66 -46q51 0 66 46q4 11 5 24.5t1 42.5t-1 42.5t-5 23.5q-15 47 -66 47q-49 0 -66 -47q-3 -10 -4.5 -23.5
t-1.5 -42.5t1.5 -42.5t4.5 -24.5z" />
    <glyph glyph-name="A" unicode="A" horiz-adv-x="644" 
d="M248 670q3 10 13 10h126q10 0 13 -10l230 -660q3 -10 -7 -10h-130q-10 0 -13 10l-39 119h-238l-38 -119q-3 -10 -13 -10h-131q-10 0 -7 10zM401 254l-77 238h-3l-77 -238h157z" />
    <glyph glyph-name="B" unicode="B" horiz-adv-x="610" 
d="M65 670q0 10 10 10h265q111 0 164 -50t53 -131q0 -56 -22.5 -91t-56.5 -54v-2q17 -6 33.5 -19.5t29 -33.5t20.5 -45.5t8 -55.5q0 -101 -62.5 -149.5t-173.5 -48.5h-258q-10 0 -10 10v660zM322 402q42 0 65.5 21t23.5 59t-23.5 58.5t-65.5 20.5h-104q-6 0 -6 -6v-147
q0 -6 6 -6h104zM212 125q0 -6 6 -6h112q45 0 68.5 22.5t23.5 62.5q0 39 -23.5 62t-68.5 23h-112q-6 0 -6 -6v-158z" />
    <glyph glyph-name="C" unicode="C" horiz-adv-x="575" 
d="M66 156q-6 16 -9.5 32.5t-5.5 37t-3 48t-1 66.5t1 66.5t3 48t5.5 36.5t9.5 33q27 84 89.5 125.5t152.5 41.5q87 0 147.5 -39.5t89.5 -111.5q5 -9 -5 -12l-109 -49q-9 -5 -14 5q-14 33 -39.5 55t-68.5 22q-40 0 -65.5 -20t-36.5 -55q-3 -9 -5 -19.5t-3.5 -26.5t-2 -40
t-0.5 -60t0.5 -60t2 -40t3.5 -26.5t5 -19.5q11 -35 36.5 -55t65.5 -20q43 0 68.5 22t39.5 55q5 10 14 5l109 -49q10 -3 5 -12q-29 -72 -89.5 -111.5t-147.5 -39.5q-90 0 -152.5 41.5t-89.5 125.5z" />
    <glyph glyph-name="D" unicode="D" horiz-adv-x="630" 
d="M65 670q0 10 10 10h253q90 0 150 -38t85 -115q4 -14 7.5 -29.5t6 -36.5t3.5 -50t1 -71t-1 -71t-3.5 -50t-6 -36.5t-7.5 -29.5q-25 -77 -85 -115t-150 -38h-253q-10 0 -10 10v660zM212 137q0 -6 6 -6h77q51 0 82 16.5t44 58.5q3 7 5 16.5t3.5 24.5t2 37.5t0.5 55.5
t-0.5 55t-2 37t-3.5 24.5t-5 17.5q-13 42 -44 58.5t-82 16.5h-77q-6 0 -6 -6v-406z" />
    <glyph glyph-name="E" unicode="E" horiz-adv-x="565" 
d="M65 670q0 10 10 10h436q10 0 10 -10v-107q0 -10 -10 -10h-293q-6 0 -6 -6v-135q0 -6 6 -6h244q10 0 10 -10v-106q0 -10 -10 -10h-244q-6 0 -6 -6v-141q0 -6 6 -6h293q10 0 10 -10v-107q0 -10 -10 -10h-436q-10 0 -10 10v660z" />
    <glyph glyph-name="F" unicode="F" horiz-adv-x="557" 
d="M65 670q0 10 10 10h436q10 0 10 -10v-107q0 -10 -10 -10h-293q-6 0 -6 -6v-143q0 -6 6 -6h244q10 0 10 -10v-106q0 -10 -10 -10h-244q-6 0 -6 -6v-256q0 -10 -10 -10h-127q-10 0 -10 10v660z" />
    <glyph glyph-name="G" unicode="G" horiz-adv-x="628" 
d="M66 154q-6 18 -9.5 35t-5.5 38t-3 48t-1 65t1 65t3 48t5.5 38t9.5 35q26 83 92.5 124t157.5 41q48 0 87 -11t69.5 -30.5t52 -46t33.5 -57.5q5 -10 -4 -15l-107 -45q-11 -3 -14 5q-20 35 -47.5 52.5t-69.5 17.5q-44 0 -71 -20.5t-38 -55.5q-3 -9 -5 -20.5t-3.5 -28t-2 -40
t-0.5 -56.5t0.5 -57t2 -40.5t3.5 -28t5 -20.5q11 -35 38.5 -55t72.5 -20q38 0 68 18t41 52q4 13 6 29t2 38q0 6 -6 6h-92q-10 0 -10 10v96q0 10 10 10h234q10 0 10 -10v-56q0 -45 -4 -85t-13 -68q-26 -82 -91.5 -126t-156.5 -44t-157.5 41t-92.5 124z" />
    <glyph glyph-name="H" unicode="H" horiz-adv-x="658" 
d="M65 670q0 10 10 10h127q10 0 10 -10v-255q0 -6 6 -6h222q6 0 6 6v255q0 10 10 10h127q10 0 10 -10v-660q0 -10 -10 -10h-127q-10 0 -10 10v262q0 6 -6 6h-222q-6 0 -6 -6v-262q0 -10 -10 -10h-127q-10 0 -10 10v660z" />
    <glyph glyph-name="I" unicode="I" horiz-adv-x="277" 
d="M65 670q0 10 10 10h127q10 0 10 -10v-660q0 -10 -10 -10h-127q-10 0 -10 10v660z" />
    <glyph glyph-name="J" unicode="J" horiz-adv-x="521" 
d="M21 76q-5 8 1 14l93 71q7 5 14 -2q13 -15 34.5 -27.5t48.5 -12.5q48 0 74 30t26 88v433q0 10 10 10h127q10 0 10 -10v-426q0 -126 -65.5 -190.5t-182.5 -64.5q-63 0 -114.5 24.5t-75.5 62.5z" />
    <glyph glyph-name="K" unicode="K" horiz-adv-x="645" 
d="M65 670q0 10 10 10h127q10 0 10 -10v-294l226 295q6 9 17 9h145q5 0 6.5 -4t-2.5 -9l-206 -258l225 -397q7 -12 -6 -12h-147q-10 0 -15 9l-154 286l-89 -112v-173q0 -10 -10 -10h-127q-10 0 -10 10v660z" />
    <glyph glyph-name="L" unicode="L" horiz-adv-x="550" 
d="M65 670q0 10 10 10h127q10 0 10 -10v-533q0 -6 6 -6h300q10 0 10 -10v-111q0 -10 -10 -10h-443q-10 0 -10 10v660z" />
    <glyph glyph-name="M" unicode="M" horiz-adv-x="763" 
d="M65 670q0 10 10 10h119q12 0 16 -10l172 -388h4l169 388q4 10 16 10h117q10 0 10 -10v-660q0 -10 -10 -10h-113q-10 0 -10 10v383h-4l-126 -287q-6 -13 -19 -13h-69q-13 0 -19 13l-126 287h-4v-383q0 -10 -10 -10h-113q-10 0 -10 10v660z" />
    <glyph glyph-name="N" unicode="N" horiz-adv-x="655" 
d="M65 670q0 10 10 10h120q11 0 17 -10l240 -428h5v428q0 10 10 10h113q10 0 10 -10v-660q0 -10 -10 -10h-119q-11 0 -17 10l-241 427h-5v-427q0 -10 -10 -10h-113q-10 0 -10 10v660z" />
    <glyph glyph-name="O" unicode="O" horiz-adv-x="628" 
d="M314 -11q-89 0 -155.5 41t-92.5 124q-6 18 -9.5 35t-5.5 38t-3 48t-1 65t1 65t3 48t5.5 38t9.5 35q26 82 92.5 123.5t155.5 41.5t155.5 -41.5t92.5 -123.5q6 -18 9.5 -35t5.5 -38t3 -48t1 -65t-1 -65t-3 -48t-5.5 -38t-9.5 -35q-26 -83 -92.5 -124t-155.5 -41zM314 119
q42 0 69 20t38 55q3 9 5 20.5t3.5 28t2 40.5t0.5 57t-0.5 57t-2 40.5t-3.5 28t-5 20.5q-11 35 -38 55t-69 20t-69 -20t-38 -55q-3 -9 -5 -20.5t-3.5 -28t-2 -40.5t-0.5 -57t0.5 -57t2 -40.5t3.5 -28t5 -20.5q11 -35 38 -55t69 -20z" />
    <glyph glyph-name="P" unicode="P" horiz-adv-x="605" 
d="M75 0q-10 0 -10 10v660q0 10 10 10h264q55 0 99 -16t75 -45t47 -69t16 -89q0 -48 -16.5 -88t-47 -69t-74.5 -45t-99 -16h-121q-6 0 -6 -6v-227q0 -10 -10 -10h-127zM330 370q47 0 73 24.5t26 66.5t-26 67t-73 25h-112q-6 0 -6 -6v-171q0 -6 6 -6h112z" />
    <glyph glyph-name="Q" unicode="Q" horiz-adv-x="628" 
d="M536 -49q-3 -3 -7 -3.5t-8 3.5l-69 69q-62 -31 -138 -31q-89 0 -155.5 41t-92.5 124q-6 18 -9.5 35t-5.5 38t-3 48t-1 65t1 65t3 48t5.5 38t9.5 35q26 82 92.5 123.5t155.5 41.5q90 0 155.5 -41t92.5 -124q6 -18 9.5 -35t5.5 -38t3 -48t1 -65t-1 -65t-3 -48t-5.5 -38
t-9.5 -35q-4 -11 -8 -21t-9 -20l71 -70q7 -7 0 -14zM314 118q21 0 36 4l-43 43q-7 7 0 14l80 76q8 7 15 0l27 -27q2 17 3 43.5t1 68.5q0 33 -0.5 57t-2 41t-3.5 28.5t-5 20.5q-11 35 -38.5 55t-69.5 20t-69.5 -20t-38.5 -55q-3 -9 -5 -20.5t-3.5 -28.5t-2 -41t-0.5 -57
t0.5 -57t2 -41t3.5 -28.5t5 -20.5q11 -35 38.5 -55t69.5 -20z" />
    <glyph glyph-name="R" unicode="R" horiz-adv-x="624" 
d="M441 0q-11 0 -15 10l-117 249h-91q-6 0 -6 -6v-243q0 -10 -10 -10h-127q-10 0 -10 10v660q0 10 10 10h271q52 0 94.5 -15.5t73 -43.5t47 -67t16.5 -85q0 -66 -32 -115t-89 -74l134 -268q2 -5 0 -8.5t-7 -3.5h-142zM338 384q42 0 67 23t25 62q0 38 -25 61t-67 23h-120
q-6 0 -6 -6v-157q0 -6 6 -6h120z" />
    <glyph glyph-name="S" unicode="S" horiz-adv-x="595" 
d="M294 -11q-40 0 -78.5 7.5t-72.5 20t-62.5 29.5t-48.5 36q-8 8 -1 17l76 87q6 8 15 1q34 -27 79 -48.5t99 -21.5t82.5 22.5t28.5 58.5q0 30 -22 49t-83 27l-36 5q-104 14 -159.5 63.5t-55.5 140.5q0 47 17 85.5t48.5 65.5t76 42t99.5 15q68 0 128 -19t103 -52q9 -6 2 -15
l-61 -91q-6 -8 -14 -3q-39 26 -77.5 39t-80.5 13q-45 0 -68 -21t-23 -53q0 -29 23.5 -48t82.5 -27l36 -5q106 -14 160 -63.5t54 -142.5q0 -46 -17 -85.5t-50.5 -68t-83.5 -44.5t-116 -16z" />
    <glyph glyph-name="T" unicode="T" horiz-adv-x="557" 
d="M215 0q-10 0 -10 10v533q0 6 -6 6h-172q-10 0 -10 10v111q0 10 10 10h503q10 0 10 -10v-111q0 -10 -10 -10h-172q-6 0 -6 -6v-533q0 -10 -10 -10h-127z" />
    <glyph glyph-name="U" unicode="U" horiz-adv-x="645" 
d="M323 -11q-57 0 -105 17t-82.5 50t-54 82t-19.5 112v420q0 10 10 10h127q10 0 10 -10v-424q0 -61 31 -94t83 -33q51 0 82 33t31 94v424q0 10 10 10h127q10 0 10 -10v-420q0 -63 -19.5 -112t-54 -82t-82 -50t-104.5 -17z" />
    <glyph glyph-name="V" unicode="V" horiz-adv-x="595" 
d="M240 0q-10 0 -13 10l-216 659q-3 11 9 11h130q10 0 13 -10l136 -446h3l132 446q3 10 13 10h129q11 0 8 -11l-216 -659q-3 -10 -12 -10h-116z" />
    <glyph glyph-name="W" unicode="W" horiz-adv-x="865" 
d="M565 0q-10 0 -13 10l-118 423h-2l-119 -423q-3 -10 -13 -10h-100q-9 0 -12 10l-176 660q-2 10 8 10h129q10 0 12 -10l98 -427h2l116 427q3 10 13 10h87q9 0 12 -10l120 -427h2l94 427q1 10 12 10h128q10 0 8 -10l-175 -660q-2 -10 -13 -10h-100z" />
    <glyph glyph-name="X" unicode="X" horiz-adv-x="595" 
d="M437 0q-11 0 -17 10l-121 207h-3l-122 -207q-6 -10 -17 -10h-138q-5 0 -7 3.5t1 8.5l203 339l-189 317q-2 5 -0.5 8.5t6.5 3.5h139q10 0 16 -10l108 -184h3l108 184q6 10 16 10h139q5 0 6.5 -3.5t-0.5 -8.5l-190 -317l204 -339q2 -5 0.5 -8.5t-6.5 -3.5h-139z" />
    <glyph glyph-name="Y" unicode="Y" horiz-adv-x="568" 
d="M220 0q-10 0 -10 10v261l-201 399q-4 10 7 10h130q11 0 15 -10l123 -248h3l123 248q4 10 15 10h126q5 0 7 -3t0 -7l-201 -399v-261q0 -10 -10 -10h-127z" />
    <glyph glyph-name="Z" unicode="Z" horiz-adv-x="546" 
d="M50 0q-10 0 -10 10v110q0 5 3 10l293 417v2h-275q-10 0 -10 10v111q0 10 10 10h435q10 0 10 -10v-110q0 -6 -3 -10l-294 -417v-2h287q10 0 10 -10v-111q0 -10 -10 -10h-446z" />
    <glyph glyph-name="bracketleft" unicode="[" horiz-adv-x="302" 
d="M74 -84q-10 0 -10 10v804q0 10 10 10h190q10 0 10 -10v-84q0 -10 -10 -10h-70q-6 0 -6 -6v-604q0 -6 6 -6h70q10 0 10 -10v-84q0 -10 -10 -10h-190z" />
    <glyph glyph-name="backslash" unicode="\" horiz-adv-x="436" 
d="M275 -11q-10 0 -13 10l-217 682q-3 10 7 10h108q10 0 13 -10l218 -682q3 -10 -7 -10h-109z" />
    <glyph glyph-name="bracketright" unicode="]" horiz-adv-x="302" 
d="M38 -84q-10 0 -10 10v84q0 10 10 10h70q6 0 6 6v604q0 6 -6 6h-70q-10 0 -10 10v84q0 10 10 10h190q10 0 10 -10v-804q0 -10 -10 -10h-190z" />
    <glyph glyph-name="asciicircum" unicode="^" horiz-adv-x="556" 
d="M390 253q-10 0 -14 10l-97 248h-2l-98 -248q-3 -10 -13 -10h-109q-10 0 -7 10l171 407q5 10 14 10h86q9 0 14 -10l171 -407q3 -10 -7 -10h-109z" />
    <glyph glyph-name="underscore" unicode="_" horiz-adv-x="520" 
d="M0 -152v88h520v-88h-520z" />
    <glyph glyph-name="grave" unicode="`" horiz-adv-x="454" 
d="M236 551q-12 0 -19 10l-99 130q-3 4 -1.5 7t6.5 3h116q12 0 18 -10l76 -130q5 -10 -5 -10h-92z" />
    <glyph glyph-name="a" unicode="a" horiz-adv-x="528" 
d="M347 0q-10 0 -10 10v32h-1q-19 -24 -51 -38.5t-82 -14.5q-32 0 -61.5 8.5t-51.5 26.5t-35 46t-13 67q0 80 55.5 118t145.5 38h86q6 0 6 6v18q0 34 -20.5 50t-78.5 16q-37 0 -64 -9t-44 -22q-8 -6 -13 2l-45 79q-5 9 3 14q31 22 75.5 35t104.5 13q59 0 100 -10.5t66.5 -32
t37 -54.5t11.5 -78v-310q0 -10 -10 -10h-111zM245 94q90 0 90 67v33q0 6 -6 6h-68q-86 0 -86 -55q0 -51 70 -51z" />
    <glyph glyph-name="b" unicode="b" horiz-adv-x="551" 
d="M331 -11q-48 0 -79 15.5t-48 40.5h-1v-35q0 -10 -10 -10h-120q-10 0 -10 10v660q0 10 10 10h120q10 0 10 -10v-231h1q17 25 48 40.5t79 15.5q61 0 103 -29t61 -87q9 -29 13 -59t4 -78q0 -47 -4 -77.5t-13 -59.5q-19 -57 -61 -86.5t-103 -29.5zM286 107q58 0 75 52
q5 14 7 32.5t2 50.5t-2 50.5t-7 32.5q-16 52 -75 52q-58 0 -74 -52q-5 -14 -7 -32.5t-2 -50.5t2 -50.5t7 -32.5q17 -52 74 -52z" />
    <glyph glyph-name="c" unicode="c" horiz-adv-x="481" 
d="M263 -11q-77 0 -132 34.5t-77 102.5q-8 22 -11.5 50t-3.5 66t3.5 66t11.5 50q22 68 77 102.5t132 34.5q63 0 110 -25.5t73 -65.5q5 -8 -2 -14l-87 -57q-9 -6 -15 2q-16 22 -33.5 32t-43.5 10q-28 0 -47.5 -13t-27.5 -39q-5 -15 -7 -34t-2 -49t2 -49t7 -34q8 -26 27.5 -39
t47.5 -13q26 0 43.5 10t33.5 32q6 8 15 2l87 -57q7 -6 2 -14q-26 -40 -73 -65.5t-110 -25.5z" />
    <glyph glyph-name="d" unicode="d" horiz-adv-x="551" 
d="M358 0q-10 0 -10 10v35h-1q-17 -25 -48 -40.5t-79 -15.5q-61 0 -103 29.5t-61 86.5q-9 29 -13 59.5t-4 77.5q0 48 4 78t13 59q19 58 61 87t103 29q48 0 79 -15.5t48 -40.5h1v231q0 10 10 10h120q10 0 10 -10v-660q0 -10 -10 -10h-120zM265 107q57 0 74 52q5 14 7 32.5
t2 50.5t-2 50.5t-7 32.5q-16 52 -74 52q-59 0 -75 -52q-5 -14 -7 -32.5t-2 -50.5t2 -50.5t7 -32.5q17 -52 75 -52z" />
    <glyph glyph-name="e" unicode="e" horiz-adv-x="527" 
d="M270 -11q-83 0 -138 36t-76 102q-8 23 -12.5 50t-4.5 65t4 65.5t12 50.5q21 66 75.5 101.5t132.5 35.5q81 0 134.5 -36t74.5 -100q4 -12 7 -25.5t5 -30.5t3 -39.5t1 -53.5q0 -10 -11 -10h-293q-6 0 -6 -6q1 -15 6 -27q10 -32 36 -48t64 -16q36 0 63 11.5t48 31.5
q9 7 14 0l66 -62q8 -7 1 -14q-35 -37 -87 -59t-119 -22zM344 293q6 0 6 6q0 11 -1.5 19.5t-3.5 16.5q-8 25 -29.5 39t-51.5 14t-51.5 -14t-29.5 -39q-2 -8 -3.5 -16.5t-1.5 -19.5q0 -6 6 -6h160z" />
    <glyph glyph-name="f" unicode="f" horiz-adv-x="339" 
d="M91 0q-10 0 -10 10v365q0 6 -6 6h-30q-10 0 -10 10v83q0 10 10 10h30q6 0 6 6v23q0 89 41.5 128t128.5 39h55q10 0 10 -10v-94q0 -10 -10 -10h-31q-33 0 -44 -10.5t-11 -41.5v-24q0 -6 6 -6h79q10 0 10 -10v-83q0 -10 -10 -10h-79q-6 0 -6 -6v-365q0 -10 -10 -10h-119z
" />
    <glyph glyph-name="g" unicode="g" horiz-adv-x="543" 
d="M239 -191q-27 0 -54 5.5t-51.5 15t-44.5 23t-33 29.5q-6 8 1 15l71 72q7 7 15 0q23 -20 47 -31t53 -11q51 0 74 26.5t23 80.5v41h-1q-16 -26 -47 -41t-77 -15q-60 0 -101.5 29.5t-60.5 87.5q-8 27 -12 54.5t-4 66.5t4 67t12 54q19 58 60.5 87.5t101.5 29.5q46 0 77 -15
t47 -41h1v35q0 10 10 10h120q10 0 10 -10v-422q0 -243 -241 -243zM259 137q29 0 46.5 13t25.5 39q5 14 7 29.5t2 38.5t-2 38.5t-7 29.5q-8 26 -25.5 39t-46.5 13t-46 -13t-26 -39q-4 -14 -6 -29.5t-2 -38.5t2 -38.5t6 -29.5q9 -26 26 -39t46 -13z" />
    <glyph glyph-name="h" unicode="h" horiz-adv-x="553" 
d="M364 0q-10 0 -10 10v278q0 40 -18.5 64t-56.5 24q-36 0 -56 -24t-20 -64v-278q0 -10 -10 -10h-120q-10 0 -10 10v660q0 10 10 10h120q10 0 10 -10v-230h1q17 23 47.5 39t77.5 16q40 0 71 -13t52 -37t31.5 -57t10.5 -73v-305q0 -10 -10 -10h-120z" />
    <glyph glyph-name="i" unicode="i" horiz-adv-x="266" 
d="M73 561q-10 0 -10 10v99q0 10 10 10h120q10 0 10 -10v-99q0 -10 -10 -10h-120zM73 0q-10 0 -10 10v464q0 10 10 10h120q10 0 10 -10v-464q0 -10 -10 -10h-120z" />
    <glyph glyph-name="j" unicode="j" horiz-adv-x="266" 
d="M73 561q-10 0 -10 10v99q0 10 10 10h120q10 0 10 -10v-99q0 -10 -10 -10h-120zM-11 -180q-10 0 -10 10v98q0 10 10 10h20q29 0 41.5 11.5t12.5 44.5v480q0 10 10 10h120q10 0 10 -10v-479q0 -93 -46.5 -134t-134.5 -41h-33z" />
    <glyph glyph-name="k" unicode="k" horiz-adv-x="531" 
d="M376 0q-9 0 -15 10l-108 195l-50 -62v-133q0 -10 -10 -10h-120q-10 0 -10 10v660q0 10 10 10h120q10 0 10 -10v-367l139 171q9 10 19 10h128q5 0 6 -3.5t-2 -6.5l-148 -171l169 -293q2 -3 1 -6.5t-6 -3.5h-133z" />
    <glyph glyph-name="l" unicode="l" horiz-adv-x="304" 
d="M211 -6q-81 0 -115.5 36.5t-34.5 117.5v522q0 10 10 10h120q10 0 10 -10v-511q0 -25 10 -35.5t32 -10.5h21q10 0 10 -10v-99q0 -10 -10 -10h-53z" />
    <glyph glyph-name="m" unicode="m" horiz-adv-x="844" 
d="M655 0q-10 0 -10 10v278q0 40 -19 64t-57 24q-36 0 -55.5 -24t-19.5 -64v-278q0 -10 -10 -10h-120q-10 0 -10 10v278q0 40 -18.5 64t-56.5 24q-36 0 -56 -24t-20 -64v-278q0 -10 -10 -10h-120q-10 0 -10 10v464q0 10 10 10h120q10 0 10 -10v-34h1q17 23 47.5 39t77.5 16
q87 0 130 -61h1q27 29 64 45t88 16q85 0 129 -50t44 -130v-305q0 -10 -10 -10h-120z" />
    <glyph glyph-name="n" unicode="n" horiz-adv-x="553" 
d="M364 0q-10 0 -10 10v278q0 40 -18.5 64t-56.5 24q-36 0 -56 -24t-20 -64v-278q0 -10 -10 -10h-120q-10 0 -10 10v464q0 10 10 10h120q10 0 10 -10v-34h1q17 23 47.5 39t77.5 16q40 0 71 -13t52 -37t31.5 -57t10.5 -73v-305q0 -10 -10 -10h-120z" />
    <glyph glyph-name="o" unicode="o" horiz-adv-x="530" 
d="M265 -11q-77 0 -133 35t-77 101q-8 26 -12 53.5t-4 63.5t4 63.5t12 53.5q21 66 77 101t133 35t133 -35t77 -101q8 -26 12 -53.5t4 -63.5t-4 -63.5t-12 -53.5q-21 -66 -77 -101t-133 -35zM265 107q58 0 75 52q5 17 7 34.5t2 48.5t-2 48.5t-7 34.5q-17 52 -75 52t-75 -52
q-5 -17 -7 -34.5t-2 -48.5t2 -48.5t7 -34.5q17 -52 75 -52z" />
    <glyph glyph-name="p" unicode="p" horiz-adv-x="551" 
d="M73 -180q-10 0 -10 10v644q0 10 10 10h120q10 0 10 -10v-35h1q17 25 48 40.5t79 15.5q61 0 103 -29t61 -87q9 -29 13 -59t4 -78q0 -47 -4 -77.5t-13 -59.5q-19 -57 -61 -86.5t-103 -29.5q-48 0 -79 15.5t-48 40.5h-1v-215q0 -10 -10 -10h-120zM286 107q58 0 75 52
q5 14 7 32.5t2 50.5t-2 50.5t-7 32.5q-16 52 -75 52q-58 0 -74 -52q-5 -14 -7 -32.5t-2 -50.5t2 -50.5t7 -32.5q17 -52 74 -52z" />
    <glyph glyph-name="q" unicode="q" horiz-adv-x="551" 
d="M358 -180q-10 0 -10 10v215h-1q-17 -25 -48 -40.5t-79 -15.5q-61 0 -103 29.5t-61 86.5q-9 29 -13 59.5t-4 77.5q0 48 4 78t13 59q19 58 61 87t103 29q48 0 79 -15.5t48 -40.5h1v35q0 10 10 10h120q10 0 10 -10v-644q0 -10 -10 -10h-120zM265 107q57 0 74 52q5 14 7 32.5
t2 50.5t-2 50.5t-7 32.5q-16 52 -74 52q-59 0 -75 -52q-5 -14 -7 -32.5t-2 -50.5t2 -50.5t7 -32.5q17 -52 75 -52z" />
    <glyph glyph-name="r" unicode="r" horiz-adv-x="426" 
d="M73 0q-10 0 -10 10v464q0 10 10 10h120q10 0 10 -10v-41h1q17 29 49 45.5t77 16.5q24 0 46.5 -7.5t38.5 -21.5q7 -6 3 -14l-56 -102q-5 -6 -14 -2q-36 23 -70 22q-39 -2 -57 -29t-18 -76v-255q0 -10 -10 -10h-120z" />
    <glyph glyph-name="s" unicode="s" horiz-adv-x="505" 
d="M253 -11q-76 0 -130.5 22.5t-89.5 52.5q-7 7 0 14l65 73q6 6 14 0q32 -25 71 -39t77 -14t56.5 13t18.5 33q0 17 -13.5 27.5t-55.5 14.5l-54 6q-77 8 -117.5 45t-40.5 103q0 72 52 113.5t147 41.5q62 0 112 -17t84 -43q7 -7 1 -15l-56 -69q-6 -7 -14 -2q-25 16 -59 27.5
t-72 11.5q-31 0 -46 -11t-15 -29q0 -17 13 -26.5t54 -13.5l53 -6q86 -8 123.5 -47t37.5 -100q-1 -75 -56.5 -120.5t-159.5 -45.5z" />
    <glyph glyph-name="t" unicode="t" horiz-adv-x="331" 
d="M227 -6q-84 0 -119 39t-35 122v220q0 6 -6 6h-30q-10 0 -10 10v83q0 10 10 10h30q6 0 6 6v130q0 10 10 10h119q10 0 10 -10v-130q0 -6 6 -6h62q10 0 10 -10v-83q0 -10 -10 -10h-62q-6 0 -6 -6v-214q0 -27 10 -37.5t34 -10.5h24q10 0 10 -10v-99q0 -10 -10 -10h-53z" />
    <glyph glyph-name="u" unicode="u" horiz-adv-x="549" 
d="M356 0q-10 0 -10 10v35h-1q-19 -25 -48.5 -40.5t-75.5 -15.5q-40 0 -70.5 13.5t-51 37.5t-31 57t-10.5 72v305q0 10 10 10h120q10 0 10 -10v-278q0 -39 18.5 -63.5t55.5 -24.5q36 0 55 24t19 64v278q0 10 10 10h120q10 0 10 -10v-464q0 -10 -10 -10h-120z" />
    <glyph glyph-name="v" unicode="v" horiz-adv-x="508" 
d="M199 0q-9 0 -12 10l-172 464q-3 10 8 10h126q10 0 13 -10l94 -287h2l90 287q3 10 13 10h124q11 0 8 -10l-172 -464q-3 -10 -12 -10h-110z" />
    <glyph glyph-name="w" unicode="w" horiz-adv-x="763" 
d="M478 0q-9 0 -12 10l-83 281h-2l-85 -281q-3 -10 -12 -10h-99q-9 0 -12 10l-155 464q-3 10 7 10h123q11 0 14 -10l80 -288h2l83 288q3 10 14 10h84q10 0 13 -10l85 -288h2l76 288q3 10 13 10h123q11 0 8 -10l-155 -464q-3 -10 -12 -10h-100z" />
    <glyph glyph-name="x" unicode="x" horiz-adv-x="515" 
d="M359 0q-9 0 -15 9l-87 132h-1l-86 -132q-8 -9 -16 -9h-129q-6 0 -7.5 3t0.5 7l163 241l-151 223q-2 4 -0.5 7t7.5 3h130q11 0 17 -9l73 -114h1l74 114q7 9 16 9h129q7 0 8.5 -3t-0.5 -7l-151 -223l163 -241q2 -4 0.5 -7t-8.5 -3h-130z" />
    <glyph glyph-name="y" unicode="y" horiz-adv-x="507" 
d="M93 -180q-10 0 -10 10v98q0 10 10 10h21q26 0 41.5 11.5t24.5 38.5l13 36l-180 450q-3 10 8 10h128q9 0 12 -10l97 -280h2l90 280q3 10 12 10h124q11 0 8 -10l-196 -515q-15 -40 -31.5 -67t-36.5 -43t-45 -22.5t-58 -6.5h-34z" />
    <glyph glyph-name="z" unicode="z" horiz-adv-x="490" 
d="M56 0q-10 0 -10 10v90q0 5 3 10l230 257v2h-210q-10 0 -10 10v95q0 10 10 10h365q10 0 10 -10v-95q0 -6 -3 -10l-228 -252v-2h221q10 0 10 -10v-95q0 -10 -10 -10h-378z" />
    <glyph glyph-name="braceleft" unicode="{" horiz-adv-x="357" 
d="M252 -84q-62 0 -94 31.5t-32 91.5v153q0 42 -16.5 61.5t-52.5 19.5q-10 0 -10 10v94q0 10 10 10q36 0 52.5 19.5t16.5 61.5v149q0 60 32 91.5t94 31.5h67q10 0 10 -10v-84q0 -10 -10 -10h-28q-42 0 -42 -43v-137q0 -57 -16.5 -84t-55.5 -41v-2q39 -14 55.5 -41.5
t16.5 -84.5v-140q0 -43 42 -43h28q10 0 10 -10v-84q0 -10 -10 -10h-67z" />
    <glyph glyph-name="bar" unicode="|" horiz-adv-x="335" 
d="M118 -84q-10 0 -10 10v804q0 10 10 10h99q10 0 10 -10v-804q0 -10 -10 -10h-99z" />
    <glyph glyph-name="braceright" unicode="}" horiz-adv-x="357" 
d="M38 -84q-10 0 -10 10v84q0 10 10 10h28q42 0 42 43v140q0 57 16.5 84.5t55.5 41.5v2q-39 14 -55.5 41t-16.5 84v137q0 43 -42 43h-28q-10 0 -10 10v84q0 10 10 10h67q62 0 94 -31.5t32 -91.5v-149q0 -42 16.5 -61.5t52.5 -19.5q10 0 10 -10v-94q0 -10 -10 -10
q-36 0 -52.5 -19.5t-16.5 -61.5v-153q0 -60 -32 -91.5t-94 -31.5h-67z" />
    <glyph glyph-name="asciitilde" unicode="~" horiz-adv-x="556" 
d="M510 296q-21 -47 -58.5 -76t-85.5 -29q-32 0 -55.5 9t-49.5 26q-19 12 -33.5 18.5t-31.5 6.5q-21 0 -36 -11.5t-29 -37.5q-5 -9 -15 -2l-67 41q-7 5 -3 14q21 47 58.5 76t85.5 29q32 0 55.5 -9t49.5 -26q19 -12 33.5 -18.5t31.5 -6.5q21 0 36 11.5t29 37.5q5 9 15 2
l67 -41q7 -4 3 -14z" />
    <glyph glyph-name="uni00A0" unicode="&#xa0;" horiz-adv-x="236" 
 />
    <glyph glyph-name="exclamdown" unicode="&#xa1;" horiz-adv-x="312" 
d="M197 285q10 0 10 -10l24 -461q0 -10 -10 -10h-130q-10 0 -10 10l24 461q0 10 10 10h82zM226 360q0 -10 -10 -10h-120q-10 0 -10 10v114q0 10 10 10h120q10 0 10 -10v-114z" />
    <glyph glyph-name="cent" unicode="&#xa2;" horiz-adv-x="556" 
d="M329 494q54 -6 94 -30.5t63 -59.5q5 -9 -2 -14l-87 -57q-9 -7 -15 2q-11 16 -23.5 25.5t-29.5 13.5v-264q17 4 29.5 13.5t23.5 26.5q6 8 15 1l87 -57q5 -2 4.5 -6t-2.5 -7q-23 -36 -62.5 -60.5t-94.5 -29.5v-79q0 -10 -10 -10h-45q-10 0 -10 10v79q-67 7 -113 41t-65 94
q-8 22 -11.5 50t-3.5 66t3.5 66t11.5 50q20 60 65.5 94t112.5 42v78q0 10 10 10h45q10 0 10 -10v-78zM213 242q0 -29 2 -48.5t7 -33.5q11 -37 42 -47v258q-32 -12 -42 -46q-5 -15 -7 -34t-2 -49z" />
    <glyph glyph-name="sterling" unicode="&#xa3;" horiz-adv-x="556" 
d="M92 0q-10 0 -10 10v97q0 7 5 12q8 7 14 14.5t10.5 17t7 22.5t2.5 32v58q0 6 -6 6h-41q-10 0 -10 10v79q0 10 10 10h41q6 0 6 6v122q0 94 51 144.5t139 50.5q76 0 122.5 -38.5t57.5 -98.5q2 -9 -9 -11l-109 -24q-10 0 -11 9q-4 19 -16 32t-34 13q-25 0 -37.5 -16.5
t-12.5 -44.5v-138q0 -6 6 -6h121q10 0 10 -10v-79q0 -10 -10 -10h-121q-6 0 -6 -6v-43q0 -35 -6.5 -59t-19.5 -40v-2h245q10 0 10 -10v-99q0 -10 -10 -10h-389z" />
    <glyph glyph-name="currency" unicode="&#xa4;" horiz-adv-x="556" 
d="M451 65q-7 -7 -14 0l-60 60q-45 -25 -99 -25q-55 0 -100 25l-59 -59q-7 -7 -14 0l-68 69q-7 7 0 14l59 59q-23 43 -23 97q0 26 6.5 50.5t17.5 46.5l-60 60q-6 6 0 14l68 69q7 7 14 0l59 -60q47 25 100 25q54 0 99 -25l60 60q7 7 14 0l68 -69q7 -7 0 -14l-60 -60
q25 -45 25 -97q0 -27 -6.5 -51.5t-17.5 -45.5l60 -60q7 -7 0 -14zM278 203q43 0 71 29t28 73t-28 73t-71 29t-70.5 -29t-27.5 -73t27.5 -73t70.5 -29z" />
    <glyph glyph-name="yen" unicode="&#xa5;" horiz-adv-x="556" 
d="M218 0q-10 0 -10 10v115q0 6 -6 6h-116q-10 0 -10 10v62q0 10 10 10h116q6 0 6 6v34q0 6 -6 6h-116q-10 0 -10 10v62q0 10 10 10h92v2l-148 327q-4 10 7 10h128q9 0 14 -10l100 -258h3l98 258q3 10 14 10h125q11 0 7 -10l-148 -327v-2h92q10 0 10 -10v-62q0 -10 -10 -10
h-116q-6 0 -6 -6v-34q0 -6 6 -6h116q10 0 10 -10v-62q0 -10 -10 -10h-116q-6 0 -6 -6v-115q0 -10 -10 -10h-120z" />
    <glyph glyph-name="brokenbar" unicode="&#xa6;" horiz-adv-x="335" 
d="M118 388q-10 0 -10 10v332q0 10 10 10h99q10 0 10 -10v-332q0 -10 -10 -10h-99zM118 -84q-10 0 -10 10v336q0 10 10 10h99q10 0 10 -10v-336q0 -10 -10 -10h-99z" />
    <glyph glyph-name="section" unicode="&#xa7;" horiz-adv-x="558" 
d="M276 -191q-45 0 -79 11t-57 30.5t-36 45.5t-16 55q-2 9 6 11l104 18q8 2 10 -7q3 -25 18 -41.5t47 -16.5t48.5 15.5t16.5 41.5q0 32 -23 52t-86 36q-156 40 -156 191q0 52 24 91.5t64 61.5v1q-35 23 -49.5 53t-14.5 72q0 33 13 62t37.5 51t58.5 35t76 13q45 0 79 -12
t57 -32.5t35 -46.5t14 -53q1 -9 -7 -10l-102 -18q-10 -2 -10 8q-4 25 -19 41.5t-44 16.5t-45 -15t-16 -41q0 -32 23.5 -51t81.5 -34q156 -42 156 -191q0 -53 -26 -93.5t-62 -59.5v-1q37 -23 52 -53.5t15 -78.5q0 -33 -13 -62t-37.5 -50t-59.5 -33.5t-78 -12.5zM279 168
q36 0 57.5 22t21.5 62t-21.5 62t-57.5 22t-57.5 -22t-21.5 -62t21.5 -62t57.5 -22z" />
    <glyph glyph-name="dieresis" unicode="&#xa8;" horiz-adv-x="454" 
d="M281 561q-10 0 -10 10v99q0 10 10 10h93q10 0 10 -10v-99q0 -10 -10 -10h-93zM81 561q-10 0 -10 10v99q0 10 10 10h92q10 0 10 -10v-99q0 -10 -10 -10h-92z" />
    <glyph glyph-name="copyright" unicode="&#xa9;" horiz-adv-x="811" 
d="M405 -11q-75 0 -139 26.5t-111 74t-74 111.5t-27 139t27 139t74 111t111 74t139 27t139.5 -27t111.5 -74t74 -111t27 -139t-27 -139t-74 -111.5t-111.5 -74t-139.5 -26.5zM405 69q58 0 107 20.5t85 56.5t56 85.5t20 108.5q0 58 -20 108t-56 86t-85 56.5t-107 20.5
q-57 0 -106 -20.5t-85 -56.5t-56 -86t-20 -108q0 -59 20 -108.5t56 -85.5t85 -56.5t106 -20.5zM415 144q-62 0 -106 27.5t-62 82.5q-5 14 -7.5 33.5t-2.5 52.5t2.5 52.5t7.5 34.5q18 54 62 82t106 28q48 0 85.5 -19.5t57.5 -49.5q6 -8 -3 -14l-65 -42q-3 -3 -7 -2t-6 4
q-13 17 -26.5 24.5t-33.5 7.5q-23 0 -40 -11.5t-24 -33.5q-3 -8 -4.5 -20t-1.5 -41q0 -28 1.5 -40.5t4.5 -20.5q7 -21 24 -32.5t40 -11.5q20 0 33.5 7.5t26.5 23.5q5 9 13 3l65 -43q9 -5 3 -13q-20 -31 -57.5 -50t-85.5 -19z" />
    <glyph glyph-name="ordfeminine" unicode="&#xaa;" horiz-adv-x="356" 
d="M229 392q-10 0 -10 10v13h-1q-12 -13 -31.5 -20.5t-50.5 -7.5q-20 0 -38.5 5t-32.5 15.5t-22.5 27t-8.5 39.5q0 48 33.5 72t95.5 24h49q6 0 6 6v6q0 14 -12.5 21t-45.5 7q-20 0 -37.5 -5t-28.5 -11q-9 -5 -14 3l-30 51q-5 9 4 14q44 26 118 26q79 0 111.5 -25t32.5 -80
v-181q0 -10 -10 -10h-77zM165 458q53 0 53 35v8q0 6 -6 6h-42q-40 0 -40 -25q0 -24 35 -24z" />
    <glyph glyph-name="guillemotleft" unicode="&#xab;" horiz-adv-x="563" 
d="M272 257q-7 7 0 14l220 219q3 3 6.5 2t3.5 -6v-117q0 -6 -2 -10t-8 -10l-82 -81q-4 -4 0 -8l82 -81q6 -6 8 -10t2 -10v-117q0 -5 -3.5 -6t-6.5 2zM28 257q-7 7 0 14l220 219q3 3 6.5 2t3.5 -6v-117q0 -6 -2 -10t-8 -10l-82 -81q-4 -4 0 -8l82 -81q10 -10 10 -20v-117
q0 -5 -3.5 -6t-6.5 2z" />
    <glyph glyph-name="logicalnot" unicode="&#xac;" horiz-adv-x="556" 
d="M393 84q-10 0 -10 10v117q0 6 -6 6h-316q-10 0 -10 10v98q0 10 10 10h434q10 0 10 -10v-231q0 -10 -10 -10h-102z" />
    <glyph glyph-name="uni00AD" unicode="&#xad;" horiz-adv-x="392" 
d="M52 204q-10 0 -10 10v102q0 10 10 10h288q10 0 10 -10v-102q0 -10 -10 -10h-288z" />
    <glyph glyph-name="registered" unicode="&#xae;" horiz-adv-x="440" 
d="M220 301q-41 0 -76 14.5t-61 40.5t-40.5 61t-14.5 76q0 40 14.5 75t40.5 61t61 40.5t76 14.5t76 -14.5t61 -40.5t40.5 -61t14.5 -75q0 -41 -14.5 -76t-40.5 -61t-61 -40.5t-76 -14.5zM220 341q32 0 59.5 11t47.5 31.5t31 48.5t11 61t-11 60.5t-31 48t-47.5 31.5t-59.5 11
t-59.5 -11t-47.5 -31.5t-31 -48t-11 -60.5t11 -61t31 -48.5t47.5 -31.5t59.5 -11zM145 388q-7 0 -7 7v198q0 7 7 7h88q38 0 59 -18t21 -50q0 -43 -39 -60l40 -77q3 -7 -5 -7h-45q-7 0 -10 7l-34 70h-22q-4 0 -4 -5v-65q0 -7 -7 -7h-42zM230 510q28 0 28 22t-28 22h-32
q-4 0 -4 -4v-36q0 -4 4 -4h32z" />
    <glyph glyph-name="macron" unicode="&#xaf;" horiz-adv-x="454" 
d="M85 575q-10 0 -10 10v75q0 10 10 10h283q10 0 10 -10v-75q0 -10 -10 -10h-283z" />
    <glyph glyph-name="degree" unicode="&#xb0;" horiz-adv-x="438" 
d="M219 387q-33 0 -61 11.5t-48.5 32t-32 48.5t-11.5 61t11.5 60.5t32 48t48.5 32t61 11.5t61 -11.5t48.5 -32t32 -48t11.5 -60.5t-11.5 -61t-32 -48.5t-48.5 -32t-61 -11.5zM219 467q31 0 50 20.5t19 52.5t-19 52t-50 20t-50 -20t-19 -52t19 -52.5t50 -20.5z" />
    <glyph glyph-name="plusminus" unicode="&#xb1;" horiz-adv-x="556" 
d="M227 170q-10 0 -10 10v151q0 6 -6 6h-150q-10 0 -10 10v98q0 10 10 10h150q6 0 6 6v151q0 10 10 10h102q10 0 10 -10v-151q0 -6 6 -6h150q10 0 10 -10v-98q0 -10 -10 -10h-150q-6 0 -6 -6v-151q0 -10 -10 -10h-102zM61 0q-10 0 -10 10v98q0 10 10 10h434q10 0 10 -10v-98
q0 -10 -10 -10h-434z" />
    <glyph glyph-name="uni00B2" unicode="&#xb2;" horiz-adv-x="358" 
d="M48 430q-10 0 -10 10v66q0 10 8 17l144 147q11 11 18 23.5t7 26.5q0 17 -9.5 27t-27.5 10q-35 0 -41 -38q-2 -11 -11 -9l-79 13q-10 2 -8 11q1 19 11 38.5t27.5 35.5t43.5 26t61 10q60 0 98.5 -33.5t38.5 -89.5q0 -32 -12.5 -56t-36.5 -47l-96 -98v-1h135q10 0 10 -10
v-69q0 -10 -10 -10h-261z" />
    <glyph glyph-name="uni00B3" unicode="&#xb3;" horiz-adv-x="358" 
d="M181 422q-57 0 -97 24t-50 73q-2 11 7 12l77 15q9 1 13 -7q6 -13 17.5 -21.5t28.5 -8.5q20 0 32 11.5t12 30.5q0 43 -50 43h-17q-10 0 -10 10v66q0 10 10 10h14q20 0 32 9.5t12 28.5q0 39 -39 39q-16 0 -25.5 -7t-14.5 -18q-4 -9 -13 -7l-75 14q-9 1 -7 11q9 40 44 67
t95 27q67 0 103 -32.5t36 -83.5q0 -22 -9.5 -43.5t-32.5 -38.5v-1q18 -8 34.5 -32t16.5 -62q0 -59 -39 -94t-105 -35z" />
    <glyph glyph-name="acute" unicode="&#xb4;" horiz-adv-x="454" 
d="M126 551q-11 0 -6 10l77 130q6 10 18 10h115q5 0 6.5 -3t-1.5 -7l-99 -130q-8 -10 -19 -10h-91z" />
    <glyph glyph-name="paragraph" unicode="&#xb6;" horiz-adv-x="657" 
d="M473 -180q-10 0 -10 10v740q0 6 -6 6h-69q-6 0 -6 -6v-740q0 -10 -10 -10h-96q-10 0 -10 10v408q-45 3 -83 20.5t-65 47t-42 68.5t-15 85q0 47 16 87.5t46 70t73.5 46.5t99.5 17h273q10 0 10 -10v-840q0 -10 -10 -10h-96z" />
    <glyph glyph-name="periodcentered" unicode="&#xb7;" horiz-adv-x="259" 
d="M70 195q-10 0 -10 10v119q0 10 10 10h119q10 0 10 -10v-119q0 -10 -10 -10h-119z" />
    <glyph glyph-name="cedilla" unicode="&#xb8;" horiz-adv-x="454" 
d="M152 -160q-10 0 -7 10l61 150q4 10 14 10h84q10 0 7 -10l-46 -150q-3 -10 -16 -10h-97z" />
    <glyph glyph-name="uni00B9" unicode="&#xb9;" horiz-adv-x="358" 
d="M161 430q-10 0 -10 10v282h-2l-64 -40q-4 -2 -7 0t-3 7v84q0 10 9 15l62 41q10 7 17 7h84q10 0 10 -10v-386q0 -10 -10 -10h-86z" />
    <glyph glyph-name="ordmasculine" unicode="&#xba;" horiz-adv-x="372" 
d="M186 384q-113 0 -142 88q-5 13 -7 28t-2 36t2 36t7 28q29 88 142 88t142 -88q5 -13 7 -28t2 -36t-2 -36t-7 -28q-29 -88 -142 -88zM186 468q32 0 42 28q5 13 5 40t-5 40q-10 28 -42 28t-42 -28q-5 -13 -5 -40t5 -40q10 -28 42 -28z" />
    <glyph glyph-name="guillemotright" unicode="&#xbb;" horiz-adv-x="563" 
d="M315 38q-3 -3 -6.5 -2t-3.5 6v117q0 10 10 20l82 81q4 4 0 8l-82 81q-6 6 -8 10t-2 10v117q0 5 3.5 6t6.5 -2l220 -219q7 -7 0 -14zM71 38q-3 -3 -6.5 -2t-3.5 6v117q0 10 10 20l82 81q4 4 0 8l-82 81q-6 6 -8 10t-2 10v117q0 5 3.5 6t6.5 -2l221 -219q7 -7 0 -14z" />
    <glyph glyph-name="onequarter" unicode="&#xbc;" horiz-adv-x="873" 
d="M173 274q-10 0 -10 10v282h-2l-64 -40q-4 -2 -7 0t-3 7v84q0 10 9 15l62 41q10 7 17 7h84q10 0 10 -10v-386q0 -10 -10 -10h-86zM666 0q-10 0 -10 10v40q0 6 -6 6h-164q-10 0 -10 10v69q0 5 1.5 8.5t3.5 8.5l115 244q5 10 14 10h91q11 0 6 -10l-117 -251v-1h60q6 0 6 6
v69q0 10 10 10h79q10 0 10 -10v-69q0 -6 6 -6h15q10 0 10 -10v-68q0 -10 -10 -10h-15q-6 0 -6 -6v-40q0 -10 -10 -10h-79zM179 -11q-5 0 -6 3t1 7l395 682q6 10 16 10h84q5 0 6 -3t-1 -7l-395 -682q-6 -10 -16 -10h-84z" />
    <glyph glyph-name="onehalf" unicode="&#xbd;" horiz-adv-x="907" 
d="M173 274q-10 0 -10 10v282h-2l-64 -40q-4 -2 -7 0t-3 7v84q0 10 9 15l62 41q10 7 17 7h84q10 0 10 -10v-386q0 -10 -10 -10h-86zM548 0q-10 0 -10 10v66q0 10 8 17l144 147q11 11 18 23.5t7 26.5q0 17 -9.5 27t-27.5 10q-35 0 -41 -38q-2 -11 -11 -9l-79 13q-10 2 -8 11
q1 19 11 38.5t27.5 35.5t43.5 26t61 10q60 0 98.5 -33.5t38.5 -89.5q0 -32 -12.5 -56t-36.5 -47l-96 -98v-1h135q10 0 10 -10v-69q0 -10 -10 -10h-261zM179 -11q-5 0 -6 3t1 7l395 682q6 10 16 10h84q5 0 6 -3t-1 -7l-395 -682q-6 -10 -16 -10h-84z" />
    <glyph glyph-name="threequarters" unicode="&#xbe;" horiz-adv-x="941" 
d="M733 0q-10 0 -10 10v40q0 6 -6 6h-164q-10 0 -10 10v69q0 5 1.5 8.5t3.5 8.5l115 244q5 10 14 10h91q11 0 6 -10l-117 -251v-1h60q6 0 6 6v69q0 10 10 10h79q10 0 10 -10v-69q0 -6 6 -6h15q10 0 10 -10v-68q0 -10 -10 -10h-15q-6 0 -6 -6v-40q0 -10 -10 -10h-79zM248 -11
q-5 0 -6 3t1 7l395 682q6 10 16 10h84q5 0 6 -3t-1 -7l-395 -682q-6 -10 -16 -10h-84zM235 266q-57 0 -97 24t-50 73q-2 11 7 12l77 15q9 1 13 -7q6 -13 17.5 -21.5t28.5 -8.5q20 0 32 11.5t12 30.5q0 43 -50 43h-17q-10 0 -10 10v66q0 10 10 10h14q20 0 32 9.5t12 28.5
q0 39 -39 39q-16 0 -25.5 -7t-14.5 -18q-4 -9 -13 -7l-75 14q-9 1 -7 11q9 40 44 67t95 27q67 0 103 -32.5t36 -83.5q0 -22 -9.5 -43.5t-32.5 -38.5v-1q18 -8 34.5 -32t16.5 -62q0 -59 -39 -94t-105 -35z" />
    <glyph glyph-name="questiondown" unicode="&#xbf;" horiz-adv-x="473" 
d="M305 285q10 0 10 -10v-42q0 -29 -7 -47t-22 -37l-70 -91q-21 -25 -29.5 -43t-8.5 -37q0 -29 17.5 -47.5t48.5 -18.5t49.5 18.5t25.5 51.5q3 10 13 9l108 -16q10 -1 8 -12q-11 -78 -65.5 -124t-142.5 -46q-45 0 -82 14t-63.5 38t-41 57t-14.5 71t13.5 68.5t39.5 61.5
l67 88q12 14 16 26.5t4 33.5v24q0 10 10 10h116zM317 360q0 -10 -10 -10h-120q-10 0 -10 10v114q0 10 10 10h120q10 0 10 -10v-114z" />
    <glyph glyph-name="Agrave" unicode="&#xc0;" horiz-adv-x="644" 
d="M248 670q3 10 13 10h126q10 0 13 -10l230 -660q3 -10 -7 -10h-130q-10 0 -13 10l-39 119h-238l-38 -119q-3 -10 -13 -10h-131q-10 0 -7 10zM401 254l-77 238h-3l-77 -238h157zM277 754q-10 0 -19 9l-123 116q-4 4 -2 7t7 3h120q11 0 19 -10l95 -115q3 -4 2 -7t-6 -3h-93z
" />
    <glyph glyph-name="Aacute" unicode="&#xc1;" horiz-adv-x="644" 
d="M248 670q3 10 13 10h126q10 0 13 -10l230 -660q3 -10 -7 -10h-130q-10 0 -13 10l-39 119h-238l-38 -119q-3 -10 -13 -10h-131q-10 0 -7 10zM401 254l-77 238h-3l-77 -238h157zM276 754q-5 0 -6 3t2 7l95 115q8 10 19 10h120q5 0 7 -3t-2 -7l-123 -116q-9 -9 -19 -9h-93z
" />
    <glyph glyph-name="Acircumflex" unicode="&#xc2;" horiz-adv-x="644" 
d="M248 670q3 10 13 10h126q10 0 13 -10l230 -660q3 -10 -7 -10h-130q-10 0 -13 10l-39 119h-238l-38 -119q-3 -10 -13 -10h-131q-10 0 -7 10zM401 254l-77 238h-3l-77 -238h157zM397 747q-8 0 -12 2t-10 8l-53 54h-2l-52 -54q-6 -6 -10 -8t-12 -2h-80q-5 0 -6 3t2 7
l103 131q7 10 19 10h75q11 0 18 -10l104 -131q3 -4 2 -7t-6 -3h-80z" />
    <glyph glyph-name="Atilde" unicode="&#xc3;" horiz-adv-x="644" 
d="M248 670q3 10 13 10h126q10 0 13 -10l230 -660q3 -10 -7 -10h-130q-10 0 -13 10l-39 119h-238l-38 -119q-3 -10 -13 -10h-131q-10 0 -7 10zM401 254l-77 238h-3l-77 -238h157zM385 748q-23 0 -40 6t-35 15q-14 8 -27.5 13t-30.5 5q-22 0 -38 -9t-33 -22q-4 -3 -6.5 -2
t-2.5 4v72q0 12 8 21q16 16 35 25.5t42 9.5t40 -6t35 -15q15 -8 28 -13t30 -5q22 0 38 9t33 22q4 3 7 2t3 -4v-72q0 -12 -9 -21q-15 -16 -34.5 -25.5t-42.5 -9.5z" />
    <glyph glyph-name="Adieresis" unicode="&#xc4;" horiz-adv-x="644" 
d="M248 670q3 10 13 10h126q10 0 13 -10l230 -660q3 -10 -7 -10h-130q-10 0 -13 10l-39 119h-238l-38 -119q-3 -10 -13 -10h-131q-10 0 -7 10zM401 254l-77 238h-3l-77 -238h157zM378 760q-10 0 -10 10v98q0 10 10 10h90q10 0 10 -10v-98q0 -10 -10 -10h-90zM175 760
q-10 0 -10 10v98q0 10 10 10h90q10 0 10 -10v-98q0 -10 -10 -10h-90z" />
    <glyph glyph-name="Aring" unicode="&#xc5;" horiz-adv-x="644" 
d="M248 670q3 10 13 10h126q10 0 13 -10l230 -660q3 -10 -7 -10h-130q-10 0 -13 10l-39 119h-238l-38 -119q-3 -10 -13 -10h-131q-10 0 -7 10zM401 254l-77 238h-3l-77 -238h157zM322 712q-46 0 -76.5 30.5t-30.5 76.5t30.5 76t76.5 30t76.5 -30t30.5 -76t-30.5 -76.5
t-76.5 -30.5zM322 771q20 0 33 13.5t13 34.5q0 20 -13 34t-33 14t-33.5 -14t-13.5 -34q0 -21 13.5 -34.5t33.5 -13.5z" />
    <glyph glyph-name="AE" unicode="&#xc6;" horiz-adv-x="929" 
d="M439 0q-10 0 -10 10v113q0 6 -6 6h-192l-55 -119q-4 -10 -14 -10h-141q-11 0 -6 10l317 660q5 10 14 10h529q10 0 10 -10v-107q0 -10 -10 -10h-293q-6 0 -6 -6v-135q0 -6 6 -6h244q10 0 10 -10v-106q0 -10 -10 -10h-244q-6 0 -6 -6v-141q0 -6 6 -6h293q10 0 10 -10v-107
q0 -10 -10 -10h-436zM288 254h135q6 0 6 6v293h-3z" />
    <glyph glyph-name="Ccedilla" unicode="&#xc7;" horiz-adv-x="575" 
d="M201 -160q-10 0 -7 10l58 144q-71 13 -117 51.5t-69 110.5q-6 16 -9.5 32.5t-5.5 37t-3 48t-1 66.5t1 66.5t3 48t5.5 36.5t9.5 33q27 84 89.5 125.5t152.5 41.5q87 0 147.5 -39.5t89.5 -111.5q5 -9 -5 -12l-109 -49q-9 -5 -14 5q-14 33 -39.5 55t-68.5 22
q-40 0 -65.5 -20t-36.5 -55q-3 -9 -5 -19.5t-3.5 -26.5t-2 -40t-0.5 -60t0.5 -60t2 -40t3.5 -26.5t5 -19.5q11 -35 36.5 -55t65.5 -20q43 0 68.5 22t39.5 55q5 10 14 5l109 -49q10 -3 5 -12q-24 -60 -71 -98t-116 -49l-44 -143q-3 -10 -16 -10h-97z" />
    <glyph glyph-name="Egrave" unicode="&#xc8;" horiz-adv-x="565" 
d="M267 754q-10 0 -19 9l-123 116q-4 4 -2 7t7 3h120q11 0 19 -10l95 -115q3 -4 2 -7t-6 -3h-93zM65 670q0 10 10 10h436q10 0 10 -10v-107q0 -10 -10 -10h-293q-6 0 -6 -6v-135q0 -6 6 -6h244q10 0 10 -10v-106q0 -10 -10 -10h-244q-6 0 -6 -6v-141q0 -6 6 -6h293
q10 0 10 -10v-107q0 -10 -10 -10h-436q-10 0 -10 10v660z" />
    <glyph glyph-name="Eacute" unicode="&#xc9;" horiz-adv-x="565" 
d="M214 754q-5 0 -6 3t2 7l95 115q8 10 19 10h120q5 0 7 -3t-2 -7l-123 -116q-9 -9 -19 -9h-93zM65 670q0 10 10 10h436q10 0 10 -10v-107q0 -10 -10 -10h-293q-6 0 -6 -6v-135q0 -6 6 -6h244q10 0 10 -10v-106q0 -10 -10 -10h-244q-6 0 -6 -6v-141q0 -6 6 -6h293
q10 0 10 -10v-107q0 -10 -10 -10h-436q-10 0 -10 10v660z" />
    <glyph glyph-name="Ecircumflex" unicode="&#xca;" horiz-adv-x="565" 
d="M65 670q0 10 10 10h436q10 0 10 -10v-107q0 -10 -10 -10h-293q-6 0 -6 -6v-135q0 -6 6 -6h244q10 0 10 -10v-106q0 -10 -10 -10h-244q-6 0 -6 -6v-141q0 -6 6 -6h293q10 0 10 -10v-107q0 -10 -10 -10h-436q-10 0 -10 10v660zM369 747q-8 0 -12 2t-10 8l-53 54h-2l-52 -54
q-6 -6 -10 -8t-12 -2h-80q-5 0 -6 3t2 7l103 131q7 10 19 10h75q11 0 18 -10l104 -131q3 -4 2 -7t-6 -3h-80z" />
    <glyph glyph-name="Edieresis" unicode="&#xcb;" horiz-adv-x="565" 
d="M349 760q-10 0 -10 10v98q0 10 10 10h90q10 0 10 -10v-98q0 -10 -10 -10h-90zM146 760q-10 0 -10 10v98q0 10 10 10h90q10 0 10 -10v-98q0 -10 -10 -10h-90zM65 670q0 10 10 10h436q10 0 10 -10v-107q0 -10 -10 -10h-293q-6 0 -6 -6v-135q0 -6 6 -6h244q10 0 10 -10v-106
q0 -10 -10 -10h-244q-6 0 -6 -6v-141q0 -6 6 -6h293q10 0 10 -10v-107q0 -10 -10 -10h-436q-10 0 -10 10v660z" />
    <glyph glyph-name="Igrave" unicode="&#xcc;" horiz-adv-x="277" 
d="M65 670q0 10 10 10h127q10 0 10 -10v-660q0 -10 -10 -10h-127q-10 0 -10 10v660zM98 754q-10 0 -19 9l-123 116q-4 4 -2 7t7 3h120q11 0 19 -10l95 -115q3 -4 2 -7t-6 -3h-93z" />
    <glyph glyph-name="Iacute" unicode="&#xcd;" horiz-adv-x="277" 
d="M65 670q0 10 10 10h127q10 0 10 -10v-660q0 -10 -10 -10h-127q-10 0 -10 10v660zM90 754q-5 0 -6 3t2 7l95 115q8 10 19 10h120q5 0 7 -3t-2 -7l-123 -116q-9 -9 -19 -9h-93z" />
    <glyph glyph-name="Icircumflex" unicode="&#xce;" horiz-adv-x="277" 
d="M65 670q0 10 10 10h127q10 0 10 -10v-660q0 -10 -10 -10h-127q-10 0 -10 10v660zM214 747q-8 0 -12 2t-10 8l-53 54h-2l-52 -54q-6 -6 -10 -8t-12 -2h-80q-5 0 -6 3t2 7l103 131q7 10 19 10h75q11 0 18 -10l104 -131q3 -4 2 -7t-6 -3h-80z" />
    <glyph glyph-name="Idieresis" unicode="&#xcf;" horiz-adv-x="277" 
d="M65 670q0 10 10 10h127q10 0 10 -10v-660q0 -10 -10 -10h-127q-10 0 -10 10v660zM195 760q-10 0 -10 10v98q0 10 10 10h90q10 0 10 -10v-98q0 -10 -10 -10h-90zM-8 760q-10 0 -10 10v98q0 10 10 10h90q10 0 10 -10v-98q0 -10 -10 -10h-90z" />
    <glyph glyph-name="Eth" unicode="&#xd0;" horiz-adv-x="628" 
d="M75 0q-10 0 -10 10v273q0 6 -6 6h-25q-10 0 -10 10v88q0 10 10 10h25q6 0 6 6v267q0 10 10 10h253q90 0 150 -38t85 -115q4 -14 7.5 -29.5t6 -36.5t3.5 -50t1 -71t-1 -71t-3.5 -50t-6 -36.5t-7.5 -29.5q-25 -77 -85 -115t-150 -38h-253zM295 131q51 0 82 16.5t44 58.5
q3 7 5 16.5t3.5 24.5t2 37.5t0.5 55.5t-0.5 55t-2 37t-3.5 24.5t-5 17.5q-13 42 -44 58.5t-82 16.5h-77q-6 0 -6 -6v-140q0 -6 6 -6h83q10 0 10 -10v-88q0 -10 -10 -10h-83q-6 0 -6 -6v-146q0 -6 6 -6h77z" />
    <glyph glyph-name="Ntilde" unicode="&#xd1;" horiz-adv-x="655" 
d="M391 748q-23 0 -40 6t-35 15q-14 8 -27.5 13t-30.5 5q-22 0 -38 -9t-33 -22q-4 -3 -6.5 -2t-2.5 4v72q0 12 8 21q16 16 35 25.5t42 9.5t40 -6t35 -15q15 -8 28 -13t30 -5q22 0 38 9t33 22q4 3 7 2t3 -4v-72q0 -12 -9 -21q-15 -16 -34.5 -25.5t-42.5 -9.5zM65 670
q0 10 10 10h120q11 0 17 -10l240 -428h5v428q0 10 10 10h113q10 0 10 -10v-660q0 -10 -10 -10h-119q-11 0 -17 10l-241 427h-5v-427q0 -10 -10 -10h-113q-10 0 -10 10v660z" />
    <glyph glyph-name="Ograve" unicode="&#xd2;" horiz-adv-x="628" 
d="M283 754q-10 0 -19 9l-123 116q-4 4 -2 7t7 3h120q11 0 19 -10l95 -115q3 -4 2 -7t-6 -3h-93zM314 -11q-89 0 -155.5 41t-92.5 124q-6 18 -9.5 35t-5.5 38t-3 48t-1 65t1 65t3 48t5.5 38t9.5 35q26 82 92.5 123.5t155.5 41.5t155.5 -41.5t92.5 -123.5q6 -18 9.5 -35
t5.5 -38t3 -48t1 -65t-1 -65t-3 -48t-5.5 -38t-9.5 -35q-26 -83 -92.5 -124t-155.5 -41zM314 119q42 0 69 20t38 55q3 9 5 20.5t3.5 28t2 40.5t0.5 57t-0.5 57t-2 40.5t-3.5 28t-5 20.5q-11 35 -38 55t-69 20t-69 -20t-38 -55q-3 -9 -5 -20.5t-3.5 -28t-2 -40.5t-0.5 -57
t0.5 -57t2 -40.5t3.5 -28t5 -20.5q11 -35 38 -55t69 -20z" />
    <glyph glyph-name="Oacute" unicode="&#xd3;" horiz-adv-x="628" 
d="M251 754q-5 0 -6 3t2 7l95 115q8 10 19 10h120q5 0 7 -3t-2 -7l-123 -116q-9 -9 -19 -9h-93zM314 -11q-89 0 -155.5 41t-92.5 124q-6 18 -9.5 35t-5.5 38t-3 48t-1 65t1 65t3 48t5.5 38t9.5 35q26 82 92.5 123.5t155.5 41.5t155.5 -41.5t92.5 -123.5q6 -18 9.5 -35
t5.5 -38t3 -48t1 -65t-1 -65t-3 -48t-5.5 -38t-9.5 -35q-26 -83 -92.5 -124t-155.5 -41zM314 119q42 0 69 20t38 55q3 9 5 20.5t3.5 28t2 40.5t0.5 57t-0.5 57t-2 40.5t-3.5 28t-5 20.5q-11 35 -38 55t-69 20t-69 -20t-38 -55q-3 -9 -5 -20.5t-3.5 -28t-2 -40.5t-0.5 -57
t0.5 -57t2 -40.5t3.5 -28t5 -20.5q11 -35 38 -55t69 -20z" />
    <glyph glyph-name="Ocircumflex" unicode="&#xd4;" horiz-adv-x="628" 
d="M314 -11q-89 0 -155.5 41t-92.5 124q-6 18 -9.5 35t-5.5 38t-3 48t-1 65t1 65t3 48t5.5 38t9.5 35q26 82 92.5 123.5t155.5 41.5t155.5 -41.5t92.5 -123.5q6 -18 9.5 -35t5.5 -38t3 -48t1 -65t-1 -65t-3 -48t-5.5 -38t-9.5 -35q-26 -83 -92.5 -124t-155.5 -41zM314 119
q42 0 69 20t38 55q3 9 5 20.5t3.5 28t2 40.5t0.5 57t-0.5 57t-2 40.5t-3.5 28t-5 20.5q-11 35 -38 55t-69 20t-69 -20t-38 -55q-3 -9 -5 -20.5t-3.5 -28t-2 -40.5t-0.5 -57t0.5 -57t2 -40.5t3.5 -28t5 -20.5q11 -35 38 -55t69 -20zM389 747q-8 0 -12 2t-10 8l-53 54h-2
l-52 -54q-6 -6 -10 -8t-12 -2h-80q-5 0 -6 3t2 7l103 131q7 10 19 10h75q11 0 18 -10l104 -131q3 -4 2 -7t-6 -3h-80z" />
    <glyph glyph-name="Otilde" unicode="&#xd5;" horiz-adv-x="628" 
d="M377 748q-23 0 -40 6t-35 15q-14 8 -27.5 13t-30.5 5q-22 0 -38 -9t-33 -22q-4 -3 -6.5 -2t-2.5 4v72q0 12 8 21q16 16 35 25.5t42 9.5t40 -6t35 -15q15 -8 28 -13t30 -5q22 0 38 9t33 22q4 3 7 2t3 -4v-72q0 -12 -9 -21q-15 -16 -34.5 -25.5t-42.5 -9.5zM314 -11
q-89 0 -155.5 41t-92.5 124q-6 18 -9.5 35t-5.5 38t-3 48t-1 65t1 65t3 48t5.5 38t9.5 35q26 82 92.5 123.5t155.5 41.5t155.5 -41.5t92.5 -123.5q6 -18 9.5 -35t5.5 -38t3 -48t1 -65t-1 -65t-3 -48t-5.5 -38t-9.5 -35q-26 -83 -92.5 -124t-155.5 -41zM314 119q42 0 69 20
t38 55q3 9 5 20.5t3.5 28t2 40.5t0.5 57t-0.5 57t-2 40.5t-3.5 28t-5 20.5q-11 35 -38 55t-69 20t-69 -20t-38 -55q-3 -9 -5 -20.5t-3.5 -28t-2 -40.5t-0.5 -57t0.5 -57t2 -40.5t3.5 -28t5 -20.5q11 -35 38 -55t69 -20z" />
    <glyph glyph-name="Odieresis" unicode="&#xd6;" horiz-adv-x="628" 
d="M370 760q-10 0 -10 10v98q0 10 10 10h90q10 0 10 -10v-98q0 -10 -10 -10h-90zM167 760q-10 0 -10 10v98q0 10 10 10h90q10 0 10 -10v-98q0 -10 -10 -10h-90zM314 -11q-89 0 -155.5 41t-92.5 124q-6 18 -9.5 35t-5.5 38t-3 48t-1 65t1 65t3 48t5.5 38t9.5 35
q26 82 92.5 123.5t155.5 41.5t155.5 -41.5t92.5 -123.5q6 -18 9.5 -35t5.5 -38t3 -48t1 -65t-1 -65t-3 -48t-5.5 -38t-9.5 -35q-26 -83 -92.5 -124t-155.5 -41zM314 119q42 0 69 20t38 55q3 9 5 20.5t3.5 28t2 40.5t0.5 57t-0.5 57t-2 40.5t-3.5 28t-5 20.5q-11 35 -38 55
t-69 20t-69 -20t-38 -55q-3 -9 -5 -20.5t-3.5 -28t-2 -40.5t-0.5 -57t0.5 -57t2 -40.5t3.5 -28t5 -20.5q11 -35 38 -55t69 -20z" />
    <glyph glyph-name="multiply" unicode="&#xd7;" horiz-adv-x="556" 
d="M413 74q-7 -9 -14 0l-117 116q-4 4 -8 0l-118 -116q-7 -9 -14 0l-67 67q-7 7 0 14l117 117q4 4 0 8l-117 117q-7 7 0 14l68 68q7 7 14 0l117 -117q4 -5 9 0l116 117q7 7 14 0l67 -67q6 -8 0 -14l-116 -117q-5 -5 0 -9l116 -117q7 -7 0 -14z" />
    <glyph glyph-name="Oslash" unicode="&#xd8;" horiz-adv-x="628" 
d="M50 -30q-5 0 -6 3t1 7l61 97q-13 17 -23 35.5t-17 41.5q-6 18 -9.5 35t-5.5 38t-3 48t-1 65t1 65t3 48t5.5 38t9.5 35q26 82 92.5 123.5t155.5 41.5q87 0 149 -38l30 48q5 9 15 9h70q5 0 6 -3t-1 -7l-61 -98q24 -30 40 -76q6 -18 9.5 -35t5.5 -38t3 -48t1 -65t-1 -65
t-3 -48t-5.5 -38t-9.5 -35q-26 -83 -92.5 -124t-155.5 -41q-88 0 -149 37l-30 -47q-5 -9 -15 -9h-70zM194 340q0 -48 1.5 -75t3.5 -44l189 317q-30 24 -74 24q-42 0 -69.5 -20.5t-39.5 -55.5q-3 -10 -5 -21t-3.5 -27.5t-2 -40t-0.5 -57.5zM314 118q42 0 69.5 20.5t39.5 55.5
q3 10 5 21t3.5 27.5t2 39.5t0.5 58q0 46 -1.5 73t-3.5 44l-189 -316q29 -23 74 -23z" />
    <glyph glyph-name="Ugrave" unicode="&#xd9;" horiz-adv-x="645" 
d="M290 754q-10 0 -19 9l-123 116q-4 4 -2 7t7 3h120q11 0 19 -10l95 -115q3 -4 2 -7t-6 -3h-93zM323 -11q-57 0 -105 17t-82.5 50t-54 82t-19.5 112v420q0 10 10 10h127q10 0 10 -10v-424q0 -61 31 -94t83 -33q51 0 82 33t31 94v424q0 10 10 10h127q10 0 10 -10v-420
q0 -63 -19.5 -112t-54 -82t-82 -50t-104.5 -17z" />
    <glyph glyph-name="Uacute" unicode="&#xda;" horiz-adv-x="645" 
d="M264 754q-5 0 -6 3t2 7l95 115q8 10 19 10h120q5 0 7 -3t-2 -7l-123 -116q-9 -9 -19 -9h-93zM323 -11q-57 0 -105 17t-82.5 50t-54 82t-19.5 112v420q0 10 10 10h127q10 0 10 -10v-424q0 -61 31 -94t83 -33q51 0 82 33t31 94v424q0 10 10 10h127q10 0 10 -10v-420
q0 -63 -19.5 -112t-54 -82t-82 -50t-104.5 -17z" />
    <glyph glyph-name="Ucircumflex" unicode="&#xdb;" horiz-adv-x="645" 
d="M323 -11q-57 0 -105 17t-82.5 50t-54 82t-19.5 112v420q0 10 10 10h127q10 0 10 -10v-424q0 -61 31 -94t83 -33q51 0 82 33t31 94v424q0 10 10 10h127q10 0 10 -10v-420q0 -63 -19.5 -112t-54 -82t-82 -50t-104.5 -17zM397 747q-8 0 -12 2t-10 8l-53 54h-2l-52 -54
q-6 -6 -10 -8t-12 -2h-80q-5 0 -6 3t2 7l103 131q7 10 19 10h75q11 0 18 -10l104 -131q3 -4 2 -7t-6 -3h-80z" />
    <glyph glyph-name="Udieresis" unicode="&#xdc;" horiz-adv-x="645" 
d="M379 760q-10 0 -10 10v98q0 10 10 10h90q10 0 10 -10v-98q0 -10 -10 -10h-90zM176 760q-10 0 -10 10v98q0 10 10 10h90q10 0 10 -10v-98q0 -10 -10 -10h-90zM323 -11q-57 0 -105 17t-82.5 50t-54 82t-19.5 112v420q0 10 10 10h127q10 0 10 -10v-424q0 -61 31 -94t83 -33
q51 0 82 33t31 94v424q0 10 10 10h127q10 0 10 -10v-420q0 -63 -19.5 -112t-54 -82t-82 -50t-104.5 -17z" />
    <glyph glyph-name="Yacute" unicode="&#xdd;" horiz-adv-x="568" 
d="M220 0q-10 0 -10 10v261l-201 399q-4 10 7 10h130q11 0 15 -10l123 -248h3l123 248q4 10 15 10h126q5 0 7 -3t0 -7l-201 -399v-261q0 -10 -10 -10h-127zM232 754q-5 0 -6 3t2 7l95 115q8 10 19 10h120q5 0 7 -3t-2 -7l-123 -116q-9 -9 -19 -9h-93z" />
    <glyph glyph-name="Thorn" unicode="&#xde;" horiz-adv-x="605" 
d="M75 0q-10 0 -10 10v660q0 10 10 10h127q10 0 10 -10v-92q0 -6 6 -6h121q55 0 99 -16t75 -45t47 -69t16 -89q0 -48 -16.5 -88.5t-47 -69t-74.5 -44.5t-99 -16h-121q-6 0 -6 -6v-119q0 -10 -10 -10h-127zM330 262q47 0 73 24.5t26 66.5t-26 67t-73 25h-112q-6 0 -6 -6v-171
q0 -6 6 -6h112z" />
    <glyph glyph-name="germandbls" unicode="&#xdf;" horiz-adv-x="562" 
d="M286 -4q-10 0 -10 10v95q0 10 10 10h25q26 0 41 8.5t23 30.5q1 3 2 8t1.5 13t0.5 21.5v33.5q0 39 -1 55t-4 25q-14 44 -73 44h-14q-10 0 -10 10v94q0 10 10 10h24q59 0 59 55q0 57 -79 57q-47 0 -67.5 -21t-20.5 -67v-478q0 -10 -10 -10h-120q-10 0 -10 10v475
q0 97 53 151.5t173 54.5q106 0 163 -43.5t57 -123.5q0 -73 -56 -112v-2q19 -11 32.5 -26.5t21.5 -40.5q3 -9 5 -19t3.5 -23.5t2.5 -32t1 -43.5q0 -29 -1 -49.5t-2.5 -35t-4 -25t-5.5 -20.5q-17 -54 -62.5 -76.5t-122.5 -22.5h-35z" />
    <glyph glyph-name="agrave" unicode="&#xe0;" horiz-adv-x="528" 
d="M347 0q-10 0 -10 10v32h-1q-19 -24 -51 -38.5t-82 -14.5q-32 0 -61.5 8.5t-51.5 26.5t-35 46t-13 67q0 80 55.5 118t145.5 38h86q6 0 6 6v18q0 34 -20.5 50t-78.5 16q-37 0 -64 -9t-44 -22q-8 -6 -13 2l-45 79q-5 9 3 14q31 22 75.5 35t104.5 13q59 0 100 -10.5t66.5 -32
t37 -54.5t11.5 -78v-310q0 -10 -10 -10h-111zM245 94q90 0 90 67v33q0 6 -6 6h-68q-86 0 -86 -55q0 -51 70 -51zM250 551q-12 0 -19 10l-99 130q-3 4 -1.5 7t6.5 3h116q12 0 18 -10l76 -130q5 -10 -5 -10h-92z" />
    <glyph glyph-name="aacute" unicode="&#xe1;" horiz-adv-x="528" 
d="M347 0q-10 0 -10 10v32h-1q-19 -24 -51 -38.5t-82 -14.5q-32 0 -61.5 8.5t-51.5 26.5t-35 46t-13 67q0 80 55.5 118t145.5 38h86q6 0 6 6v18q0 34 -20.5 50t-78.5 16q-37 0 -64 -9t-44 -22q-8 -6 -13 2l-45 79q-5 9 3 14q31 22 75.5 35t104.5 13q59 0 100 -10.5t66.5 -32
t37 -54.5t11.5 -78v-310q0 -10 -10 -10h-111zM245 94q90 0 90 67v33q0 6 -6 6h-68q-86 0 -86 -55q0 -51 70 -51zM207 551q-11 0 -6 10l77 130q6 10 18 10h115q5 0 6.5 -3t-1.5 -7l-99 -130q-8 -10 -19 -10h-91z" />
    <glyph glyph-name="acircumflex" unicode="&#xe2;" horiz-adv-x="528" 
d="M347 0q-10 0 -10 10v32h-1q-19 -24 -51 -38.5t-82 -14.5q-32 0 -61.5 8.5t-51.5 26.5t-35 46t-13 67q0 80 55.5 118t145.5 38h86q6 0 6 6v18q0 34 -20.5 50t-78.5 16q-37 0 -64 -9t-44 -22q-8 -6 -13 2l-45 79q-5 9 3 14q31 22 75.5 35t104.5 13q59 0 100 -10.5t66.5 -32
t37 -54.5t11.5 -78v-310q0 -10 -10 -10h-111zM245 94q90 0 90 67v33q0 6 -6 6h-68q-86 0 -86 -55q0 -51 70 -51zM338 550q-12 0 -22 10l-52 54h-2l-53 -54q-6 -6 -10 -8t-12 -2h-79q-5 0 -6.5 3t1.5 7l104 131q7 10 18 10h75q12 0 19 -10l103 -131q3 -4 2 -7t-6 -3h-80z" />
    <glyph glyph-name="atilde" unicode="&#xe3;" horiz-adv-x="528" 
d="M347 0q-10 0 -10 10v32h-1q-19 -24 -51 -38.5t-82 -14.5q-32 0 -61.5 8.5t-51.5 26.5t-35 46t-13 67q0 80 55.5 118t145.5 38h86q6 0 6 6v18q0 34 -20.5 50t-78.5 16q-37 0 -64 -9t-44 -22q-8 -6 -13 2l-45 79q-5 9 3 14q31 22 75.5 35t104.5 13q59 0 100 -10.5t66.5 -32
t37 -54.5t11.5 -78v-310q0 -10 -10 -10h-111zM245 94q90 0 90 67v33q0 6 -6 6h-68q-86 0 -86 -55q0 -51 70 -51zM327 552q-23 0 -40 6.5t-35 15.5q-14 8 -27.5 13t-30.5 5q-22 0 -38 -9t-33 -23q-9 -7 -9 3v72q0 11 8 20q16 16 35 26t42 10t40 -6.5t35 -15.5q15 -8 28 -13
t30 -5q22 0 38 9t33 23q4 3 7 2t3 -5v-72q0 -11 -9 -20q-15 -16 -34.5 -26t-42.5 -10z" />
    <glyph glyph-name="adieresis" unicode="&#xe4;" horiz-adv-x="528" 
d="M347 0q-10 0 -10 10v32h-1q-19 -24 -51 -38.5t-82 -14.5q-32 0 -61.5 8.5t-51.5 26.5t-35 46t-13 67q0 80 55.5 118t145.5 38h86q6 0 6 6v18q0 34 -20.5 50t-78.5 16q-37 0 -64 -9t-44 -22q-8 -6 -13 2l-45 79q-5 9 3 14q31 22 75.5 35t104.5 13q59 0 100 -10.5t66.5 -32
t37 -54.5t11.5 -78v-310q0 -10 -10 -10h-111zM245 94q90 0 90 67v33q0 6 -6 6h-68q-86 0 -86 -55q0 -51 70 -51zM317 561q-10 0 -10 10v99q0 10 10 10h93q10 0 10 -10v-99q0 -10 -10 -10h-93zM117 561q-10 0 -10 10v99q0 10 10 10h92q10 0 10 -10v-99q0 -10 -10 -10h-92z
" />
    <glyph glyph-name="aring" unicode="&#xe5;" horiz-adv-x="528" 
d="M347 0q-10 0 -10 10v32h-1q-19 -24 -51 -38.5t-82 -14.5q-32 0 -61.5 8.5t-51.5 26.5t-35 46t-13 67q0 80 55.5 118t145.5 38h86q6 0 6 6v18q0 34 -20.5 50t-78.5 16q-37 0 -64 -9t-44 -22q-8 -6 -13 2l-45 79q-5 9 3 14q31 22 75.5 35t104.5 13q59 0 100 -10.5t66.5 -32
t37 -54.5t11.5 -78v-310q0 -10 -10 -10h-111zM245 94q90 0 90 67v33q0 6 -6 6h-68q-86 0 -86 -55q0 -51 70 -51zM266 524q-46 0 -76.5 30t-30.5 76q0 47 30.5 77t76.5 30t76.5 -30t30.5 -77q0 -46 -30.5 -76t-76.5 -30zM266 582q20 0 33 14t13 34q0 21 -13 35t-33 14
t-33.5 -14t-13.5 -35q0 -20 13.5 -34t33.5 -14z" />
    <glyph glyph-name="ae" unicode="&#xe6;" horiz-adv-x="816" 
d="M560 -11q-55 0 -97.5 19.5t-68.5 51.5h-1q-25 -38 -70.5 -54.5t-110.5 -16.5q-37 0 -68 9t-53.5 27t-35.5 46t-13 66q0 80 55.5 118t145.5 38h86q6 0 6 6v19q0 34 -20.5 49.5t-78.5 15.5q-37 0 -64 -9t-44 -22q-8 -6 -13 2l-45 79q-5 9 3 14q31 22 75.5 35t104.5 13
q54 0 96 -11.5t66 -33.5h2q23 20 58 32.5t77 12.5q81 0 134.5 -36t74.5 -100q4 -12 7 -25.5t5 -30.5t3 -39.5t1 -53.5q0 -10 -11 -10h-293q-6 0 -6 -6q0 -5 2 -13t4 -14q21 -64 101 -64q35 0 62.5 12t47.5 31q8 6 14 0l66 -62q8 -7 1 -14q-35 -37 -87 -59t-118 -22zM633 293
q6 0 6 6q0 11 -1.5 19.5t-3.5 16.5q-8 25 -29.5 39t-51.5 14q-32 0 -52.5 -14.5t-28.5 -38.5q-3 -9 -4 -17t-1 -19q0 -6 6 -6h160zM245 94q90 0 90 67v33q0 6 -6 6h-68q-86 0 -86 -55q0 -51 70 -51z" />
    <glyph glyph-name="ccedilla" unicode="&#xe7;" horiz-adv-x="481" 
d="M151 -160q-10 0 -7 10l58 144q-56 14 -93.5 45.5t-54.5 86.5q-8 22 -11.5 50t-3.5 66t3.5 66t11.5 50q22 68 77 102.5t132 34.5q63 0 110 -25.5t73 -65.5q5 -8 -2 -14l-87 -57q-9 -6 -15 2q-16 22 -33.5 32t-43.5 10q-28 0 -47.5 -13t-27.5 -39q-5 -15 -7 -34t-2 -49
t2 -49t7 -34q8 -26 27.5 -39t47.5 -13q26 0 43.5 10t33.5 32q6 8 15 2l87 -57q7 -6 2 -14q-21 -32 -57 -55.5t-81 -31.5l-44 -143q-3 -10 -16 -10h-97z" />
    <glyph glyph-name="egrave" unicode="&#xe8;" horiz-adv-x="527" 
d="M270 -11q-83 0 -138 36t-76 102q-8 23 -12.5 50t-4.5 65t4 65.5t12 50.5q21 66 75.5 101.5t132.5 35.5q81 0 134.5 -36t74.5 -100q4 -12 7 -25.5t5 -30.5t3 -39.5t1 -53.5q0 -10 -11 -10h-293q-6 0 -6 -6q1 -15 6 -27q10 -32 36 -48t64 -16q36 0 63 11.5t48 31.5
q9 7 14 0l66 -62q8 -7 1 -14q-35 -37 -87 -59t-119 -22zM344 293q6 0 6 6q0 11 -1.5 19.5t-3.5 16.5q-8 25 -29.5 39t-51.5 14t-51.5 -14t-29.5 -39q-2 -8 -3.5 -16.5t-1.5 -19.5q0 -6 6 -6h160zM236 551q-12 0 -19 10l-99 130q-3 4 -1.5 7t6.5 3h116q12 0 18 -10l76 -130
q5 -10 -5 -10h-92z" />
    <glyph glyph-name="eacute" unicode="&#xe9;" horiz-adv-x="527" 
d="M204 551q-11 0 -6 10l77 130q6 10 18 10h115q5 0 6.5 -3t-1.5 -7l-99 -130q-8 -10 -19 -10h-91zM270 -11q-83 0 -138 36t-76 102q-8 23 -12.5 50t-4.5 65t4 65.5t12 50.5q21 66 75.5 101.5t132.5 35.5q81 0 134.5 -36t74.5 -100q4 -12 7 -25.5t5 -30.5t3 -39.5t1 -53.5
q0 -10 -11 -10h-293q-6 0 -6 -6q1 -15 6 -27q10 -32 36 -48t64 -16q36 0 63 11.5t48 31.5q9 7 14 0l66 -62q8 -7 1 -14q-35 -37 -87 -59t-119 -22zM344 293q6 0 6 6q0 11 -1.5 19.5t-3.5 16.5q-8 25 -29.5 39t-51.5 14t-51.5 -14t-29.5 -39q-2 -8 -3.5 -16.5t-1.5 -19.5
q0 -6 6 -6h160z" />
    <glyph glyph-name="ecircumflex" unicode="&#xea;" horiz-adv-x="527" 
d="M338 550q-12 0 -22 10l-52 54h-2l-53 -54q-6 -6 -10 -8t-12 -2h-79q-5 0 -6.5 3t1.5 7l104 131q7 10 18 10h75q12 0 19 -10l103 -131q3 -4 2 -7t-6 -3h-80zM270 -11q-83 0 -138 36t-76 102q-8 23 -12.5 50t-4.5 65t4 65.5t12 50.5q21 66 75.5 101.5t132.5 35.5
q81 0 134.5 -36t74.5 -100q4 -12 7 -25.5t5 -30.5t3 -39.5t1 -53.5q0 -10 -11 -10h-293q-6 0 -6 -6q1 -15 6 -27q10 -32 36 -48t64 -16q36 0 63 11.5t48 31.5q9 7 14 0l66 -62q8 -7 1 -14q-35 -37 -87 -59t-119 -22zM344 293q6 0 6 6q0 11 -1.5 19.5t-3.5 16.5
q-8 25 -29.5 39t-51.5 14t-51.5 -14t-29.5 -39q-2 -8 -3.5 -16.5t-1.5 -19.5q0 -6 6 -6h160z" />
    <glyph glyph-name="edieresis" unicode="&#xeb;" horiz-adv-x="527" 
d="M316 561q-10 0 -10 10v99q0 10 10 10h93q10 0 10 -10v-99q0 -10 -10 -10h-93zM116 561q-10 0 -10 10v99q0 10 10 10h92q10 0 10 -10v-99q0 -10 -10 -10h-92zM270 -11q-83 0 -138 36t-76 102q-8 23 -12.5 50t-4.5 65t4 65.5t12 50.5q21 66 75.5 101.5t132.5 35.5
q81 0 134.5 -36t74.5 -100q4 -12 7 -25.5t5 -30.5t3 -39.5t1 -53.5q0 -10 -11 -10h-293q-6 0 -6 -6q1 -15 6 -27q10 -32 36 -48t64 -16q36 0 63 11.5t48 31.5q9 7 14 0l66 -62q8 -7 1 -14q-35 -37 -87 -59t-119 -22zM344 293q6 0 6 6q0 11 -1.5 19.5t-3.5 16.5
q-8 25 -29.5 39t-51.5 14t-51.5 -14t-29.5 -39q-2 -8 -3.5 -16.5t-1.5 -19.5q0 -6 6 -6h160z" />
    <glyph glyph-name="igrave" unicode="&#xec;" horiz-adv-x="266" 
d="M73 0q-10 0 -10 10v464q0 10 10 10h120q10 0 10 -10v-464q0 -10 -10 -10h-120zM91 551q-12 0 -19 10l-99 130q-3 4 -1.5 7t6.5 3h116q12 0 18 -10l76 -130q5 -10 -5 -10h-92z" />
    <glyph glyph-name="iacute" unicode="&#xed;" horiz-adv-x="266" 
d="M84 551q-11 0 -6 10l77 130q6 10 18 10h115q5 0 6.5 -3t-1.5 -7l-99 -130q-8 -10 -19 -10h-91zM73 0q-10 0 -10 10v464q0 10 10 10h120q10 0 10 -10v-464q0 -10 -10 -10h-120z" />
    <glyph glyph-name="icircumflex" unicode="&#xee;" horiz-adv-x="266" 
d="M208 550q-12 0 -22 10l-52 54h-2l-53 -54q-6 -6 -10 -8t-12 -2h-79q-5 0 -6.5 3t1.5 7l104 131q7 10 18 10h75q12 0 19 -10l103 -131q3 -4 2 -7t-6 -3h-80zM73 0q-10 0 -10 10v464q0 10 10 10h120q10 0 10 -10v-464q0 -10 -10 -10h-120z" />
    <glyph glyph-name="idieresis" unicode="&#xef;" horiz-adv-x="266" 
d="M187 561q-10 0 -10 10v99q0 10 10 10h93q10 0 10 -10v-99q0 -10 -10 -10h-93zM-13 561q-10 0 -10 10v99q0 10 10 10h92q10 0 10 -10v-99q0 -10 -10 -10h-92zM73 0q-10 0 -10 10v464q0 10 10 10h120q10 0 10 -10v-464q0 -10 -10 -10h-120z" />
    <glyph glyph-name="eth" unicode="&#xf0;" horiz-adv-x="530" 
d="M355 552l20 -28q30 -41 51.5 -77.5t36 -71t21.5 -69t7 -71.5q0 -36 -3.5 -61.5t-10.5 -45.5q-22 -66 -77.5 -102.5t-133.5 -36.5q-81 0 -135.5 35.5t-75.5 99.5q-7 21 -11 46.5t-4 51.5t3.5 53t10.5 49q19 59 63.5 92.5t106.5 33.5q22 0 37 -4t27 -12h2l-59 81l-94 -28
q-9 -2 -12 7l-20 65q-3 10 7 13l64 19l-57 79q-2 4 -0.5 7t6.5 3h123q12 0 19 -10l31 -43l90 27q10 3 13 -6l20 -65q3 -10 -7 -13zM266 104q29 0 50 14t29 41q10 27 10 67q0 19 -2.5 35.5t-7.5 31.5q-17 56 -79 56q-30 0 -51 -14.5t-29 -41.5q-5 -15 -7.5 -31.5t-2.5 -35.5
q0 -40 10 -67q8 -27 29.5 -41t50.5 -14z" />
    <glyph glyph-name="ntilde" unicode="&#xf1;" horiz-adv-x="553" 
d="M364 0q-10 0 -10 10v278q0 40 -18.5 64t-56.5 24q-36 0 -56 -24t-20 -64v-278q0 -10 -10 -10h-120q-10 0 -10 10v464q0 10 10 10h120q10 0 10 -10v-34h1q17 23 47.5 39t77.5 16q40 0 71 -13t52 -37t31.5 -57t10.5 -73v-305q0 -10 -10 -10h-120zM339 552q-23 0 -40 6.5
t-35 15.5q-14 8 -27.5 13t-30.5 5q-22 0 -38 -9t-33 -23q-9 -7 -9 3v72q0 11 8 20q16 16 35 26t42 10t40 -6.5t35 -15.5q15 -8 28 -13t30 -5q22 0 38 9t33 23q4 3 7 2t3 -5v-72q0 -11 -9 -20q-15 -16 -34.5 -26t-42.5 -10z" />
    <glyph glyph-name="ograve" unicode="&#xf2;" horiz-adv-x="530" 
d="M265 -11q-77 0 -133 35t-77 101q-8 26 -12 53.5t-4 63.5t4 63.5t12 53.5q21 66 77 101t133 35t133 -35t77 -101q8 -26 12 -53.5t4 -63.5t-4 -63.5t-12 -53.5q-21 -66 -77 -101t-133 -35zM265 107q58 0 75 52q5 17 7 34.5t2 48.5t-2 48.5t-7 34.5q-17 52 -75 52t-75 -52
q-5 -17 -7 -34.5t-2 -48.5t2 -48.5t7 -34.5q17 -52 75 -52zM232 551q-12 0 -19 10l-99 130q-3 4 -1.5 7t6.5 3h116q12 0 18 -10l76 -130q5 -10 -5 -10h-92z" />
    <glyph glyph-name="oacute" unicode="&#xf3;" horiz-adv-x="530" 
d="M209 551q-11 0 -6 10l77 130q6 10 18 10h115q5 0 6.5 -3t-1.5 -7l-99 -130q-8 -10 -19 -10h-91zM265 -11q-77 0 -133 35t-77 101q-8 26 -12 53.5t-4 63.5t4 63.5t12 53.5q21 66 77 101t133 35t133 -35t77 -101q8 -26 12 -53.5t4 -63.5t-4 -63.5t-12 -53.5
q-21 -66 -77 -101t-133 -35zM265 107q58 0 75 52q5 17 7 34.5t2 48.5t-2 48.5t-7 34.5q-17 52 -75 52t-75 -52q-5 -17 -7 -34.5t-2 -48.5t2 -48.5t7 -34.5q17 -52 75 -52z" />
    <glyph glyph-name="ocircumflex" unicode="&#xf4;" horiz-adv-x="530" 
d="M340 550q-12 0 -22 10l-52 54h-2l-53 -54q-6 -6 -10 -8t-12 -2h-79q-5 0 -6.5 3t1.5 7l104 131q7 10 18 10h75q12 0 19 -10l103 -131q3 -4 2 -7t-6 -3h-80zM265 -11q-77 0 -133 35t-77 101q-8 26 -12 53.5t-4 63.5t4 63.5t12 53.5q21 66 77 101t133 35t133 -35t77 -101
q8 -26 12 -53.5t4 -63.5t-4 -63.5t-12 -53.5q-21 -66 -77 -101t-133 -35zM265 107q58 0 75 52q5 17 7 34.5t2 48.5t-2 48.5t-7 34.5q-17 52 -75 52t-75 -52q-5 -17 -7 -34.5t-2 -48.5t2 -48.5t7 -34.5q17 -52 75 -52z" />
    <glyph glyph-name="otilde" unicode="&#xf5;" horiz-adv-x="530" 
d="M265 -11q-77 0 -133 35t-77 101q-8 26 -12 53.5t-4 63.5t4 63.5t12 53.5q21 66 77 101t133 35t133 -35t77 -101q8 -26 12 -53.5t4 -63.5t-4 -63.5t-12 -53.5q-21 -66 -77 -101t-133 -35zM265 107q58 0 75 52q5 17 7 34.5t2 48.5t-2 48.5t-7 34.5q-17 52 -75 52t-75 -52
q-5 -17 -7 -34.5t-2 -48.5t2 -48.5t7 -34.5q17 -52 75 -52zM328 552q-23 0 -40 6.5t-35 15.5q-14 8 -27.5 13t-30.5 5q-22 0 -38 -9t-33 -23q-9 -7 -9 3v72q0 11 8 20q16 16 35 26t42 10t40 -6.5t35 -15.5q15 -8 28 -13t30 -5q22 0 38 9t33 23q4 3 7 2t3 -5v-72
q0 -11 -9 -20q-15 -16 -34.5 -26t-42.5 -10z" />
    <glyph glyph-name="odieresis" unicode="&#xf6;" horiz-adv-x="530" 
d="M318 561q-10 0 -10 10v99q0 10 10 10h93q10 0 10 -10v-99q0 -10 -10 -10h-93zM118 561q-10 0 -10 10v99q0 10 10 10h92q10 0 10 -10v-99q0 -10 -10 -10h-92zM265 -11q-77 0 -133 35t-77 101q-8 26 -12 53.5t-4 63.5t4 63.5t12 53.5q21 66 77 101t133 35t133 -35t77 -101
q8 -26 12 -53.5t4 -63.5t-4 -63.5t-12 -53.5q-21 -66 -77 -101t-133 -35zM265 107q58 0 75 52q5 17 7 34.5t2 48.5t-2 48.5t-7 34.5q-17 52 -75 52t-75 -52q-5 -17 -7 -34.5t-2 -48.5t2 -48.5t7 -34.5q17 -52 75 -52z" />
    <glyph glyph-name="divide" unicode="&#xf7;" horiz-adv-x="556" 
d="M278 387q-32 0 -54 22t-22 54t22 54t54 22t54 -22t22 -54t-22 -54t-54 -22zM61 217q-10 0 -10 10v98q0 10 10 10h434q10 0 10 -10v-98q0 -10 -10 -10h-434zM278 13q-32 0 -54 22t-22 54t22 54t54 22t54 -22t22 -54t-22 -54t-54 -22z" />
    <glyph glyph-name="oslash" unicode="&#xf8;" horiz-adv-x="530" 
d="M265 -11q-71 0 -123 29l-28 -38q-7 -10 -19 -10h-51q-5 0 -6 3t2 7l54 75q-13 14 -23 32t-16 38q-8 26 -12 53.5t-4 63.5t4 63.5t12 53.5q21 66 77 101t133 35q72 0 123 -30l29 39q7 10 19 10h50q5 0 6 -3t-1 -7l-56 -76q26 -28 40 -69q8 -26 12 -53.5t4 -63.5t-4 -63.5
t-12 -53.5q-21 -66 -77 -101t-133 -35zM179 242q0 -44 4 -67l131 189q-22 14 -49 14q-28 0 -48.5 -13t-28.5 -39q-5 -17 -7 -35t-2 -49zM265 106q28 0 48.5 13t28.5 39q5 17 7 35t2 49q0 42 -4 65l-130 -188q19 -13 48 -13z" />
    <glyph glyph-name="ugrave" unicode="&#xf9;" horiz-adv-x="549" 
d="M356 0q-10 0 -10 10v35h-1q-19 -25 -48.5 -40.5t-75.5 -15.5q-40 0 -70.5 13.5t-51 37.5t-31 57t-10.5 72v305q0 10 10 10h120q10 0 10 -10v-278q0 -39 18.5 -63.5t55.5 -24.5q36 0 55 24t19 64v278q0 10 10 10h120q10 0 10 -10v-464q0 -10 -10 -10h-120zM240 551
q-12 0 -19 10l-99 130q-3 4 -1.5 7t6.5 3h116q12 0 18 -10l76 -130q5 -10 -5 -10h-92z" />
    <glyph glyph-name="uacute" unicode="&#xfa;" horiz-adv-x="549" 
d="M218 551q-11 0 -6 10l77 130q6 10 18 10h115q5 0 6.5 -3t-1.5 -7l-99 -130q-8 -10 -19 -10h-91zM356 0q-10 0 -10 10v35h-1q-19 -25 -48.5 -40.5t-75.5 -15.5q-40 0 -70.5 13.5t-51 37.5t-31 57t-10.5 72v305q0 10 10 10h120q10 0 10 -10v-278q0 -39 18.5 -63.5
t55.5 -24.5q36 0 55 24t19 64v278q0 10 10 10h120q10 0 10 -10v-464q0 -10 -10 -10h-120z" />
    <glyph glyph-name="ucircumflex" unicode="&#xfb;" horiz-adv-x="549" 
d="M349 550q-12 0 -22 10l-52 54h-2l-53 -54q-6 -6 -10 -8t-12 -2h-79q-5 0 -6.5 3t1.5 7l104 131q7 10 18 10h75q12 0 19 -10l103 -131q3 -4 2 -7t-6 -3h-80zM356 0q-10 0 -10 10v35h-1q-19 -25 -48.5 -40.5t-75.5 -15.5q-40 0 -70.5 13.5t-51 37.5t-31 57t-10.5 72v305
q0 10 10 10h120q10 0 10 -10v-278q0 -39 18.5 -63.5t55.5 -24.5q36 0 55 24t19 64v278q0 10 10 10h120q10 0 10 -10v-464q0 -10 -10 -10h-120z" />
    <glyph glyph-name="udieresis" unicode="&#xfc;" horiz-adv-x="549" 
d="M328 561q-10 0 -10 10v99q0 10 10 10h93q10 0 10 -10v-99q0 -10 -10 -10h-93zM128 561q-10 0 -10 10v99q0 10 10 10h92q10 0 10 -10v-99q0 -10 -10 -10h-92zM356 0q-10 0 -10 10v35h-1q-19 -25 -48.5 -40.5t-75.5 -15.5q-40 0 -70.5 13.5t-51 37.5t-31 57t-10.5 72v305
q0 10 10 10h120q10 0 10 -10v-278q0 -39 18.5 -63.5t55.5 -24.5q36 0 55 24t19 64v278q0 10 10 10h120q10 0 10 -10v-464q0 -10 -10 -10h-120z" />
    <glyph glyph-name="yacute" unicode="&#xfd;" horiz-adv-x="507" 
d="M93 -180q-10 0 -10 10v98q0 10 10 10h21q26 0 41.5 11.5t24.5 38.5l13 36l-180 450q-3 10 8 10h128q9 0 12 -10l97 -280h2l90 280q3 10 12 10h124q11 0 8 -10l-196 -515q-15 -40 -31.5 -67t-36.5 -43t-45 -22.5t-58 -6.5h-34zM203 551q-11 0 -6 10l77 130q6 10 18 10h115
q5 0 6.5 -3t-1.5 -7l-99 -130q-8 -10 -19 -10h-91z" />
    <glyph glyph-name="thorn" unicode="&#xfe;" horiz-adv-x="551" 
d="M73 -180q-10 0 -10 10v840q0 10 10 10h120q10 0 10 -10v-231h1q17 25 48 40.5t79 15.5q61 0 103 -29t61 -87q9 -29 13 -59t4 -78q0 -47 -4 -77.5t-13 -59.5q-19 -57 -61 -86.5t-103 -29.5q-48 0 -79 15.5t-48 40.5h-1v-215q0 -10 -10 -10h-120zM286 107q58 0 75 52
q5 14 7 32.5t2 50.5t-2 50.5t-7 32.5q-16 52 -75 52q-58 0 -74 -52q-5 -14 -7 -32.5t-2 -50.5t2 -50.5t7 -32.5q17 -52 74 -52z" />
    <glyph glyph-name="ydieresis" unicode="&#xff;" horiz-adv-x="507" 
d="M93 -180q-10 0 -10 10v98q0 10 10 10h21q26 0 41.5 11.5t24.5 38.5l13 36l-180 450q-3 10 8 10h128q9 0 12 -10l97 -280h2l90 280q3 10 12 10h124q11 0 8 -10l-196 -515q-15 -40 -31.5 -67t-36.5 -43t-45 -22.5t-58 -6.5h-34zM309 561q-10 0 -10 10v99q0 10 10 10h93
q10 0 10 -10v-99q0 -10 -10 -10h-93zM109 561q-10 0 -10 10v99q0 10 10 10h92q10 0 10 -10v-99q0 -10 -10 -10h-92z" />
    <glyph glyph-name="dotlessi" unicode="&#x131;" horiz-adv-x="266" 
d="M73 0q-10 0 -10 10v464q0 10 10 10h120q10 0 10 -10v-464q0 -10 -10 -10h-120z" />
    <glyph glyph-name="Lslash" unicode="&#x141;" horiz-adv-x="550" 
d="M75 0q-10 0 -10 10v242l-46 -23q-10 -5 -10 6v94q0 9 10 14l46 23v304q0 10 10 10h127q10 0 10 -10v-236l127 65q10 5 10 -6v-94q0 -9 -10 -14l-127 -65v-183q0 -6 6 -6h300q10 0 10 -10v-111q0 -10 -10 -10h-443z" />
    <glyph glyph-name="lslash" unicode="&#x142;" horiz-adv-x="305" 
d="M201 330v-171q0 -25 10 -35.5t32 -10.5h21q10 0 10 -10v-99q0 -10 -10 -10h-53q-81 0 -115.5 36.5t-34.5 117.5v118l-32 -16q-10 -5 -10 6v89q0 10 10 15l32 16v294q0 10 10 10h120q10 0 10 -10v-230l63 32q10 5 10 -6v-89q0 -10 -10 -15z" />
    <glyph glyph-name="OE" unicode="&#x152;" horiz-adv-x="932" 
d="M442 0q-10 0 -10 10v22h-2q-20 -18 -51.5 -30.5t-76.5 -12.5q-88 0 -149 41t-87 123q-5 17 -9 34t-6 38t-3 48.5t-1 66.5t1 66.5t3 48.5t6 38t9 34q26 82 87 123t149 41q45 0 76.5 -12.5t51.5 -30.5h2v22q0 10 10 10h436q10 0 10 -10v-107q0 -10 -10 -10h-293q-6 0 -6 -6
v-135q0 -6 6 -6h244q10 0 10 -10v-106q0 -10 -10 -10h-244q-6 0 -6 -6v-141q0 -6 6 -6h293q10 0 10 -10v-107q0 -10 -10 -10h-436zM314 119q42 0 69 20t38 55q3 9 5 20.5t3.5 28t2 40.5t0.5 57t-0.5 57t-2 40.5t-3.5 28t-5 20.5q-11 35 -38 55t-69 20t-69 -20t-38 -55
q-3 -9 -5 -20.5t-3.5 -28t-2 -40.5t-0.5 -57t0.5 -57t2 -40.5t3.5 -28t5 -20.5q11 -35 38 -55t69 -20z" />
    <glyph glyph-name="oe" unicode="&#x153;" horiz-adv-x="836" 
d="M579 -11q-101 0 -157 59h-2q-32 -32 -70.5 -45.5t-84.5 -13.5q-77 0 -133 35t-77 102q-8 26 -12 53t-4 63t4 63.5t12 53.5q21 66 77 101t133 35q45 0 84 -12.5t70 -43.5h2q26 29 66 42.5t85 13.5q81 0 134.5 -36t74.5 -100q4 -12 6.5 -25.5t4.5 -30.5t3 -39.5t1 -53.5
q0 -10 -10 -10h-293q-6 0 -6 -6q1 -8 2 -14.5t3 -12.5q11 -32 37 -48t64 -16q36 0 63 11.5t47 31.5q9 6 15 0l66 -62q8 -6 0 -14q-35 -37 -87 -59t-118 -22zM652 293q6 0 6 6q0 23 -5 36q-8 25 -29 39t-51 14t-51.5 -14t-29.5 -39q-2 -8 -3.5 -16.5t-1.5 -19.5q0 -6 6 -6
h159zM265 107q58 0 75 53q5 16 7 33.5t2 48.5t-2 48.5t-7 34.5q-17 52 -75 52t-75 -52q-5 -17 -7 -34.5t-2 -48.5t2 -48.5t7 -33.5q17 -53 75 -53z" />
    <glyph glyph-name="Scaron" unicode="&#x160;" horiz-adv-x="595" 
d="M294 -11q-40 0 -78.5 7.5t-72.5 20t-62.5 29.5t-48.5 36q-8 8 -1 17l76 87q6 8 15 1q34 -27 79 -48.5t99 -21.5t82.5 22.5t28.5 58.5q0 30 -22 49t-83 27l-36 5q-104 14 -159.5 63.5t-55.5 140.5q0 47 17 85.5t48.5 65.5t76 42t99.5 15q68 0 128 -19t103 -52q9 -6 2 -15
l-61 -91q-6 -8 -14 -3q-39 26 -77.5 39t-80.5 13q-45 0 -68 -21t-23 -53q0 -29 23.5 -48t82.5 -27l36 -5q106 -14 160 -63.5t54 -142.5q0 -46 -17 -85.5t-50.5 -68t-83.5 -44.5t-116 -16zM262 744q-12 0 -19 10l-103 130q-3 4 -2 7t6 3h80q8 0 12 -2t10 -8l52 -54h2l53 54
q6 6 10 8t12 2h80q5 0 6 -3t-2 -7l-104 -130q-7 -10 -18 -10h-75z" />
    <glyph glyph-name="scaron" unicode="&#x161;" horiz-adv-x="505" 
d="M214 547q-11 0 -18 10l-104 131q-3 4 -1.5 7t6.5 3h79q8 0 12 -2t10 -8l53 -54h2l52 54q6 6 10.5 8t11.5 2h80q5 0 6 -3t-2 -7l-103 -131q-7 -10 -19 -10h-75zM253 -11q-76 0 -130.5 22.5t-89.5 52.5q-7 7 0 14l65 73q6 6 14 0q32 -25 71 -39t77 -14t56.5 13t18.5 33
q0 17 -13.5 27.5t-55.5 14.5l-54 6q-77 8 -117.5 45t-40.5 103q0 72 52 113.5t147 41.5q62 0 112 -17t84 -43q7 -7 1 -15l-56 -69q-6 -7 -14 -2q-25 16 -59 27.5t-72 11.5q-31 0 -46 -11t-15 -29q0 -17 13 -26.5t54 -13.5l53 -6q86 -8 123.5 -47t37.5 -100
q-1 -75 -56.5 -120.5t-159.5 -45.5z" />
    <glyph glyph-name="Ydieresis" unicode="&#x178;" horiz-adv-x="568" 
d="M220 0q-10 0 -10 10v261l-201 399q-4 10 7 10h130q11 0 15 -10l123 -248h3l123 248q4 10 15 10h126q5 0 7 -3t0 -7l-201 -399v-261q0 -10 -10 -10h-127zM340 760q-10 0 -10 10v98q0 10 10 10h90q10 0 10 -10v-98q0 -10 -10 -10h-90zM137 760q-10 0 -10 10v98q0 10 10 10
h90q10 0 10 -10v-98q0 -10 -10 -10h-90z" />
    <glyph glyph-name="Zcaron" unicode="&#x17d;" horiz-adv-x="546" 
d="M236 744q-12 0 -19 10l-103 130q-3 4 -2 7t6 3h80q8 0 12 -2t10 -8l52 -54h2l53 54q6 6 10 8t12 2h80q5 0 6 -3t-2 -7l-104 -130q-7 -10 -18 -10h-75zM50 0q-10 0 -10 10v110q0 5 3 10l293 417v2h-275q-10 0 -10 10v111q0 10 10 10h435q10 0 10 -10v-110q0 -6 -3 -10
l-294 -417v-2h287q10 0 10 -10v-111q0 -10 -10 -10h-446z" />
    <glyph glyph-name="zcaron" unicode="&#x17e;" horiz-adv-x="490" 
d="M211 547q-11 0 -18 10l-104 131q-3 4 -1.5 7t6.5 3h79q8 0 12 -2t10 -8l53 -54h2l52 54q6 6 10.5 8t11.5 2h80q5 0 6 -3t-2 -7l-103 -131q-7 -10 -19 -10h-75zM56 0q-10 0 -10 10v90q0 5 3 10l230 257v2h-210q-10 0 -10 10v95q0 10 10 10h365q10 0 10 -10v-95
q0 -6 -3 -10l-228 -252v-2h221q10 0 10 -10v-95q0 -10 -10 -10h-378z" />
    <glyph glyph-name="florin" unicode="&#x192;" horiz-adv-x="556" 
d="M355 313l-49 -322q-8 -47 -22 -80t-36.5 -53t-54.5 -29t-75 -9h-32q-10 0 -10 10v97q0 10 10 10h19q31 0 46 11t20 46l48 319h-61q-10 0 -10 10v84q0 10 10 10h77l15 95q14 90 57.5 129t128.5 39h34q10 0 10 -10v-97q0 -10 -10 -10h-21q-29 0 -44 -13t-20 -42l-14 -91h78
q10 0 10 -10v-84q0 -10 -10 -10h-94z" />
    <glyph glyph-name="circumflex" unicode="&#x2c6;" horiz-adv-x="454" 
d="M302 550q-12 0 -22 10l-52 54h-2l-53 -54q-6 -6 -10 -8t-12 -2h-79q-5 0 -6.5 3t1.5 7l104 131q7 10 18 10h75q12 0 19 -10l103 -131q3 -4 2 -7t-6 -3h-80z" />
    <glyph glyph-name="caron" unicode="&#x2c7;" horiz-adv-x="454" 
d="M189 547q-11 0 -18 10l-104 131q-3 4 -1.5 7t6.5 3h79q8 0 12 -2t10 -8l53 -54h2l52 54q6 6 10.5 8t11.5 2h80q5 0 6 -3t-2 -7l-103 -131q-7 -10 -19 -10h-75z" />
    <glyph glyph-name="uni02C9" unicode="&#x2c9;" horiz-adv-x="454" 
d="M85 771q-10 0 -10 10v76q0 10 10 10h283q10 0 10 -10v-76q0 -10 -10 -10h-283z" />
    <glyph glyph-name="breve" unicode="&#x2d8;" horiz-adv-x="454" 
d="M227 546q-68 0 -109.5 37t-43.5 94q0 10 10 10h58q10 0 13 -10q16 -43 72 -43t71 43q4 10 14 10h57q11 0 11 -10q-2 -28 -13.5 -52t-31.5 -41.5t-47.5 -27.5t-60.5 -10z" />
    <glyph glyph-name="dotaccent" unicode="&#x2d9;" horiz-adv-x="454" 
d="M169 561q-10 0 -10 10v99q0 10 10 10h115q10 0 10 -10v-99q0 -10 -10 -10h-115z" />
    <glyph glyph-name="ring" unicode="&#x2da;" horiz-adv-x="454" 
d="M227 524q-46 0 -76.5 30t-30.5 76q0 47 30.5 77t76.5 30t76.5 -30t30.5 -77q0 -46 -30.5 -76t-76.5 -30zM227 582q20 0 33 14t13 34q0 21 -13 35t-33 14t-33.5 -14t-13.5 -35q0 -20 13.5 -34t33.5 -14z" />
    <glyph glyph-name="ogonek" unicode="&#x2db;" horiz-adv-x="454" 
d="M218 -191q-47 0 -75 24.5t-28 67.5q0 32 15.5 55.5t44.5 43.5q7 5 12 7.5t13 2.5h104q5 0 5.5 -4t-4.5 -6q-48 -25 -66 -42.5t-18 -32.5q0 -21 21 -21q7 0 12 2t13 6q8 5 13 -4l31 -59q4 -7 -4 -14q-20 -14 -43 -20t-46 -6z" />
    <glyph glyph-name="tilde" unicode="&#x2dc;" horiz-adv-x="454" 
d="M289 552q-23 0 -40 6.5t-35 15.5q-14 8 -27.5 13t-30.5 5q-22 0 -38 -9t-33 -23q-9 -7 -9 3v72q0 11 8 20q16 16 35 26t42 10t40 -6.5t35 -15.5q15 -8 28 -13t30 -5q22 0 38 9t33 23q4 3 7 2t3 -5v-72q0 -11 -9 -20q-15 -16 -34.5 -26t-42.5 -10z" />
    <glyph glyph-name="hungarumlaut" unicode="&#x2dd;" horiz-adv-x="454" 
d="M230 549q-11 0 -6 10l67 131q5 10 16 10h97q5 0 6 -3t-1 -7l-80 -131q-6 -10 -17 -10h-82zM59 549q-11 0 -6 10l67 131q5 10 16 10h97q5 0 6 -3t-1 -7l-80 -131q-7 -10 -18 -10h-81z" />
    <glyph glyph-name="uni0394" unicode="&#x394;" horiz-adv-x="644" 
d="M21 0q-10 0 -7 10l234 660q3 10 13 10h126q10 0 13 -10l230 -660q3 -10 -7 -10h-602zM438 121q6 0 5 6l-119 365h-3l-120 -365q-2 -6 5 -6h232z" />
    <glyph glyph-name="uni03A9" unicode="&#x3a9;" horiz-adv-x="634" 
d="M364 0q-10 0 -10 10v101q0 11 9 14q20 7 34.5 22.5t23.5 41t13 63t4 88.5q0 36 -1 59.5t-2.5 40t-3.5 27t-5 19.5q-12 36 -39.5 55.5t-69.5 19.5t-69.5 -19.5t-39.5 -55.5q-3 -9 -5.5 -19.5t-4 -27t-2 -40t-0.5 -59.5q0 -51 4 -88.5t13 -63t23 -41t34 -22.5q10 -3 10 -14
v-101q0 -10 -10 -10h-213q-10 0 -10 10v104q0 10 10 10h57v2q-33 25 -50 73.5t-17 140.5q0 39 1 66.5t3 48.5t6 37t9 32q28 84 94 125.5t157 41.5t157 -41.5t94 -125.5q5 -16 8.5 -32t6 -37t3.5 -48.5t1 -66.5q0 -92 -17 -140.5t-51 -73.5v-2h58q10 0 10 -10v-104
q0 -10 -10 -10h-213z" />
    <glyph glyph-name="uni03BC" unicode="&#x3bc;" horiz-adv-x="554" 
d="M361 0q-10 0 -10 10v37h-1q-12 -20 -35.5 -36t-56.5 -18q-20 -1 -33 3.5t-21 11.5h-1v-178q0 -10 -10 -10h-120q-10 0 -10 10v644q0 10 10 10h120q10 0 10 -10v-278q0 -41 18.5 -64.5t55.5 -23.5t55.5 23.5t18.5 64.5v278q0 10 10 10h120q10 0 10 -10v-464q0 -10 -10 -10
h-120z" />
    <glyph glyph-name="pi" unicode="&#x3c0;" horiz-adv-x="598" 
d="M508 -6q-78 0 -112 36.5t-34 116.5v210q0 6 -6 6h-118q-6 0 -6 -6v-347q0 -10 -10 -10h-119q-10 0 -10 10v347q0 6 -6 6h-44q-10 0 -10 10v101q0 10 10 10h507q10 0 10 -10v-101q0 -10 -10 -10h-43q-6 0 -6 -6v-203q0 -23 7.5 -32t25.5 -9h5q10 0 10 -10v-99
q0 -10 -10 -10h-31z" />
    <glyph glyph-name="uni0901" unicode="&#x901;" 
d="M-206 806q-14 0 -14 12v88q0 14 14 14h87q15 0 15 -14v-88q0 -12 -15 -12h-87zM-159 748q46 0 76.5 16t30.5 61q0 10 2.5 13t12.5 3h90q11 0 11 -13q-1 -49 -19 -80.5t-49 -50t-71 -25.5t-84 -7q-41 0 -81 6t-72 23.5t-52 48.5t-21 81q0 12 3.5 14.5t11.5 2.5h89
q6 0 9 -2.5t3 -14.5q1 -23 9 -38t22 -23.5t34 -11.5t45 -3z" />
    <glyph glyph-name="uni0902" unicode="&#x902;" 
d="M-197 680q-16 0 -16 14v102q0 16 16 16h96q16 0 16 -16v-102q0 -14 -16 -14h-96z" />
    <glyph glyph-name="uni0903" unicode="&#x903;" horiz-adv-x="228" 
d="M66 350q-16 0 -16 14v102q0 16 16 16h96q16 0 16 -16v-102q0 -14 -16 -14h-96zM66 100q-16 0 -16 14v102q0 16 16 16h96q16 0 16 -16v-102q0 -14 -16 -14h-96z" />
    <glyph glyph-name="uni0904" unicode="&#x904;" horiz-adv-x="734" 
d="M157 818q0 9 11 9h94q10 0 10 -9q0 -21 1.5 -32.5t8 -17t20.5 -6.5t40 -1h85q68 0 109.5 -4.5t64.5 -20.5t31 -47.5t9 -85.5h91q10 0 10 -10v-76q0 -10 -10 -10h-87v-495q0 -7 -1.5 -9.5t-8.5 -2.5h-113q-5 0 -7.5 2t-2.5 10v217q0 8 -10 8h-104q16 -14 23 -36.5t7 -47.5
q0 -45 -17 -76.5t-46 -51t-67.5 -28t-80.5 -8.5q-39 0 -70.5 7t-57 17t-44.5 22t-32 23q-7 5 -8.5 8.5t5.5 13.5l46 70q5 8 10 6.5t12 -6.5q30 -20 62.5 -31.5t64.5 -11.5q49 0 72.5 18.5t23.5 61.5q0 25 -5.5 40.5t-17.5 23.5t-30 10.5t-42 2.5h-80q-11 0 -14 3.5t-3 14.5
v71q0 11 3.5 13.5t14.5 2.5h88q30 0 44.5 14.5t14.5 46.5q0 35 -18 49.5t-52 14.5q-27 0 -49 -6.5t-42 -15.5q-10 -5 -13 -5.5t-8 7.5l-37 69q-5 8 -4.5 13.5t9.5 10.5q31 20 74 33t94 13q36 0 67 -8t54 -26t36.5 -48t13.5 -73q0 -37 -14 -67.5t-45 -47.5h162q10 0 10 9v155
h-56q-10 0 -10 9v77q0 10 10 10h64q-1 24 -5.5 38t-16 21t-31.5 9t-53 2h-109q-50 0 -79 6t-44.5 22t-20 44.5t-4.5 72.5z" />
    <glyph glyph-name="uni0905" unicode="&#x905;" horiz-adv-x="742" 
d="M408 237q16 -14 23 -36.5t7 -47.5q0 -45 -17 -76.5t-46 -51t-67.5 -28t-80.5 -8.5q-39 0 -70.5 7t-57 17t-44.5 22t-32 23q-7 5 -8.5 8.5t5.5 13.5l46 70q5 8 10 6.5t12 -6.5q30 -20 62.5 -31.5t64.5 -11.5q49 0 72.5 18.5t23.5 61.5q0 25 -5.5 40.5t-17.5 23.5t-30 10.5
t-42 2.5h-80q-11 0 -14 3.5t-3 14.5v71q0 11 3.5 13.5t14.5 2.5h88q30 0 44.5 14.5t14.5 46.5q0 35 -18 49.5t-52 14.5q-27 0 -49 -6.5t-42 -15.5q-10 -5 -13 -5.5t-8 7.5l-37 69q-5 8 -4.5 13.5t9.5 10.5q31 20 74 33t94 13q36 0 67 -8t54 -26t36.5 -48t13.5 -73
q0 -37 -14 -67.5t-45 -47.5h162q10 0 10 9v155h-56q-10 0 -10 9v77q0 10 10 10h276q10 0 10 -10v-76q0 -10 -10 -10h-87v-495q0 -7 -1.5 -9.5t-8.5 -2.5h-113q-5 0 -7.5 2t-2.5 10v217q0 8 -10 8h-104z" />
    <glyph glyph-name="uni0906" unicode="&#x906;" horiz-adv-x="1016" 
d="M408 237q16 -14 23 -36.5t7 -47.5q0 -45 -17 -76.5t-46 -51t-67.5 -28t-80.5 -8.5q-39 0 -70.5 7t-57 17t-44.5 22t-32 23q-7 5 -8.5 8.5t5.5 13.5l47 71q5 7 8.5 5.5t17.5 -9.5q31 -19 60 -29.5t62 -10.5q49 0 72.5 18.5t23.5 61.5q0 27 -6 42t-19 23t-32 10t-45 2h-73
q-11 0 -14 3.5t-3 14.5v71q0 11 3.5 13.5t14.5 2.5h88q30 0 44.5 14.5t14.5 46.5q0 35 -18 49.5t-52 14.5q-27 0 -49.5 -6t-41.5 -16q-10 -4 -13 -5t-8 7l-37 69q-5 8 -4.5 13.5t9.5 10.5q30 20 73.5 33t94.5 13q36 0 67 -8t54 -26t36.5 -48t13.5 -73q0 -37 -14 -67.5
t-45 -47.5h162q10 0 10 9v155h-56q-10 0 -10 9v77q0 10 10 10h552q10 0 10 -10v-77q0 -9 -10 -9h-87v-498q0 -9 -9 -9h-116q-10 0 -10 10v497h-141v-497q0 -10 -12 -10h-111q-10 0 -10 10v219q0 8 -10 8h-104z" />
    <glyph glyph-name="uni0907" unicode="&#x907;" horiz-adv-x="544" 
d="M319 318q42 0 74.5 -7.5t54 -26.5t33 -52t11.5 -84q0 -49 -10.5 -82t-31 -53.5t-50.5 -29.5t-69 -10v-84q0 -6 -4 -6h-106q-8 0 -8 9v76q-77 0 -118 25t-41 92q0 50 33 82t101 32q75 0 107.5 -34t35.5 -109q18 2 28.5 22t10.5 59q0 42 -14 66t-55 24h-76q-46 0 -75 6.5
t-45.5 20t-23 35t-6.5 51.5q0 35 9 57t27 34.5t45.5 17t64.5 4.5h76v54h-299q-10 0 -10 9v77q0 10 10 10h550q9 0 9 -10v-76q0 -10 -10 -10h-119v-135q0 -13 -11 -13h-166q-27 0 -38.5 -2.5t-11.5 -16.5q0 -16 11.5 -19t51.5 -3h55zM164 86q0 -18 7 -24.5t24 -6.5h18v20
q0 22 -4 30.5t-21 8.5q-24 0 -24 -28z" />
    <glyph glyph-name="uni0908" unicode="&#x908;" horiz-adv-x="552" 
d="M319 318q42 0 74.5 -7.5t54 -26.5t33 -52t11.5 -84q0 -49 -10.5 -82t-31 -53.5t-50.5 -29.5t-69 -10v-84q0 -6 -4 -6h-106q-8 0 -8 9v76q-77 0 -118 25t-41 92q0 50 33 82t101 32q75 0 107.5 -34t35.5 -109q18 2 28.5 22t10.5 59q0 42 -14 66t-55 24h-76q-46 0 -75 6.5
t-45.5 20t-23 35t-6.5 51.5q0 35 9 57t27 34.5t45.5 17t64.5 4.5h76v54h-299q-10 0 -10 9v77q0 10 10 10h277q-10 17 -16 39.5t-6 39.5q0 72 42 106.5t115 35.5q23 0 46 -5t42 -13q8 -4 10 -8t-1 -13l-26 -69q-2 -7 -7.5 -7.5t-13.5 1.5q-11 2 -20 3.5t-18 1.5
q-23 0 -35.5 -12.5t-12.5 -35.5q0 -26 9 -44t38 -20h127q9 0 9 -10v-76q0 -10 -10 -10h-119v-135q0 -13 -11 -13h-166q-27 0 -38.5 -2.5t-11.5 -16.5q0 -16 11.5 -19t51.5 -3h55zM164 86q0 -18 7 -24.5t24 -6.5h18v20q0 22 -4 30.5t-21 8.5q-24 0 -24 -28z" />
    <glyph glyph-name="uni0909" unicode="&#x909;" horiz-adv-x="501" 
d="M390 455q0 -36 -15 -69t-56 -48q33 -8 53.5 -22.5t32.5 -35t16.5 -46.5t4.5 -57q0 -87 -49.5 -137t-149.5 -50q-40 0 -74 8t-62 19.5t-49.5 25t-34.5 25.5q-5 5 -5.5 9t4.5 11l48 68q5 8 9 7.5t13 -5.5q33 -20 66 -36.5t68 -16.5q55 0 73.5 25.5t18.5 66.5
q0 25 -6.5 39.5t-18.5 22t-30 10t-41 2.5h-68q-12 0 -15 4t-3 14v69q0 12 4 14t13 2h76q32 0 43 19.5t11 51.5q0 37 -13 49.5t-43 12.5h-213q-10 0 -10 9v77q0 10 10 10h504q9 0 9 -10v-76q0 -10 -9 -10h-122q10 -25 10 -52z" />
    <glyph glyph-name="uni090A" unicode="&#x90a;" horiz-adv-x="691" 
d="M407 455q0 -36 -15 -69t-56 -48q29 -8 47 -19q16 22 41.5 35.5t64.5 13.5q88 0 129 -45t41 -127q0 -38 -13.5 -75.5t-36.5 -63.5q-6 -7 -13 -2l-81 51q-6 3 0 10q11 14 21 33t10 49q0 48 -16.5 65.5t-51.5 17.5q-34 0 -47 -20q7 -17 9.5 -38.5t2.5 -45.5
q0 -87 -49.5 -137t-149.5 -50q-40 0 -74 8t-62 19.5t-49.5 25t-34.5 25.5q-5 5 -5.5 9t4.5 11l47 68q5 8 8 7.5t12 -5.5q31 -20 66.5 -36.5t70.5 -16.5q55 0 73.5 25.5t18.5 66.5q0 25 -6.5 39.5t-18.5 22t-30 10t-41 2.5h-68q-12 0 -15 4t-3 14v69q0 12 4 14t13 2h76
q32 0 43 19.5t11 51.5q0 37 -13 49.5t-43 12.5h-228q-10 0 -10 9v77q0 10 10 10h689q9 0 9 -10v-76q0 -10 -9 -10h-292q10 -25 10 -52z" />
    <glyph glyph-name="uni090B" unicode="&#x90b;" horiz-adv-x="887" 
d="M669 297q38 0 50.5 5.5t12.5 34.5q0 22 -7 30.5t-26 8.5q-22 0 -26 -13t-4 -45v-21zM496 10q0 -10 -10 -10h-113q-10 0 -10 10v137l-229 -163q-12 -9 -17 -1l-60 88q-2 4 -2.5 8t4.5 7l288 169q-36 35 -74.5 54.5t-92.5 19.5q-33 0 -56.5 -7t-37.5 -14q-9 -4 -11 1
l-43 91q-5 9 -3 12t12 8q35 13 70 20t69 7q57 0 102.5 -23t80.5 -52v135h-352q-11 0 -15.5 10t-4.5 21v55q0 10 9 10h889q10 0 10 -10v-77q0 -9 -10 -9h-393v-186q0 -10 2.5 -14t13.5 -4h53v26q0 27 5 52.5t19 44.5t39.5 30.5t66.5 11.5q76 0 106.5 -36.5t30.5 -103.5
q0 -29 -5.5 -52t-20.5 -39t-41 -25t-68 -9h-28v-30q0 -34 15 -48t44 -14q17 0 36.5 7t40.5 25q5 4 8 2t5 -5l44 -57q4 -6 0 -10q-38 -36 -73.5 -46.5t-61.5 -10.5q-88 0 -125.5 41t-37.5 109v37h-54q-5 0 -9.5 -2t-4.5 -11v-180z" />
    <glyph glyph-name="uni090C" unicode="&#x90c;" horiz-adv-x="781" 
d="M558 167q1 10 1.5 20t0.5 19q0 37 -4.5 60.5t-13.5 36.5t-23.5 17.5t-33.5 4.5q-35 0 -49.5 -19.5t-14.5 -58.5v-35q0 -7 -2 -11t-11 -4h-93q-8 1 -10.5 4t-2.5 11v35q0 38 -13 57.5t-49 19.5q-38 0 -54.5 -22.5t-16.5 -74.5t19 -87t42 -55q9 -8 7 -14.5t-6 -10.5
l-70 -73q-3 -4 -8.5 -5t-14.5 7q-20 17 -39 40.5t-34 53t-24 65t-9 75.5q0 49 10 88t33.5 66t60.5 41t91 14q18 0 38 -4t39 -14t34 -25.5t22 -37.5q15 31 37.5 47.5t49.5 22.5v86h-452q-9 0 -9 9v79q0 8 8 8h792q8 0 8 -9v-78q0 -9 -9 -9h-205v-93q64 -16 89 -69.5
t25 -145.5q0 -4 -1 -29t-3 -61q-1 -10 -4 -13.5t-13 -3.5h-60q-18 0 -31.5 -1t-21.5 -5.5t-12 -14t-4 -26.5q0 -13 2 -23.5t9.5 -17.5t20.5 -10.5t36 -3.5q24 0 45 5t38 17q13 8 18 -3l33 -60q2 -4 2.5 -8t-3.5 -7q-32 -26 -71 -35t-71 -9q-82 0 -128.5 34.5t-46.5 114.5
q0 39 10 64t27.5 39t41.5 19.5t51 5.5z" />
    <glyph glyph-name="uni090D" unicode="&#x90d;" horiz-adv-x="574" 
d="M406 -77q-44 29 -82 53.5t-72.5 46.5t-68 44t-68.5 47q-21 14 -32.5 24.5t-17 27t-6.5 44.5t-1 78v219h-59q-10 0 -10 10v76q0 10 10 10h575q9 0 9 -10v-77q0 -9 -9 -9h-74v-179q0 -46 -5 -77.5t-23.5 -51t-54.5 -28.5t-97 -9q-9 0 -13 2.5t-4 13.5v75q0 9 2.5 12.5
t12.5 3.5q19 0 30 2t16.5 9.5t7 22.5t1.5 42v162h-181v-225q0 -31 0.5 -48.5t2 -27t5.5 -14t10 -8.5q23 -17 54 -35.5t67 -38t75 -40.5t77 -43q12 -7 4 -21l-51 -82q-9 -16 -30 -1zM294 761q46 0 76.5 16t30.5 61q0 10 2.5 13t12.5 3h90q11 0 11 -13q-1 -49 -19 -80.5
t-49 -50t-71 -25.5t-84 -7q-41 0 -81 6t-72 23.5t-52 48.5t-21 81q0 12 3.5 14.5t11.5 2.5h89q6 0 9 -2.5t3 -14.5q1 -23 9 -38t22 -23.5t34 -11.5t45 -3z" />
    <glyph glyph-name="uni090E" unicode="&#x90e;" horiz-adv-x="573" 
d="M9 818q0 9 11 9h94q10 0 10 -9q0 -21 1.5 -32.5t8 -17t20.5 -6.5t40 -1h85q68 0 109.5 -4.5t64.5 -20.5t31 -47.5t9 -85.5h78q9 0 9 -10v-77q0 -9 -9 -9h-74v-179q0 -46 -5 -77.5t-23.5 -51t-54.5 -28.5t-97 -9q-9 0 -13 2.5t-4 13.5v75q0 9 2.5 12.5t12.5 3.5q19 0 30 2
t16.5 9.5t7 22.5t1.5 42v162h-181v-225q0 -31 0.5 -48.5t2 -27t5.5 -14t10 -8.5q23 -17 54 -35.5t67 -38t75 -40.5t77 -43q12 -7 4 -21l-51 -82q-9 -16 -30 -1q-44 29 -82 53.5t-72.5 46.5t-68 44t-68.5 47q-21 14 -32.5 24.5t-17 27t-6.5 44.5t-1 78v219h-59q-10 0 -10 10
v76q0 10 10 10h375q-1 24 -5 38t-15.5 21t-31.5 9t-53 2h-109q-50 0 -79 6t-44.5 22t-20 44.5t-4.5 72.5z" />
    <glyph glyph-name="uni090F" unicode="&#x90f;" horiz-adv-x="569" 
d="M403 -77q-44 29 -82 53.5t-72.5 46.5t-68 44t-68.5 47q-21 14 -32.5 24.5t-17 27t-6.5 44.5t-1 78v219h-59q-10 0 -10 10v76q0 10 10 10h575q9 0 9 -10v-77q0 -9 -9 -9h-74v-179q0 -46 -5 -77.5t-23.5 -51t-54.5 -28.5t-97 -9q-9 0 -13 2.5t-4 13.5v75q0 9 2.5 12.5
t12.5 3.5q19 0 30 2t16.5 9.5t7 22.5t1.5 42v162h-181v-225q0 -31 0.5 -48.5t2 -27t5.5 -14t10 -8.5q23 -17 54 -35.5t67 -38t75 -40.5t77 -43q12 -7 4 -21l-51 -82q-9 -16 -30 -1z" />
    <glyph glyph-name="uni0910" unicode="&#x910;" horiz-adv-x="571" 
d="M407 -80q-44 29 -82.5 54t-74 47.5t-69.5 45t-69 47.5q-21 14 -32.5 24.5t-17 27t-6.5 44.5t-1 78v219h-59q-10 0 -10 10v76q0 10 10 10h375q-1 38 -7.5 59.5t-25.5 31.5t-53 12t-89 2h-109q-9 0 -11 3t-4 10l-13 83q-2 11 8 11h193q69 0 114.5 -14t72 -41t37.5 -66.5
t12 -90.5h75q9 0 9 -10v-77q0 -9 -9 -9h-74v-179q0 -46 -5.5 -77.5t-24.5 -51t-55.5 -28.5t-97.5 -9q-9 0 -11.5 2.5t-2.5 13.5v75q0 9 2.5 12.5t12.5 3.5q19 0 30 2t16.5 9.5t7 22.5t1.5 42v162h-181v-225q0 -31 0.5 -48.5t2 -27t5.5 -14t10 -8.5q23 -17 54 -35.5t67 -38
t75 -40.5t77 -43q12 -7 4 -21l-52 -83q-5 -7 -9.5 -9t-15.5 6z" />
    <glyph glyph-name="uni0911" unicode="&#x911;" horiz-adv-x="1000" 
d="M848 772q46 0 76.5 16t30.5 61q0 10 2.5 13t12.5 3h90q11 0 11 -13q-1 -49 -19 -80.5t-49 -50t-71 -25.5t-84 -7q-41 0 -81 6t-72 23.5t-52 48.5t-21 81q0 12 3.5 14.5t11.5 2.5h89q6 0 9 -2.5t3 -14.5q1 -23 9 -38t22 -23.5t34 -11.5t45 -3zM792 0q-10 0 -10 10v497
h-127v-495q0 -7 -1.5 -9.5t-8.5 -2.5h-113q-5 0 -7.5 2t-2.5 10v217q0 8 -10 8h-104q16 -14 23 -36.5t7 -47.5q0 -45 -17 -76.5t-46 -51t-67.5 -28t-80.5 -8.5q-39 0 -70.5 7t-57 17t-44.5 22t-32 23q-7 5 -8.5 8.5t5.5 13.5l46 70q5 8 10 6.5t12 -6.5q30 -20 62.5 -31.5
t64.5 -11.5q49 0 72.5 18.5t23.5 61.5q0 25 -5.5 40.5t-17.5 23.5t-30 10.5t-42 2.5h-80q-11 0 -14 3.5t-3 14.5v71q0 11 3.5 13.5t14.5 2.5h88q30 0 44.5 14.5t14.5 46.5q0 35 -18 49.5t-52 14.5q-27 0 -49 -6.5t-42 -15.5q-10 -5 -13 -5.5t-8 7.5l-37 69q-5 8 -4.5 13.5
t9.5 10.5q31 20 74 33t94 13q36 0 67 -8t54 -26t36.5 -48t13.5 -73q0 -37 -14 -67.5t-45 -47.5h162q10 0 10 9v155h-56q-10 0 -10 9v77q0 10 10 10h538q10 0 10 -10v-77q0 -9 -10 -9h-88v-497q0 -10 -10 -10h-114z" />
    <glyph glyph-name="uni0912" unicode="&#x912;" horiz-adv-x="1004" 
d="M792 0q-10 0 -10 10v497h-127v-495q0 -7 -1.5 -9.5t-8.5 -2.5h-113q-5 0 -7.5 2t-2.5 10v217q0 8 -10 8h-104q16 -14 23 -36.5t7 -47.5q0 -45 -17 -76.5t-46 -51t-67.5 -28t-80.5 -8.5q-39 0 -70.5 7t-57 17t-44.5 22t-32 23q-7 5 -8.5 8.5t5.5 13.5l46 70q5 8 10 6.5
t12 -6.5q30 -20 62.5 -31.5t64.5 -11.5q49 0 72.5 18.5t23.5 61.5q0 25 -5.5 40.5t-17.5 23.5t-30 10.5t-42 2.5h-80q-11 0 -14 3.5t-3 14.5v71q0 11 3.5 13.5t14.5 2.5h88q30 0 44.5 14.5t14.5 46.5q0 35 -18 49.5t-52 14.5q-27 0 -49 -6.5t-42 -15.5q-10 -5 -13 -5.5
t-8 7.5l-37 69q-5 8 -4.5 13.5t9.5 10.5q31 20 74 33t94 13q36 0 67 -8t54 -26t36.5 -48t13.5 -73q0 -37 -14 -67.5t-45 -47.5h162q10 0 10 9v155h-56q-10 0 -10 9v77q0 10 10 10h327q-1 24 -5 38t-15.5 21t-31.5 9t-53 2h-109q-50 0 -79 6t-44.5 22t-20 44.5t-4.5 72.5
q0 9 11 9h94q10 0 10 -9q0 -21 1.5 -32.5t8 -17t20.5 -6.5t40 -1h85q68 0 109.5 -4.5t64.5 -20.5t31 -47.5t9 -85.5h89q10 0 10 -10v-77q0 -9 -10 -9h-88v-497q0 -10 -10 -10h-114z" />
    <glyph glyph-name="uni0913" unicode="&#x913;" horiz-adv-x="1004" 
d="M786 0q-10 0 -10 10v497h-131v-495q0 -7 -1.5 -9.5t-8.5 -2.5h-113q-5 0 -7.5 2t-2.5 10v217q0 8 -10 8h-104q16 -14 23 -36.5t7 -47.5q0 -45 -17 -76.5t-46 -51t-67.5 -28t-80.5 -8.5q-39 0 -70.5 7t-57 17t-44.5 22t-32 23q-7 5 -8.5 8.5t5.5 13.5l46 70q5 8 10 6.5
t12 -6.5q30 -20 62.5 -31.5t64.5 -11.5q49 0 72.5 18.5t23.5 61.5q0 25 -5.5 40.5t-17.5 23.5t-30 10.5t-42 2.5h-80q-11 0 -14 3.5t-3 14.5v71q0 11 3.5 13.5t14.5 2.5h88q30 0 44.5 14.5t14.5 46.5q0 35 -18 49.5t-52 14.5q-27 0 -49 -6.5t-42 -15.5q-10 -5 -13 -5.5
t-8 7.5l-37 69q-5 8 -4.5 13.5t9.5 10.5q31 20 74 33t94 13q36 0 67 -8t54 -26t36.5 -48t13.5 -73q0 -37 -14 -67.5t-45 -47.5h162q10 0 10 9v155h-56q-10 0 -10 9v77q0 10 10 10h324q0 30 -4 51.5t-16.5 35t-35.5 19.5t-61 6h-142q-9 0 -10 6l-10 79q-3 12 7 12h166
q72 0 116.5 -14t70 -40.5t34.5 -65.5t9 -89h99q10 0 10 -10v-77q0 -9 -10 -9h-92v-497q0 -10 -10 -10h-115z" />
    <glyph glyph-name="uni0914" unicode="&#x914;" horiz-adv-x="1006" 
d="M1006 603q7 0 8.5 -2t1.5 -8v-77q0 -9 -10 -9h-89v-497q0 -10 -12 -10h-112q-10 0 -10 10v497h-128v-497q0 -7 -3 -8.5t-8 -1.5h-112q-10 0 -10 10v219q0 8 -10 8h-104q16 -14 23 -36.5t7 -47.5q0 -45 -17 -76.5t-46 -51t-67.5 -28t-80.5 -8.5q-39 0 -70.5 7t-57 17.5
t-44.5 22t-32 21.5q-7 5 -8.5 9t5.5 14l47 71q5 8 8.5 6l17.5 -10q31 -20 60.5 -30t61.5 -10q49 0 72.5 18.5t23.5 61.5q0 25 -5.5 40.5t-17.5 23.5t-30 10.5t-42 2.5h-80q-11 0 -14 3.5t-3 14.5v71q0 11 3.5 13.5t14.5 2.5h88q30 0 44.5 14.5t14.5 46.5q0 35 -18 49.5
t-52 14.5q-27 0 -49 -6.5t-42 -15.5q-10 -5 -13 -5.5t-8 7.5l-37 69q-5 8 -4.5 13.5t9.5 10.5q31 20 74 33t94 13q36 0 67 -8t54 -26t36.5 -48t13.5 -73q0 -37 -14 -67.5t-45 -47.5h162q10 0 10 9v155h-56q-10 0 -10 9v77q0 10 10 10h331q-26 37 -64.5 46t-88.5 9h-113
q-7 0 -9 8l-10 68q-1 8 9 8h90q80 0 132.5 -16t87.5 -65q-9 49 -21.5 75.5t-39 39t-70 14.5t-113.5 2h-75q-8 0 -9 8l-11 68q-1 10 6 10h179q75 0 120 -17.5t69.5 -52t33 -86t8.5 -119.5h98z" />
    <glyph glyph-name="uni0915" unicode="&#x915;" horiz-adv-x="774" 
d="M330 0q-10 0 -10 10v78q-15 -17 -43 -28.5t-64 -11.5q-50 0 -84 14t-54.5 40t-29.5 63t-9 83q0 43 7 79.5t26.5 63.5t54 42t90.5 15q28 0 57.5 -9t48.5 -28v96h-325q-10 0 -10 10v76q0 10 10 10h781q10 0 10 -10v-76q0 -10 -10 -10h-326v-105q10 12 25 20.5t32 14t35.5 8
t34.5 2.5q44 0 74 -13.5t48 -39.5t26 -64t8 -87q0 -56 -12 -94t-36 -60.5t-61.5 -32t-88.5 -9.5q-12 0 -15.5 1t-3.5 9v83q0 7 2 8.5t13 1.5q24 0 38 7t20.5 20t8.5 30.5t2 37.5q0 53 -15.5 74t-57.5 21q-24 0 -39 -4t-23.5 -16.5t-11.5 -35t-3 -58.5v-216q0 -10 -10 -10
h-110zM320 271q0 43 -22 56.5t-53 13.5q-44 0 -59 -23.5t-15 -67.5q0 -51 15 -73.5t59 -22.5q16 0 30 2.5t24 9.5t15.5 19.5t5.5 32.5v53z" />
    <glyph glyph-name="uni0916" unicode="&#x916;" horiz-adv-x="739" 
d="M534 0q-10 0 -10 10v32q-35 -8 -76.5 -12t-89.5 -4q-126 0 -196.5 32t-101.5 103q-16 35 -18.5 86t-2.5 101q0 10 2.5 13.5t14.5 3.5h25q24 0 38 1.5t21.5 10.5t10 27t2.5 51v52h-154q-5 0 -7.5 1.5t-2.5 7.5v77q0 10 10 10h742q10 0 10 -10v-77q0 -9 -10 -9h-84v-497
q0 -10 -10 -10h-113zM397 126q34 0 66 3.5t61 12.5v36q-24 -12 -65 -12q-76 0 -110.5 34.5t-34.5 102.5q0 31 6.5 56t22 42t43 26t69.5 9q18 0 36 -2.5t33 -9.5v83h-246v-101q0 -45 -5.5 -70t-17.5 -37.5t-32.5 -15.5t-50.5 -3q-1 -6 -1 -12v-11q2 -38 13.5 -63.5
t37.5 -40.5t68.5 -21t106.5 -6zM524 320q0 27 -12.5 36t-35.5 9q-30 0 -39.5 -15t-9.5 -47t9 -48t42 -16q25 0 35.5 11.5t10.5 30.5v39z" />
    <glyph glyph-name="uni0917" unicode="&#x917;" horiz-adv-x="726" 
d="M514 0q-10 0 -10 10v497h-105v-270q0 -47 -9 -82t-30.5 -58t-57 -34t-87.5 -11q-41 0 -74.5 8t-56.5 26.5t-35.5 49t-12.5 75.5q0 40 10.5 67.5t32 44t54.5 23.5t79 7h54v154h-267q-10 0 -10 10v76q0 10 10 10h727q10 0 10 -10v-76q0 -10 -10 -10h-88v-497q0 -10 -10 -10
h-114zM214 158q18 0 29 4t16 11.5t6.5 19t1.5 27.5v32h-43q-38 0 -51.5 -9.5t-13.5 -36.5q0 -25 13 -36.5t42 -11.5z" />
    <glyph glyph-name="uni0918" unicode="&#x918;" horiz-adv-x="614" 
d="M400 0q-10 0 -10 10v75q-20 -13 -55 -22t-81 -9q-42 0 -80 7.5t-66.5 26t-45.5 49.5t-17 78q0 48 26 82t74 45q-52 8 -73 37.5t-21 66.5t15 61h-68q-10 0 -10 10v76q0 10 10 10h617q9 0 9 -10v-77q0 -9 -9 -9h-91v-497q0 -10 -10 -10h-114zM277 159q36 0 58 6.5
t34.5 21.5t16.5 40t4 63v217h-142q-23 0 -36 -4t-20 -11t-8.5 -18t-1.5 -24q0 -24 13.5 -38t45.5 -14h47q14 0 14 -13v-74q0 -9 -11 -9h-43q-20 0 -33.5 -5.5t-21 -14t-10.5 -19.5t-3 -23q0 -42 20.5 -61.5t76.5 -19.5z" />
    <glyph glyph-name="uni0919" unicode="&#x919;" horiz-adv-x="730" 
d="M251 355q-29 0 -39.5 -4t-10.5 -22q0 -11 2 -17.5t9 -9.5t21.5 -4t40.5 -1h54q36 0 67 -2.5t53.5 -14.5t35 -36t12.5 -67q0 -62 -22.5 -98.5t-56.5 -55.5t-74 -24.5t-74 -5.5q-37 0 -73 7.5t-67.5 19.5t-57.5 28t-44 34q-7 6 -6 11t4 9l50 63q5 8 9.5 7t11.5 -6
q41 -33 86 -46.5t85 -13.5q44 0 72 10t28 46q0 28 -14 34t-49 6h-79q-48 0 -77.5 8.5t-46 24.5t-22.5 39.5t-6 53.5q0 35 9 58.5t27.5 37t46.5 19t65 5.5h85v59h-308q-10 0 -10 9v77q0 10 10 10h733q10 0 10 -10v-76q0 -10 -10 -10h-294v-139q0 -13 -11 -13h-175zM557 176
q-15 0 -15 15v104q0 14 15 14h98q16 0 16 -14v-104q0 -15 -16 -15h-98z" />
    <glyph glyph-name="uni091A" unicode="&#x91a;" horiz-adv-x="640" 
d="M352 413q9 0 9 -8v-81q0 -8 -9 -8h-52q-23 0 -37 -6.5t-21.5 -16.5t-10 -22.5t-2.5 -24.5q0 -36 20 -58t69 -22q51 0 78.5 18t27.5 66v257h-426q-10 0 -10 10v76q0 10 10 10h642q9 0 9 -10v-77q0 -9 -9 -9h-82v-497q0 -7 -2 -8.5t-9 -1.5h-113q-10 0 -10 10v77
q-24 -15 -61 -21t-73 -6q-35 0 -69 7.5t-61 25t-43.5 46t-16.5 70.5q0 32 13.5 61t39.5 46h-103q-9 0 -9 7v82q0 8 9 8h302z" />
    <glyph glyph-name="uni091B" unicode="&#x91b;" horiz-adv-x="682" 
d="M339 -12q-147 0 -220 50.5t-73 150.5q0 52 24 90t74 52q-45 9 -66 39t-21 72q0 39 18 65h-79q-10 0 -10 10v76q0 10 10 10h687q10 0 10 -10v-77q0 -9 -10 -9h-124v-66q44 -17 59.5 -60.5t15.5 -112.5q0 -60 -12 -111t-44.5 -88.5t-90 -59t-148.5 -21.5zM334 324
q0 22 4.5 42.5t16 37.5t30.5 29t48 18v56h-178q-40 0 -57.5 -15t-17.5 -45q0 -28 13.5 -46t47.5 -18h33q8 0 10.5 -2.5t2.5 -9.5v-79q0 -8 -10 -8h-26q-45 0 -60 -23.5t-15 -57.5q0 -31 10.5 -51.5t30.5 -32.5t50.5 -17t69.5 -5q49 0 81.5 5.5t52 17.5t29 31.5t13.5 48.5
q-14 -1 -25.5 -1h-22.5q-66 1 -98.5 30.5t-32.5 94.5zM523 281q1 6 1 12.5v11.5q0 17 -0.5 31t-5 24t-13.5 15.5t-25 5.5q-33 0 -40.5 -16t-7.5 -38q0 -8 2 -16.5t7.5 -15t16 -10.5t27.5 -4h38z" />
    <glyph glyph-name="uni091C" unicode="&#x91c;" horiz-adv-x="744" 
d="M527 406v101h-530q-9 0 -9 10v77q0 9 9 9h748q9 0 9 -10v-77q0 -9 -9 -9h-84v-497q0 -10 -10 -10h-114q-10 0 -10 10v276q0 10 -10 10h-110q21 -18 33.5 -45t12.5 -65q0 -54 -17 -90t-44.5 -57t-63.5 -29.5t-73 -8.5q-48 0 -84.5 13t-64 32t-48 41.5t-36.5 40.5
q-6 8 1 15l71 62q3 2 6 2.5t8 -4.5q13 -15 27 -30.5t30.5 -28t35.5 -21t41 -8.5q48 0 64 22.5t16 67.5t-14.5 68t-58.5 23h-53q-10 0 -10 8v85q0 8 10 8h321q10 0 10 9z" />
    <glyph glyph-name="uni091D" unicode="&#x91d;" horiz-adv-x="797" 
d="M487 169q1 -8 1 -15.5v-14.5q0 -49 -11.5 -80.5t-33.5 -50.5t-52.5 -26.5t-69.5 -8.5v-84q0 -6 -4 -6h-106q-8 0 -8 9v76q-77 0 -118 25t-41 92q0 51 34 81t103 30q71 0 105.5 -30.5t34.5 -109.5q22 4 34 22.5t12 54.5q0 50 -15 72.5t-61 22.5h-66q-78 0 -114 25.5
t-36 86.5q0 35 11 57t30.5 34.5t46 17t58.5 4.5h76v54h-299q-10 0 -10 9v77q0 10 10 10h800q9 0 9 -10v-76q0 -10 -10 -10h-94v-497q0 -5 -1.5 -7.5t-8.5 -2.5h-115q-10 0 -10 10v150q0 9 -10 9h-71zM251 359q-29 0 -39.5 -3.5t-10.5 -21.5q0 -14 12.5 -17t50.5 -3h55
q48 0 82.5 -9t55.5 -34h101q10 0 10 9v227h-140v-135q0 -13 -11 -13h-166zM154 86q0 -18 7 -24.5t24 -6.5h18v20q0 22 -4 30.5t-21 8.5q-24 0 -24 -28z" />
    <glyph glyph-name="uni091E" unicode="&#x91e;" horiz-adv-x="695" 
d="M-4 507q-9 0 -9 10v76q0 10 9 10h701q10 0 10 -10v-75q0 -8 -1.5 -9.5t-8.5 -1.5h-87v-497q0 -10 -10 -10h-114q-10 0 -10 10v183q0 6 -1.5 12t-8.5 6h-60q-8 -84 -49.5 -122.5t-134.5 -38.5q-18 0 -41 3.5t-47 11.5t-47.5 19.5t-42.5 28.5q-7 5 -6 9.5t5 9.5l46 64
q5 6 9 7t15 -6q29 -20 55 -26t45 -6q44 0 58.5 22t14.5 67q0 52 -16.5 68.5t-55.5 16.5q-23 0 -42.5 -4.5t-33.5 -11.5q-10 -5 -12.5 -4.5t-5.5 5.5l-40 71q-6 11 4 17q13 9 30.5 15.5t36 11t36 7t32.5 2.5q45 0 77 -8t54 -23.5t34.5 -38.5t17.5 -52h64q10 0 10 8v173h-480z
" />
    <glyph glyph-name="uni091F" unicode="&#x91f;" horiz-adv-x="572" 
d="M509 69q-47 -38 -101 -53t-127 -15q-60 0 -106 12t-77 39t-46.5 70.5t-15.5 106.5q0 55 11.5 93.5t38 63t70 35.5t108.5 11h52v75h-315q-10 0 -10 9v77q0 10 10 10h577q10 0 10 -10v-76q0 -10 -10 -10h-136v-161q0 -8 -2.5 -11t-11.5 -3h-125q-31 0 -55.5 -2t-42 -11
t-27 -28.5t-9.5 -54.5t5.5 -58.5t20 -37.5t41 -20t68.5 -6t77.5 12t61.5 32q11 8 15 7t9 -9l41 -65q5 -8 6 -12.5t-5 -9.5z" />
    <glyph glyph-name="uni0920" unicode="&#x920;" horiz-adv-x="606" 
d="M449 507v-88q66 -22 89 -69.5t23 -111.5q0 -62 -15 -106t-46 -72t-78.5 -41t-113.5 -13q-75 0 -127 13.5t-83.5 40.5t-45.5 68t-14 97q0 58 13.5 98.5t39.5 65.5t64 36t87 11h77v71h-323q-10 0 -10 9v77q0 10 10 10h610q10 0 10 -10v-76q0 -10 -10 -10h-157zM306 115
q37 0 62 6t40 20t21 38t6 60q0 56 -18.5 76.5t-54.5 20.5h-79q-28 0 -49.5 -2t-36 -12.5t-22 -31.5t-7.5 -60q0 -30 5 -51.5t20 -35.5t42 -21t71 -7z" />
    <glyph glyph-name="uni0921" unicode="&#x921;" horiz-adv-x="549" 
d="M251 355q-29 0 -39.5 -4t-10.5 -22q0 -11 2 -17.5t9 -9.5t21.5 -4t40.5 -1h54q36 0 67 -2.5t53.5 -14.5t35 -36t12.5 -67q0 -62 -22.5 -98.5t-56.5 -55.5t-74 -24.5t-74 -5.5q-75 0 -137.5 24t-104.5 65q-7 6 -6 11t4 9l50 63q5 8 9.5 7t11.5 -6q41 -32 86 -46t85 -14
q44 0 72 10t28 46q0 28 -14 34t-49 6h-79q-48 0 -77.5 8.5t-46 24.5t-22.5 39.5t-6 53.5q0 35 9 58.5t27.5 37t46.5 19t65 5.5h85v59h-308q-10 0 -10 9v77q0 10 10 10h553q10 0 10 -10v-76q0 -10 -10 -10h-114v-139q0 -13 -11 -13h-175z" />
    <glyph glyph-name="uni0922" unicode="&#x922;" horiz-adv-x="612" 
d="M491 507v-141q0 -8 -2.5 -11t-11.5 -3h-144q-42 0 -73.5 -4t-51.5 -17.5t-30 -39t-10 -68.5q0 -26 3 -49t11.5 -40.5t24.5 -28t43 -10.5v29q0 49 9.5 82.5t29.5 53.5t50.5 29t73.5 9q74 0 110 -38t36 -105q0 -86 -58 -122.5t-180 -36.5q-70 0 -122.5 11t-87.5 38
t-52.5 72.5t-17.5 113.5q0 111 58.5 162t168.5 51h96v63h-363q-9 0 -9 9v77q0 10 9 10h611q10 0 10 -10v-76q0 -10 -10 -10h-121zM387 97q35 0 48 14t13 42q0 20 -8.5 33t-30.5 13q-27 0 -36 -16.5t-9 -58.5v-13t1 -14h22z" />
    <glyph glyph-name="uni0923" unicode="&#x923;" horiz-adv-x="784" 
d="M571 0q-10 0 -10 10v497h-104v-178q0 -55 -7 -97t-28.5 -70t-60 -42.5t-101.5 -14.5q-65 0 -104 14t-60 42.5t-27.5 71t-6.5 98.5v176h-66q-10 0 -10 10v76q0 10 10 10h789q10 0 10 -10v-77q0 -9 -10 -9h-90v-497q0 -10 -10 -10h-114zM263 218q23 0 35.5 6.5t18.5 20
t7 35t1 51.5v176h-131v-177q0 -30 1.5 -51t8.5 -34.5t21 -20t38 -6.5z" />
    <glyph glyph-name="uni0924" unicode="&#x924;" horiz-adv-x="582" 
d="M365 292q0 10 -10 10h-98q-25 0 -40 -5.5t-23.5 -14t-11.5 -19.5t-3 -22q0 -38 18.5 -91t41.5 -115q6 -17 -6 -21l-95 -36q-8 -3 -12.5 -2t-9.5 13q-13 33 -26 68.5t-23.5 71.5t-17.5 70.5t-7 63.5q0 24 4 50t21 47.5t51 36t93 14.5h144q10 0 10 9v87h-363q-10 0 -10 10
v77q0 9 10 9h583q10 0 10 -10v-76q0 -10 -10 -10h-86v-497q0 -10 -10 -10h-115q-9 0 -9 10v282z" />
    <glyph glyph-name="uni0925" unicode="&#x925;" horiz-adv-x="670" 
d="M358 454q0 -55 -13.5 -91.5t-36.5 -58.5t-54.5 -31t-68.5 -9v-15t1 -13q3 -24 18.5 -37t39 -19t51 -7t54.5 -1q23 0 52 4.5t47 14.5v316h-34q-9 0 -9 10v76q0 10 9 10h256q10 0 10 -10v-77q0 -9 -10 -9h-88v-497q0 -10 -11 -10h-113q-10 0 -10 10v70q-29 -11 -59.5 -14.5
t-60.5 -3.5q-42 0 -81 5.5t-72.5 18.5t-59 34.5t-40.5 52.5q-17 35 -20 72.5t-3 85.5q0 10 3 14t14 4h29q27 0 51 2.5t43 13t30 31.5t11 59q0 28 -2.5 46t-7.5 27.5t-12.5 13t-18.5 3.5q-22 0 -30 -13t-8 -36q0 -10 2 -18t4 -13q4 -11 5.5 -13.5t-5.5 -6.5l-79 -44
q-8 -5 -11 -4t-11 13q-6 10 -12 32.5t-6 46.5q0 30 9 56t27.5 46t46.5 31.5t66 11.5q37 0 68 -6t53.5 -25t34.5 -54.5t12 -94.5z" />
    <glyph glyph-name="uni0926" unicode="&#x926;" horiz-adv-x="611" 
d="M369 74q47 0 61.5 12.5t14.5 42.5q0 19 -7 32t-30 13q-21 0 -31.5 -11t-10.5 -44q0 -11 0.5 -21t2.5 -24zM407 -116q3 -10 -1 -14.5t-12 -6.5l-81 -20q-13 -4 -18 8q-8 20 -14 57t-11 76q-122 3 -179 58t-57 173q0 109 54.5 164t179.5 55h102v73h-371q-10 0 -10 9v77
q0 10 10 10h613q10 0 10 -10v-76q0 -10 -10 -10h-112v-158q0 -9 -3.5 -13t-14.5 -4h-202q-56 0 -84.5 -28t-28.5 -100q0 -35 7.5 -59.5t20.5 -39.5t30 -22t36 -7q-2 16 -3 29t-1 22q1 76 42.5 109t109.5 33q33 0 60 -7t46.5 -23.5t30 -43t10.5 -65.5q0 -37 -9 -63.5t-30 -44
t-54.5 -27t-81.5 -11.5q5 -27 11 -47.5t15 -52.5z" />
    <glyph glyph-name="uni0927" unicode="&#x927;" horiz-adv-x="669" 
d="M456 0q-10 0 -10 10v67q-27 -20 -68.5 -30t-92.5 -10q-46 0 -88 6t-74 23.5t-51 48t-19 78.5q0 20 5 39.5t16.5 35t30.5 26.5t46 14q-33 8 -53 25.5t-30.5 39.5t-14 47t-3.5 49q0 84 38.5 124.5t123.5 40.5q43 0 70.5 -10t43 -27t21 -38.5t5.5 -45.5q0 -64 -36 -86
t-111 -22q-11 0 -21.5 0.5t-24.5 0.5q11 -26 33.5 -35t57.5 -9h47q13 0 13 -12v-74q0 -8 -10 -8h-47q-32 0 -49.5 -10.5t-17.5 -45.5q0 -23 9 -36t24.5 -20.5t35.5 -9.5t42 -2q45 0 74 5.5t45.5 22t23 48t6.5 83.5v204h-39q-10 0 -10 10v76q0 10 10 10h263q9 0 9 -9v-78
q0 -9 -9 -9h-96v-497q0 -10 -10 -10h-108zM194 484q19 0 31 0.5t18 3.5t8 9t2 17q0 18 -8 27t-35 9q-33 0 -41.5 -17t-8.5 -49h34z" />
    <glyph glyph-name="uni0928" unicode="&#x928;" horiz-adv-x="656" 
d="M430 378v129h-429q-10 0 -10 10v76q0 10 10 10h658q10 0 10 -10v-77q0 -9 -10 -9h-95v-497q0 -10 -10 -10h-114q-10 0 -10 10v247q0 8 -2 10t-8 2h-68v-34q0 -88 -39 -125.5t-125 -37.5q-72 0 -114.5 36t-42.5 113q0 82 37 115.5t122 33.5h229q11 0 11 8zM189 170
q29 0 37.5 16t8.5 39v44h-27q-43 0 -55 -11t-12 -38q0 -9 1.5 -17.5t6.5 -16t14.5 -12t25.5 -4.5z" />
    <glyph glyph-name="uni0929" unicode="&#x929;" horiz-adv-x="660" 
d="M430 378v129h-429q-10 0 -10 10v76q0 10 10 10h658q10 0 10 -10v-77q0 -9 -10 -9h-95v-497q0 -10 -10 -10h-114q-10 0 -10 10v247q0 8 -2 10t-8 2h-68v-34q0 -88 -39 -125.5t-125 -37.5q-72 0 -114.5 36t-42.5 113q0 82 37 115.5t122 33.5h229q11 0 11 8zM189 170
q29 0 37.5 16t8.5 39v44h-27q-43 0 -55 -11t-12 -38q0 -9 1.5 -17.5t6.5 -16t14.5 -12t25.5 -4.5zM141 -99q-15 0 -15 13v99q0 14 15 14h89q15 0 15 -14v-99q0 -13 -15 -13h-89z" />
    <glyph glyph-name="uni092A" unicode="&#x92a;" horiz-adv-x="570" 
d="M357 0q-10 0 -10 10v120q-14 -8 -38.5 -14.5t-55.5 -6.5q-66 0 -105.5 14t-61 43.5t-28 75t-6.5 108.5v157h-53q-5 0 -7.5 1.5t-2.5 9.5v75q0 10 10 10h572q9 0 9 -10v-77q0 -9 -9 -9h-90v-497q0 -10 -10 -10h-114zM268 223q42 0 60.5 17t18.5 66v201h-161v-155
q0 -36 2 -60.5t10 -40t24.5 -22t45.5 -6.5z" />
    <glyph glyph-name="uni092B" unicode="&#x92b;" horiz-adv-x="823" 
d="M363 0q-10 0 -10 10v135q-36 -21 -93 -21q-58 0 -96.5 11.5t-61 35t-31.5 60t-9 86.5v190h-66q-10 0 -10 9v77q0 10 10 10h825q9 0 9 -9v-78q0 -9 -9 -9h-337v-123q39 24 94 24q100 0 145 -47t45 -151q0 -56 -13 -93.5t-39 -60t-65.5 -31.5t-91.5 -9q-8 0 -10.5 1.5
t-2.5 8.5v82q0 8 2 9.5t13 1.5q23 0 37.5 6.5t22 18t10 28t2.5 36.5q0 30 -4.5 49t-14 30t-24 15t-34.5 4t-34 -3.5t-22.5 -14.5t-12 -32t-3.5 -57v-189q0 -10 -10 -10h-111zM278 235q18 0 32 3.5t23.5 12.5t14.5 25t5 41v190h-153v-138q0 -41 2 -67t9.5 -41t23.5 -20.5
t43 -5.5z" />
    <glyph glyph-name="uni092C" unicode="&#x92c;" horiz-adv-x="565" 
d="M358 0q-10 0 -10 10v58q-43 -27 -109 -27q-209 0 -209 205q0 45 11 83t36 65t65.5 42.5t99.5 15.5q27 0 55 -5t51 -16v76h-351q-10 0 -10 10v76q0 10 10 10h567q10 0 10 -10v-77q0 -9 -10 -9h-87v-497q0 -10 -10 -10h-109zM257 132q14 0 21.5 1t16.5 4l-129 169
q-4 -12 -6.5 -25.5t-2.5 -35.5q0 -55 24.5 -84t75.5 -29zM348 328q-15 14 -36 23t-52 9q-12 0 -22.5 -1t-20.5 -4l129 -170q2 3 2 8v10v125z" />
    <glyph glyph-name="uni092D" unicode="&#x92d;" horiz-adv-x="726" 
d="M207 234q-35 0 -44 -15t-9 -37q0 -20 9.5 -34t34.5 -14q27 0 34 15.5t7 44.5v40h-32zM370 234v-31q0 -90 -41 -129.5t-126 -39.5q-78 0 -119 36.5t-41 123.5q0 73 38.5 108t123.5 35h31v135q0 45 -6 62t-29 17q-41 0 -41 -48q0 -9 2.5 -21t6.5 -19q5 -10 5.5 -13t-5.5 -7
l-81 -45q-11 -6 -17 4q-10 17 -17.5 44.5t-7.5 49.5q0 67 44.5 106t118.5 39q35 0 64.5 -6.5t51 -25t33.5 -52.5t12 -89v-131h121q10 0 10 11v159h-56q-9 0 -9 10v76q0 10 9 10h281q10 0 10 -10v-76q0 -10 -10 -10h-91v-497q0 -7 -2.5 -8.5t-9.5 -1.5h-112q-10 0 -10 10v215
q0 9 -10 9h-121z" />
    <glyph glyph-name="uni092E" unicode="&#x92e;" horiz-adv-x="721" 
d="M196 236q-16 0 -25 -3.5t-14 -10.5t-6.5 -16t-1.5 -20q0 -19 7 -34.5t33 -15.5q28 0 34.5 14.5t6.5 43.5v42h-34zM363 236v-27q0 -92 -40.5 -130t-128.5 -38q-77 0 -118.5 33.5t-41.5 112.5q0 84 40 117.5t128 33.5h28v169h-231q-10 0 -10 10v76q0 10 10 10h726
q9 0 9 -10v-76q0 -10 -10 -10h-95v-497q0 -5 -1.5 -7.5t-8.5 -2.5h-114q-10 0 -10 10v217q0 9 -10 9h-122zM363 338h122q10 0 10 9v160h-132v-169z" />
    <glyph glyph-name="uni092F" unicode="&#x92f;" horiz-adv-x="643" 
d="M431 0q-10 0 -10 10v73q-24 -8 -49.5 -11t-49.5 -3q-49 0 -90.5 5.5t-74.5 19t-57.5 36t-39.5 57.5q-14 34 -16.5 74.5t-2.5 86.5q0 10 3 13.5t14 3.5h37q25 0 38.5 1.5t20.5 9t8.5 24t1.5 45.5v62h-165q-10 0 -10 10v76q0 10 10 10h645q9 0 9 -10v-77q0 -9 -9 -9h-89
v-497q0 -10 -10 -10h-114zM331 178q21 0 45 3.5t45 12.5v313h-123v-98q0 -45 -7 -70.5t-22 -38.5t-37.5 -16.5t-53.5 -3.5q-1 -5 -1 -10.5v-10.5q2 -29 14.5 -45t33 -24t47.5 -10t59 -2z" />
    <glyph glyph-name="uni0930" unicode="&#x930;" horiz-adv-x="463" 
d="M251 507h-253q-9 0 -9 11v75q0 10 9 10h467q10 0 10 -10v-76q0 -10 -10 -10h-81v-74q0 -47 -2 -85t-13.5 -65t-35.5 -41.5t-69 -14.5q-17 0 -31 4t-24 9l168 -169q3 -3 4.5 -7.5t-5.5 -10.5l-73 -65q-8 -8 -14 -5.5t-12 10.5l-252 303q-7 8 2 16l63 54q9 8 18 -2l32 -35
q17 -18 29.5 -23.5t28.5 -5.5q19 0 30 8t16 25.5t6 46t1 70.5v57z" />
    <glyph glyph-name="uni0931" unicode="&#x931;" horiz-adv-x="467" 
d="M253 507h-253q-9 0 -9 11v75q0 10 9 10h467q10 0 10 -10v-76q0 -10 -10 -10h-81v-74q0 -47 -2 -85t-13.5 -65t-35.5 -41.5t-69 -14.5q-17 0 -31 4t-24 9l168 -169q3 -3 4.5 -7.5t-5.5 -10.5l-73 -65q-8 -8 -14 -5.5t-12 10.5l-252 303q-7 8 2 16l63 54q9 8 18 -2l32 -35
q17 -18 29.5 -23.5t28.5 -5.5q19 0 30 8t16 25.5t6 46t1 70.5v57zM20 8q-15 0 -15 13v99q0 14 15 14h89q15 0 15 -14v-99q0 -13 -15 -13h-89z" />
    <glyph glyph-name="uni0932" unicode="&#x932;" horiz-adv-x="718" 
d="M153 -26q-10 11 -28 33t-35.5 52.5t-30.5 68t-13 79.5q0 102 49.5 161t156.5 59q24 0 48.5 -5.5t46.5 -17.5t39.5 -32.5t27.5 -50.5l81 82v104h-498q-10 0 -10 10v76q0 10 10 10h723q9 0 9 -10v-77q0 -9 -9 -9h-92v-497q0 -10 -10 -10h-113q-10 0 -10 10v251l-134 -137
q-12 -12 -20 -2l-63 62q-7 7 -7.5 11.5t7.5 11.5l49 47q-3 30 -18 49.5t-48 19.5q-39 0 -58.5 -23.5t-19.5 -78.5q0 -31 7 -56t17 -44t21 -32.5t19 -21.5t7.5 -12.5t-8.5 -12.5l-73 -67q-4 -4 -9 -6t-11 5z" />
    <glyph glyph-name="uni0933" unicode="&#x933;" horiz-adv-x="754" 
d="M223 441q45 0 80 -16.5t64 -51.5q17 29 45 44t57 20v70h-470q-10 0 -10 10v76q0 10 10 10h755q10 0 10 -10v-77q0 -9 -9 -9h-162v-76q58 -17 84 -68t26 -142q0 -48 -10.5 -88t-33.5 -68.5t-60 -44t-90 -15.5q-42 0 -82.5 16t-68.5 45q-23 -31 -59 -45.5t-73 -14.5
q-57 0 -94.5 14t-60.5 41t-32.5 68t-9.5 95q0 47 10.5 87t34 69t60 45t89.5 16zM237 120q39 0 57 44.5t33 125.5q-15 26 -37.5 36t-45.5 10q-24 0 -40.5 -8.5t-26.5 -23.5t-14.5 -34.5t-4.5 -41.5q0 -53 16 -80.5t63 -27.5zM410 155q23 -20 47 -26t39 -6q48 0 64.5 28
t16.5 79q0 60 -13 81t-50 21q-27 0 -42 -12t-24.5 -35t-17 -55.5t-20.5 -74.5z" />
    <glyph glyph-name="uni0934" unicode="&#x934;" horiz-adv-x="755" 
d="M223 441q45 0 80 -16.5t64 -51.5q17 29 45 44t57 20v70h-470q-10 0 -10 10v76q0 10 10 10h755q10 0 10 -10v-77q0 -9 -9 -9h-162v-76q58 -17 84 -68t26 -142q0 -48 -10.5 -88t-33.5 -68.5t-60 -44t-90 -15.5q-42 0 -82.5 16t-68.5 45q-23 -31 -59 -45.5t-73 -14.5
q-57 0 -94.5 14t-60.5 41t-32.5 68t-9.5 95q0 47 10.5 87t34 69t60 45t89.5 16zM237 120q39 0 57 44.5t33 125.5q-15 26 -37.5 36t-45.5 10q-24 0 -40.5 -8.5t-26.5 -23.5t-14.5 -34.5t-4.5 -41.5q0 -53 16 -80.5t63 -27.5zM410 155q23 -20 47 -26t39 -6q48 0 64.5 28
t16.5 79q0 60 -13 81t-50 21q-27 0 -42 -12t-24.5 -35t-17 -55.5t-20.5 -74.5zM355 -156q-15 0 -15 13v99q0 14 15 14h89q15 0 15 -14v-99q0 -13 -15 -13h-89z" />
    <glyph glyph-name="uni0935" unicode="&#x935;" horiz-adv-x="549" 
d="M338 0q-10 0 -10 10v71q-25 -20 -56 -27.5t-58 -7.5q-50 0 -86 14.5t-58.5 41t-33 63.5t-10.5 83q0 43 10 80t32 64.5t57.5 43t87.5 15.5q28 0 57 -6t58 -25v87h-330q-10 0 -10 10v76q0 10 10 10h552q10 0 10 -10v-77q0 -9 -10 -9h-88v-497q0 -10 -10 -10h-114zM328 266
q0 26 -6 42t-16.5 24.5t-24.5 11.5t-31 3q-48 0 -65.5 -23t-17.5 -73q0 -47 15.5 -74t63.5 -27q36 0 59 14t23 59v43z" />
    <glyph glyph-name="uni0936" unicode="&#x936;" horiz-adv-x="705" 
d="M240 628q44 0 75 -11t51 -32.5t30 -53t13 -71.5q1 -11 1 -23v-25q-1 -45 -11.5 -82t-31.5 -64t-53.5 -42t-77.5 -15q-24 0 -41 10l167 -152q6 -5 7.5 -10.5t-5.5 -12.5l-69 -65q-7 -7 -12 -4.5t-10 8.5l-256 288q-4 5 -4.5 8.5t4.5 8.5l61 54q10 10 19 -1q16 -19 29 -31
t25 -18.5t24.5 -8.5t27.5 -2q34 0 55 17t22 67h-56q-80 0 -113 34t-33 93q0 67 38.5 101.5t123.5 34.5zM495 0q-10 0 -10 10v497h-37q-10 0 -10 10v76q0 10 10 10h259q9 0 9 -10v-77q0 -9 -9 -9h-87v-497q0 -10 -10 -10h-115zM284 457v15q0 34 -10 49.5t-42 15.5
q-20 0 -33 -8.5t-13 -31.5q0 -22 11.5 -31t40.5 -9h46z" />
    <glyph glyph-name="uni0937" unicode="&#x937;" horiz-adv-x="595" 
d="M387 0q-10 0 -10 10v116q-17 -10 -45.5 -18.5t-63.5 -8.5q-69 0 -112 15t-66.5 45.5t-32 76.5t-8.5 108v163h-50q-10 0 -10 10v76q0 10 10 10h597q9 0 9 -10v-77q0 -9 -9 -9h-90v-497q0 -10 -10 -10h-109zM279 203q25 0 44 6t30 20l-175 208v-98q0 -38 3.5 -63.5t14 -42
t30.5 -23.5t53 -7zM377 315v192h-165z" />
    <glyph glyph-name="uni0938" unicode="&#x938;" horiz-adv-x="696" 
d="M295 235q-32 0 -59.5 4.5t-44.5 17.5l157 -201q2 -2 4 -8.5t-9 -14.5l-81 -58q-13 -9 -21 4l-220 328q-7 11 5 18l70 45q5 3 8 3t8 -7l20 -28q10 -14 17.5 -18.5t17.5 -4.5t16 4.5t9 17.5t3.5 37t0.5 64v69h-198q-10 0 -10 9v77q0 10 10 10h700q10 0 10 -10v-76
q0 -10 -10 -10h-96v-499q0 -5 -1.5 -6.5t-7.5 -1.5h-114q-10 0 -10 10v216q0 9 -10 9h-164zM458 338q5 0 8 1.5t3 8.5v159h-142v-64q0 -26 -1.5 -54.5t-6.5 -50.5h139z" />
    <glyph glyph-name="uni0939" unicode="&#x939;" horiz-adv-x="557" 
d="M367 126q7 7 12.5 17t5.5 26q0 22 -16 26.5t-44 4.5h-61q-48 0 -72 -15t-24 -60q0 -35 22 -56.5t57 -34t80 -18.5t90 -9q11 -1 15 -3.5t2 -13.5l-11 -92q-1 -8 -4.5 -9.5t-13.5 -0.5q-92 6 -160.5 19t-114.5 38.5t-69 67t-23 104.5q0 51 21.5 89t72.5 51q-38 11 -53 37
t-15 60q0 33 12.5 53.5t33.5 32t49.5 15t61.5 3.5h74v49h-297q-10 0 -10 9v77q0 10 10 10h560q10 0 10 -10v-76q0 -10 -10 -10h-135v-133q0 -14 -11 -14h-168q-25 0 -38 -3.5t-13 -21.5q0 -10 3 -16t10.5 -9t21 -4t35.5 -1h71q42 0 75 -5.5t55.5 -20.5t34.5 -41t12 -68
q0 -37 -16 -65.5t-32 -46.5q-5 -6 -8.5 -7t-10.5 4q-21 15 -38 27.5t-38 28.5q-8 6 -1 15z" />
    <glyph glyph-name="uni093A" unicode="&#x93a;" 
d="M-276 589q-16 0 -16 14v125q0 15 16 15h95q16 0 16 -15v-125q0 -14 -16 -14h-95z" />
    <glyph glyph-name="uni093B" unicode="&#x93b;" horiz-adv-x="286" 
d="M75 0q-10 0 -10 10v497h-73q-10 0 -10 10v76q0 10 10 10h73v124q0 15 16 15h103q16 0 16 -15v-124h87q10 0 10 -10v-77q0 -9 -10 -9h-87v-497q0 -10 -10 -10h-115z" />
    <glyph glyph-name="uni093C" unicode="&#x93c;" 
d="M-264 -283q-15 0 -15 13v99q0 14 15 14h89q15 0 15 -14v-99q0 -13 -15 -13h-89z" />
    <glyph glyph-name="uni093D" unicode="&#x93d;" horiz-adv-x="529" 
d="M228 242q-54 39 -89 65.5t-55.5 49t-28.5 45.5t-8 55q0 137 154 137h199q14 0 18 -3.5t4 -18.5v-67q0 -15 -4.5 -18.5t-20.5 -3.5h-158q-30 0 -44 -5t-14 -23q0 -13 4 -23.5t16 -23t33.5 -28.5t57.5 -39q57 -37 90.5 -63t51 -48t23 -42.5t5.5 -47.5q0 -73 -44 -104
t-130 -31h-198q-17 0 -22 5t-5 22v59q0 17 5 21t22 4h163q43 0 55.5 10t12.5 30q0 10 -4.5 18t-15.5 17t-29 21t-44 30z" />
    <glyph glyph-name="uni093E" unicode="&#x93e;" horiz-adv-x="282" 
d="M75 0q-10 0 -10 10v497h-73q-10 0 -10 10v76q0 10 10 10h295q10 0 10 -10v-77q0 -9 -10 -9h-88v-497q0 -10 -10 -10h-114z" />
    <glyph glyph-name="uni093F" unicode="&#x93f;" horiz-adv-x="266" 
d="M86 0q-10 0 -10 10v497h-80q-10 0 -10 10v76q0 10 10 10h83q0 60 19.5 102t56 68t90 37.5t121.5 11.5h73q82 0 139 -14t92 -42t51 -69.5t16 -95.5v-26q0 -10 -10 -10h-110q-10 0 -10 10v13q-1 42 -10.5 69t-30 42.5t-53 22t-79.5 6.5h-62q-41 0 -72 -5t-52 -18.5
t-31.5 -38t-10.5 -63.5h65q10 0 10 -10v-77q0 -9 -10 -9h-61v-497q0 -10 -10 -10h-114z" />
    <glyph glyph-name="uni0940" unicode="&#x940;" horiz-adv-x="282" 
d="M72 0q-10 0 -10 10v497h-64q-9 0 -9 9v77q0 10 9 10h68q-1 63 -14 94.5t-54 31.5h-16q-26 0 -41 -9.5t-22.5 -26t-9.5 -38.5t-2 -48v-32q0 -10 -10 -10h-110q-10 0 -10 10v36q0 48 11 87t34.5 66.5t61.5 43t92 15.5h12q49 0 86.5 -9.5t63 -34t39.5 -67.5t16 -109h91
q9 0 9 -10v-76q0 -10 -9 -10h-88v-497q0 -10 -10 -10h-114z" />
    <glyph glyph-name="uni0941" unicode="&#x941;" 
d="M-264 -87q-6 0 -9.5 1.5t-3.5 8.5v77q0 8 2 11t10 3h109q39 0 70.5 -7t53.5 -23.5t34 -44.5t12 -69q0 -46 -16 -76.5t-44 -49t-65 -26t-80 -7.5q-71 0 -127 18.5t-110 56.5q-9 7 -2 18l43 66q6 9 10.5 9.5t13.5 -5.5q38 -23 79 -39t93 -16q43 0 60.5 12.5t17.5 39.5
q0 24 -13 33t-43 9h-95z" />
    <glyph glyph-name="uni0942" unicode="&#x942;" 
d="M-170 -161q14 0 17.5 -3t3.5 -17v-61q0 -9 -2.5 -13t-11.5 -4h-37q-76 0 -108.5 36.5t-32.5 95.5q0 69 39 103.5t106 40.5q10 1 19 1h19q55 -2 94.5 -25t68 -58t48.5 -77.5t37 -83.5q3 -8 3 -13t-9 -9l-83 -34q-10 -5 -14 -2t-9 15q-12 27 -25 59t-30 60.5t-39.5 47.5
t-53.5 19t-41 -11.5t-10 -28.5q0 -15 6 -26.5t29 -11.5h16z" />
    <glyph glyph-name="uni0943" unicode="&#x943;" 
d="M-83 -59q0 -9 -7 -9h-53q-24 0 -41.5 -1t-29 -6t-17 -16t-5.5 -30q0 -36 20 -46.5t57 -10.5q12 0 37 3t50 19q7 4 9 -1l42 -72q3 -5 -1 -8q-40 -28 -83.5 -37t-72.5 -9q-51 0 -86.5 9.5t-57.5 29.5t-31.5 50t-9.5 71q0 44 12 72t34.5 44.5t56 23t75.5 6.5h97q5 0 5 -6
v-76z" />
    <glyph glyph-name="uni0944" unicode="&#x944;" 
d="M-91 -59q0 -9 -7 -9h-70q-18 0 -32.5 -1t-24.5 -5.5t-15 -13.5t-5 -26q0 -36 21.5 -45t55.5 -9q14 0 38.5 4.5t48.5 18.5q6 4 10 -2l40 -70q2 -5 -1 -8q-41 -29 -82 -37t-72 -8q-11 0 -20 0.5t-18 1.5q-20 -10 -20 -42q0 -29 15.5 -41t58.5 -12q23 0 45.5 7.5t42.5 19.5
q6 4 8.5 3.5t6.5 -6.5l41 -68q3 -5 3.5 -8t-5.5 -8q-45 -32 -83 -40t-70 -8q-92 0 -140.5 32.5t-48.5 107.5q0 35 13.5 60t40.5 39q-53 38 -53 115q0 42 11.5 69.5t34 43t55 21.5t74.5 6h98q5 0 5 -6v-76z" />
    <glyph glyph-name="uni0945" unicode="&#x945;" 
d="M-206 761q46 0 76.5 16t30.5 61q0 10 2.5 13t12.5 3h90q11 0 11 -13q-1 -49 -19 -80.5t-49 -50t-71 -25.5t-84 -7q-41 0 -81 6t-72 23.5t-52 48.5t-21 81q0 12 3.5 14.5t11.5 2.5h89q6 0 9 -2.5t3 -14.5q1 -23 9 -38t22 -23.5t34 -11.5t45 -3z" />
    <glyph glyph-name="uni0946" unicode="&#x946;" horiz-adv-x="1" 
d="M-593 818q0 9 11 9h94q10 0 10 -9q0 -21 1.5 -32.5t8 -17t20.5 -6.5t40 -1h85q71 0 113.5 -5t65 -23t29 -54t6.5 -99h-122q0 32 -3 50.5t-13.5 28t-31.5 12t-57 2.5h-109q-50 0 -79 6t-44.5 22t-20 44.5t-4.5 72.5z" />
    <glyph glyph-name="uni0947" unicode="&#x947;" 
d="M-100 566h-118v31q0 33 -4 55.5t-16.5 36.5t-36.5 20.5t-63 6.5h-151q-8 0 -11 4.5t-5 13.5l-11 72q-2 9 7 9h182q71 0 115.5 -14t69 -40.5t33.5 -65.5t9 -88v-41z" />
    <glyph glyph-name="uni0948" unicode="&#x948;" 
d="M-474 658q-7 0 -9 8l-10 69q-1 8 9 8h90q40 0 72.5 -3.5t58.5 -12.5t47 -25t38 -41q-3 46 -15 72t-32.5 39t-51 16.5t-71.5 3.5h-145q-3 0 -6 2t-4 10l-11 64q-1 10 8 10h177q87 0 134.5 -21.5t69.5 -62t25.5 -99t3.5 -133.5h-93q-9 32 -26 51t-39 29t-49.5 13t-57.5 3
h-113z" />
    <glyph glyph-name="uni0949" unicode="&#x949;" horiz-adv-x="284" 
d="M75 0q-10 0 -10 10v497h-73q-10 0 -10 10v76q0 10 10 10h295q10 0 10 -10v-77q0 -9 -10 -9h-88v-497q0 -10 -10 -10h-114zM128 761q46 0 76.5 16t30.5 61q0 10 2.5 13t12.5 3h90q11 0 11 -13q-1 -49 -19 -80.5t-49 -50t-71 -25.5t-84 -7q-41 0 -81 6t-72 23.5t-52 48.5
t-21 81q0 12 3.5 14.5t11.5 2.5h89q6 0 9 -2.5t3 -14.5q1 -23 9 -38t22 -23.5t34 -11.5t45 -3z" />
    <glyph glyph-name="uni094A" unicode="&#x94a;" horiz-adv-x="291" 
d="M-294 818q0 9 11 9h94q10 0 10 -9q0 -21 1.5 -32.5t9 -17t23.5 -6.5t44 -1h31q83 0 134 -2.5t79 -17.5t38 -47t11 -91h99q10 0 10 -10v-77q0 -9 -10 -9h-94v-497q0 -5 -7 -7.5t-17 -3t-20 0t-17 0.5h-64q-10 0 -10 10v497h-67q-10 0 -10 10v76q0 10 10 10h72q-1 24 -5 38
t-15 21t-31 9t-53 2h-109q-50 0 -79 6t-44.5 22t-20 44.5t-4.5 72.5z" />
    <glyph glyph-name="uni094B" unicode="&#x94b;" horiz-adv-x="276" 
d="M74 0q-10 0 -10 10v497h-69q-10 0 -10 10v76q0 10 10 10h73q0 30 -4 51.5t-16.5 35t-35.5 19.5t-61 6h-142q-9 0 -10 6l-10 79q-3 12 7 12h166q72 0 116.5 -14t70 -40.5t34.5 -65.5t9 -89h99q10 0 10 -10v-77q0 -9 -10 -9h-92v-497q0 -10 -10 -10h-115z" />
    <glyph glyph-name="uni094C" unicode="&#x94c;" horiz-adv-x="285" 
d="M286 603q7 0 8.5 -2t1.5 -8v-77q0 -9 -10 -9h-89v-498q0 -3 -1.5 -6t-7.5 -3h-115q-10 0 -10 10v497h-68q-10 0 -10 10v76q0 7 2.5 8.5t10.5 1.5h79q-26 37 -64.5 46t-88.5 9h-113q-7 0 -9 8l-10 68q-1 8 9 8h90q80 0 132.5 -16t87.5 -65q-11 47 -26 73.5t-41 39
t-68.5 15.5t-108.5 3h-75q-8 0 -9 8l-11 68q-1 10 6 10h179q75 0 120 -17.5t69.5 -52t33 -86t8.5 -119.5h98z" />
    <glyph glyph-name="uni094D" unicode="&#x94d;" 
d="M33 -155q7 -5 1 -13l-53 -65q-5 -7 -11 -2l-176 141q-7 6 -2 12l48 60q5 6 12 0z" />
    <glyph glyph-name="uni094F" unicode="&#x94f;" horiz-adv-x="290" 
d="M69 507h-68q-10 0 -10 9v77q0 10 10 10h77q-4 16 -10.5 25.5t-18 15t-29.5 7t-44 1.5h-90q-40 0 -71.5 3t-53 16.5t-33 40t-11.5 73.5q0 9 11 9h88q10 0 10 -9q0 -14 3.5 -23t12 -14t23.5 -6.5t38 -1.5h92q14 -1 31 -3t34 -9.5t32.5 -22t26.5 -38.5q-8 48 -21.5 75.5
t-32.5 41.5t-43 17.5t-51 3.5h-29q-61 0 -100.5 4t-62.5 18t-32 40.5t-9 71.5q0 9 11 9h91q10 0 10 -9q0 -18 2.5 -27.5t11.5 -14.5t27 -6t49 -1h58q61 0 99.5 -19.5t60 -56.5t29.5 -90.5t9 -120.5h95q10 0 10 -10v-77q0 -9 -10 -9h-87v-497q0 -10 -10 -10h-115
q-10 0 -10 10v497z" />
    <glyph glyph-name="uni0950" unicode="&#x950;" horiz-adv-x="1003" 
d="M362 340q32 -8 55 -8q45 0 77.5 20t62.5 53q27 29 46.5 47.5t38.5 29t39.5 14t49.5 3.5q36 0 65.5 -9.5t51 -31t33.5 -56t12 -85.5q0 -86 -41 -129t-128 -43h-35q-14 0 -18 5t-4 17v68q0 14 4 16.5t17 2.5h8q18 0 31.5 1t22.5 7.5t13.5 20.5t4.5 39q0 34 -12 46.5
t-40 12.5q-11 0 -19 -2t-16.5 -9t-20 -19t-28.5 -33q-20 -24 -39 -41.5t-39.5 -28t-42.5 -15.5t-49 -5h-13t-14 1q8 -15 10.5 -35.5t2.5 -40.5q0 -45 -18.5 -76.5t-49.5 -51t-71 -28t-82 -8.5q-39 0 -70.5 7t-57 17t-44.5 22t-32 23q-7 5 -8.5 8.5t5.5 13.5l46 70
q5 8 10 6.5t12 -6.5q30 -20 62.5 -31.5t64.5 -11.5q49 0 77.5 18.5t28.5 61.5q0 51 -28 69.5t-77 18.5h-80q-11 0 -14 3.5t-3 14.5v71q0 11 3.5 13.5t14.5 2.5h88q30 0 49.5 19.5t19.5 51.5q0 35 -19 49.5t-61 14.5q-52 0 -91 -18q-10 -5 -13 -5.5t-8 7.5l-37 69
q-5 8 -4.5 13.5t9.5 10.5q42 23 84.5 32.5t93.5 9.5q36 0 67 -8t54 -26t36.5 -48t13.5 -73q0 -18 -3.5 -38.5t-10.5 -39.5t-18.5 -34.5t-26.5 -23.5zM621 606q46 0 71.5 17t25.5 62q0 10 2.5 13t12.5 3h90q11 0 11 -13q-1 -49 -17.5 -81t-45.5 -50.5t-67.5 -26t-82.5 -7.5
q-41 0 -79.5 6.5t-68.5 24t-48.5 49t-19.5 81.5q0 12 3.5 14.5t11.5 2.5h89q6 0 9 -2.5t3 -14.5q2 -47 26 -62.5t74 -15.5zM574 666q-14 0 -14 12v88q0 14 14 14h87q15 0 15 -14v-88q0 -12 -15 -12h-87z" />
    <glyph glyph-name="uni0951" unicode="&#x951;" 
d="M-185 690q-16 0 -16 14l-14 153q0 15 16 15h93q16 0 16 -15l-14 -153q0 -14 -16 -14h-65z" />
    <glyph glyph-name="uni0952" unicode="&#x952;" 
d="M-30 -58q9 0 9 -8v-75q0 -8 -9 -8h-403q-9 0 -9 7v76q0 8 9 8h403z" />
    <glyph glyph-name="uni0953" unicode="&#x953;" 
d="M-182 690q-8 0 -11.5 3t-5.5 10l-61 152q-3 8 0 12.5t9 4.5h98q8 0 13.5 -2t7.5 -13l33 -153q1 -14 -16 -14h-67z" />
    <glyph glyph-name="uni0954" unicode="&#x954;" 
d="M-247 690q-8 0 -12.5 3t-2.5 11l32 153q2 11 8 13t14 2h97q6 0 9 -4.5t0 -12.5l-61 -152q-2 -7 -5.5 -10t-11.5 -3h-67z" />
    <glyph glyph-name="uni0955" unicode="&#x955;" 
d="M-432 658q-10 0 -10 10v69q0 10 10 10h401q10 0 10 -10v-70q0 -9 -10 -9h-401zM-232 869q46 0 76.5 16t30.5 61q0 10 2.5 13t12.5 3h90q11 0 11 -13q-1 -49 -19 -81t-49 -51t-71 -26.5t-84 -7.5q-41 0 -81 6.5t-72 24.5t-52 49.5t-21 81.5q0 12 3.5 14.5t11.5 2.5h89
q6 0 9 -2.5t3 -14.5q1 -23 9 -38t22 -23.5t34 -11.5t45 -3z" />
    <glyph glyph-name="uni0956" unicode="&#x956;" 
d="M1 -99q-13 -39 -36 -63t-52.5 -38t-64 -19t-70.5 -5q-37 0 -72 4.5t-65 18.5t-53.5 38.5t-35.5 65.5q-2 8 1.5 11t8.5 5l76 20q6 2 9.5 1t8.5 -12q14 -34 45.5 -49.5t74.5 -15.5q44 0 74 13.5t50 51.5q5 10 8.5 11t10.5 -1l72 -21q5 -2 8.5 -5t1.5 -11z" />
    <glyph glyph-name="uni0957" unicode="&#x957;" 
d="M-19 -99q-13 -39 -36 -63t-52.5 -38t-64 -19t-70.5 -5q-37 0 -72 4.5t-65 18.5t-53.5 38.5t-35.5 65.5q-2 8 1.5 11t8.5 5l76 20q6 2 9.5 1t8.5 -12q14 -34 45.5 -49.5t74.5 -15.5q44 0 74 13.5t50 51.5q5 10 8.5 11t10.5 -1l72 -21q5 -2 8.5 -5t1.5 -11zM-19 -271
q-13 -39 -36 -63t-52.5 -38t-64 -19t-70.5 -5q-37 0 -72 4.5t-65 18.5t-53.5 38.5t-35.5 65.5q-2 8 1.5 11t8.5 5l76 20q6 2 9.5 1t8.5 -12q14 -34 45.5 -49.5t74.5 -15.5q44 0 74 13.5t50 51.5q5 10 8.5 11t10.5 -1l72 -21q5 -2 8.5 -5t1.5 -11z" />
    <glyph glyph-name="uni0958" unicode="&#x958;" horiz-adv-x="782" 
d="M330 0q-10 0 -10 10v78q-15 -17 -43 -28.5t-64 -11.5q-50 0 -84 14t-54.5 40t-29.5 63t-9 83q0 43 7 79.5t26.5 63.5t54 42t90.5 15q28 0 57.5 -9t48.5 -28v96h-325q-10 0 -10 10v76q0 10 10 10h781q10 0 10 -10v-76q0 -10 -10 -10h-326v-105q10 12 25 20.5t32 14t35.5 8
t34.5 2.5q44 0 74 -13.5t48 -39.5t26 -64t8 -87q0 -56 -12 -94t-36 -60.5t-61.5 -32t-88.5 -9.5q-12 0 -15.5 1t-3.5 9v83q0 7 2 8.5t13 1.5q24 0 38 7t20.5 20t8.5 30.5t2 37.5q0 53 -15.5 74t-57.5 21q-24 0 -39 -4t-23.5 -16.5t-11.5 -35t-3 -58.5v-216q0 -10 -10 -10
h-110zM320 271q0 43 -22 56.5t-53 13.5q-44 0 -59 -23.5t-15 -67.5q0 -51 15 -73.5t59 -22.5q16 0 30 2.5t24 9.5t15.5 19.5t5.5 32.5v53zM131 -110q-15 0 -15 13v99q0 14 15 14h89q15 0 15 -14v-99q0 -13 -15 -13h-89z" />
    <glyph glyph-name="uni0959" unicode="&#x959;" horiz-adv-x="739" 
d="M534 0q-10 0 -10 10v32q-35 -8 -76.5 -12t-89.5 -4q-126 0 -196.5 32t-101.5 103q-16 35 -18.5 86t-2.5 101q0 10 2.5 13.5t14.5 3.5h25q24 0 38 1.5t21.5 10.5t10 27t2.5 51v52h-154q-5 0 -7.5 1.5t-2.5 7.5v77q0 10 10 10h742q10 0 10 -10v-77q0 -9 -10 -9h-84v-497
q0 -10 -10 -10h-113zM397 126q34 0 66 3.5t61 12.5v36q-24 -12 -65 -12q-76 0 -110.5 34.5t-34.5 102.5q0 31 6.5 56t22 42t43 26t69.5 9q18 0 36 -2.5t33 -9.5v83h-246v-101q0 -45 -5.5 -70t-17.5 -37.5t-32.5 -15.5t-50.5 -3q-1 -6 -1 -12v-11q2 -38 13.5 -63.5
t37.5 -40.5t68.5 -21t106.5 -6zM524 320q0 27 -12.5 36t-35.5 9q-30 0 -39.5 -15t-9.5 -47t9 -48t42 -16q25 0 35.5 11.5t10.5 30.5v39zM224 -123q-15 0 -15 13v99q0 14 15 14h89q15 0 15 -14v-99q0 -13 -15 -13h-89z" />
    <glyph glyph-name="uni095A" unicode="&#x95a;" horiz-adv-x="726" 
d="M514 0q-10 0 -10 10v497h-105v-270q0 -47 -9 -82t-30.5 -58t-57 -34t-87.5 -11q-41 0 -74.5 8t-56.5 26.5t-35.5 49t-12.5 75.5q0 40 10.5 67.5t32 44t54.5 23.5t79 7h54v154h-267q-10 0 -10 10v76q0 10 10 10h727q10 0 10 -10v-76q0 -10 -10 -10h-88v-497q0 -10 -10 -10
h-114zM214 158q18 0 29 4t16 11.5t6.5 19t1.5 27.5v32h-43q-38 0 -51.5 -9.5t-13.5 -36.5q0 -25 13 -36.5t42 -11.5zM161 -112q-15 0 -15 13v99q0 14 15 14h89q15 0 15 -14v-99q0 -13 -15 -13h-89z" />
    <glyph glyph-name="uni095B" unicode="&#x95b;" horiz-adv-x="743" 
d="M527 419v88h-530q-9 0 -9 10v77q0 9 9 9h748q9 0 9 -10v-77q0 -9 -9 -9h-84v-497q0 -10 -10 -10h-114q-10 0 -10 10v289q0 10 -10 10h-110q18 -15 32 -41t14 -65q0 -53 -17 -87.5t-45 -54.5t-63.5 -28.5t-72.5 -8.5q-48 0 -84.5 13t-64 32t-48 41.5t-36.5 40.5q-6 8 1 15
l71 62q3 2 6 2.5t8 -4.5q13 -15 27 -30.5t30.5 -28t35.5 -21t41 -8.5q48 0 64 22.5t16 67.5t-14.5 63t-58.5 18h-53q-10 0 -10 8v85q0 8 10 8h321q10 0 10 9zM215 -132q-15 0 -15 13v99q0 14 15 14h89q15 0 15 -14v-99q0 -13 -15 -13h-89z" />
    <glyph glyph-name="uni095C" unicode="&#x95c;" horiz-adv-x="552" 
d="M226 -172q-15 0 -15 13v99q0 14 15 14h89q15 0 15 -14v-99q0 -13 -15 -13h-89zM251 355q-29 0 -39.5 -4t-10.5 -22q0 -11 2 -17.5t9 -9.5t21.5 -4t40.5 -1h54q36 0 67 -2.5t53.5 -14.5t35 -36t12.5 -67q0 -62 -22.5 -98.5t-56.5 -55.5t-74 -24.5t-74 -5.5
q-75 0 -137.5 24t-104.5 65q-7 6 -6 11t4 9l50 63q5 8 9.5 7t11.5 -6q41 -32 86 -46t85 -14q44 0 72 10t28 46q0 28 -14 34t-49 6h-79q-48 0 -77.5 8.5t-46 24.5t-22.5 39.5t-6 53.5q0 35 9 58.5t27.5 37t46.5 19t65 5.5h85v59h-308q-10 0 -10 9v77q0 10 10 10h553
q10 0 10 -10v-76q0 -10 -10 -10h-114v-139q0 -13 -11 -13h-175z" />
    <glyph glyph-name="uni095D" unicode="&#x95d;" horiz-adv-x="612" 
d="M491 507v-141q0 -8 -2.5 -11t-11.5 -3h-144q-42 0 -73.5 -4t-51.5 -17.5t-30 -39t-10 -68.5q0 -26 3 -49t11.5 -40.5t24.5 -28t43 -10.5v29q0 49 9.5 82.5t29.5 53.5t50.5 29t73.5 9q74 0 110 -38t36 -105q0 -86 -58 -122.5t-180 -36.5q-70 0 -122.5 11t-87.5 38
t-52.5 72.5t-17.5 113.5q0 111 58.5 162t168.5 51h96v63h-363q-9 0 -9 9v77q0 10 9 10h611q10 0 10 -10v-76q0 -10 -10 -10h-121zM387 97q35 0 48 14t13 42q0 20 -8.5 33t-30.5 13q-27 0 -36 -16.5t-9 -58.5v-13t1 -14h22zM255 -165q-15 0 -15 13v99q0 14 15 14h89
q15 0 15 -14v-99q0 -13 -15 -13h-89z" />
    <glyph glyph-name="uni095E" unicode="&#x95e;" horiz-adv-x="843" 
d="M387 0q-10 0 -10 10v135q-36 -21 -93 -21q-58 0 -96.5 11.5t-61 35t-31.5 60t-9 86.5v190h-66q-10 0 -10 9v77q0 10 10 10h825q9 0 9 -9v-78q0 -9 -9 -9h-337v-123q39 24 94 24q100 0 145 -47t45 -151q0 -56 -13 -93.5t-39 -60t-65.5 -31.5t-91.5 -9q-8 0 -10.5 1.5
t-2.5 8.5v82q0 8 2 9.5t13 1.5q23 0 37.5 6.5t22 18t10 28t2.5 36.5q0 30 -4.5 49t-14 30t-24 15t-34.5 4t-34 -3.5t-22.5 -14.5t-12 -32t-3.5 -57v-189q0 -10 -10 -10h-111zM302 235q18 0 32 3.5t23.5 12.5t14.5 25t5 41v190h-153v-138q0 -41 2 -67t9.5 -41t23.5 -20.5
t43 -5.5zM188 -58q-15 0 -15 13v99q0 14 15 14h89q15 0 15 -14v-99q0 -13 -15 -13h-89z" />
    <glyph glyph-name="uni095F" unicode="&#x95f;" horiz-adv-x="642" 
d="M431 0q-10 0 -10 10v73q-24 -8 -49.5 -11t-49.5 -3q-49 0 -90.5 5.5t-74.5 19t-57.5 36t-39.5 57.5q-14 34 -16.5 74.5t-2.5 86.5q0 10 3 13.5t14 3.5h37q25 0 38.5 1.5t20.5 9t8.5 24t1.5 45.5v62h-165q-10 0 -10 10v76q0 10 10 10h645q9 0 9 -10v-77q0 -9 -9 -9h-89
v-497q0 -10 -10 -10h-114zM331 178q21 0 45 3.5t45 12.5v313h-123v-98q0 -45 -7 -70.5t-22 -38.5t-37.5 -16.5t-53.5 -3.5q-1 -5 -1 -10.5v-10.5q2 -29 14.5 -45t33 -24t47.5 -10t59 -2zM192 -94q-15 0 -15 13v99q0 14 15 14h89q15 0 15 -14v-99q0 -13 -15 -13h-89z" />
    <glyph glyph-name="uni0960" unicode="&#x960;" horiz-adv-x="924" 
d="M686 305q37 0 50 6t13 36q0 22 -6.5 30.5t-25.5 8.5q-22 0 -26.5 -12t-4.5 -38v-31zM496 10q0 -10 -10 -10h-113q-10 0 -10 10v138l-229 -164q-11 -8 -17 -1l-60 88q-3 3 -3 8t5 7q81 45 138.5 77t94.5 53q43 24 71 40q-37 34 -83 53.5t-100 19.5q-33 0 -57.5 -7.5
t-38.5 -14.5q-7 -3 -9 2l-45 95q-4 8 4 11q41 20 75.5 26t60.5 6q57 0 102.5 -19t90.5 -56v135h-363q-9 0 -9 10v76q0 10 9 10h927q10 0 10 -10v-77q0 -9 -10 -9h-431v-185q0 -12 11 -12h76v27q0 27 5 52t19 43.5t39 29.5t65 11q53 0 89.5 -21t45.5 -73q3 -20 3 -41
q0 -30 -7 -53.5t-23 -40t-43 -26t-68 -11.5l-22 -1q1 -34 17.5 -47.5t48.5 -13.5q17 0 35 5.5t40 23.5q6 4 9 -1l48 -63q3 -5 -1 -9q-19 -18 -38 -28t-37 -15.5t-34 -6.5t-29 -1q-16 0 -29.5 1.5t-26.5 3.5q-14 -9 -14 -34q0 -26 15 -39t61 -13q23 0 44.5 7.5t39.5 19.5
q12 8 17 0l37 -56q6 -8 -1 -14q-32 -27 -70.5 -39t-73.5 -12q-81 0 -122 30t-41 109q0 31 9 51.5t24 32.5q-18 18 -25.5 43t-7.5 57v9h-74q-5 0 -8 -1.5t-3 -9.5v-186z" />
    <glyph glyph-name="uni0961" unicode="&#x961;" horiz-adv-x="785" 
d="M560 167q1 10 1 20v19q0 37 -4.5 60.5t-14 36.5t-24 17.5t-33.5 4.5q-35 0 -49.5 -19.5t-14.5 -58.5v-35q0 -7 -2 -11t-11 -4h-93q-8 1 -10.5 4t-2.5 11v35q0 38 -13 57.5t-49 19.5q-38 0 -54.5 -22.5t-16.5 -74.5t19 -87t42 -55q8 -8 7.5 -13t-6.5 -11l-70 -74
q-4 -4 -9.5 -6t-14.5 6q-20 16 -39 40t-33.5 54t-23.5 66t-9 76q0 49 10 88t33.5 66t60.5 41t91 14q18 0 37.5 -3.5t38 -13t34 -25t23.5 -39.5q15 31 37.5 47.5t49.5 22.5v57v14.5t1 14.5h-452q-10 0 -10 10v76q0 10 10 10h791q4 0 8 -2.5t4 -7.5v-77q0 -4 -3.5 -6.5
t-8.5 -2.5h-208q0 -5 0.5 -10.5t0.5 -10.5v-72q62 -20 86.5 -71t24.5 -144q0 -3 -0.5 -13.5t-1 -24t-2 -28t-2.5 -25.5q-2 -11 -6.5 -13.5t-9.5 -2.5h-56q-19 0 -32 -1t-21.5 -5.5t-12 -14t-3.5 -26.5q0 -26 11.5 -39t56.5 -13q21 0 42 4t38 16q6 4 9 4t8 -7l37 -55
q6 -9 -1 -14q-38 -31 -72.5 -38t-66.5 -7q-27 0 -48 3q-18 -9 -18 -42q0 -28 14 -41t61 -14q24 0 42 5t38 17q6 4 9.5 4t7.5 -6l37 -54q6 -8 -1 -14q-32 -26 -68 -34.5t-71 -8.5q-41 0 -71.5 6.5t-51 22t-30.5 42t-10 66.5q0 30 8.5 50t23.5 33q-20 17 -30.5 43.5
t-10.5 64.5q0 39 9 64t25 39t38.5 19.5t50.5 5.5z" />
    <glyph glyph-name="uni0962" unicode="&#x962;" 
d="M-32 -152q0 50 -11.5 65.5t-39.5 15.5q-31 0 -41 -13.5t-10 -42.5v-15q0 -5 -1.5 -9t-9.5 -4h-84q-11 0 -11 13v15q0 28 -7.5 41.5t-37.5 13.5q-20 0 -35.5 -13t-15.5 -53q0 -55 41 -96q10 -10 3 -19l-69 -73q-3 -3 -7 -4.5t-12 5.5q-39 35 -61 82t-22 101q0 80 39 121
t123 41q15 0 32 -3t33.5 -10.5t29.5 -21.5t21 -35q9 21 23 34.5t30 21.5t33.5 11t35.5 3q150 0 150 -166v-12t-0.5 -11.5t-1.5 -15.5t-2 -24q-2 -7 -8 -7h-70q-17 0 -29 -5t-12 -27q0 -20 12.5 -28.5t47.5 -8.5q14 0 32.5 4.5t32.5 12.5q6 4 8.5 3.5t5.5 -5.5l32 -47
q6 -7 -1 -13q-29 -24 -64 -31t-60 -7q-34 0 -61 6t-45.5 20t-28.5 36.5t-10 56.5t8 53.5t22.5 29.5t33 12t39.5 2z" />
    <glyph glyph-name="uni0963" unicode="&#x963;" 
d="M-32 -152q0 50 -11.5 65.5t-39.5 15.5q-31 0 -41 -13.5t-10 -42.5v-14q0 -5 -1.5 -8.5t-9.5 -3.5h-84q-11 0 -11 12v14q0 28 -7.5 41.5t-37.5 13.5q-20 0 -35.5 -13t-15.5 -53q0 -29 9 -52t32 -44q4 -4 6 -9.5t-5 -12.5l-67 -70q-3 -3 -7 -4t-12 6q-39 35 -61 81.5
t-22 100.5q0 80 39 121t123 41q15 0 32 -3t33.5 -10.5t29.5 -21.5t21 -35q9 21 23 34.5t30 21.5t33.5 11t35.5 3q150 0 150 -166v-12t-0.5 -11.5t-1.5 -15.5t-2 -24q-2 -7 -8 -7h-70q-17 0 -29 -5t-12 -27q0 -20 12.5 -28.5t47.5 -8.5q12 0 31.5 3.5t35.5 14.5q5 3 7 3t5 -5
l33 -48q2 -3 2.5 -6t-4.5 -7q-34 -26 -66.5 -32t-57.5 -6q-8 0 -16 1t-16 1q-16 -7 -16 -27q0 -25 14 -33.5t48 -8.5q16 0 34 4t35 14q8 5 13 -2l33 -50q5 -7 0 -11q-34 -24 -69 -30.5t-68 -6.5q-26 0 -50.5 4t-44 15.5t-31 32t-11.5 53.5q0 28 10 45.5t24 28.5
q-34 28 -34 89q0 34 10 53.5t25 29.5t33 12t35 2z" />
    <glyph glyph-name="uni0964" unicode="&#x964;" horiz-adv-x="453" 
d="M202 0q-10 0 -10 9v585q0 9 10 9h111q10 0 10 -9v-585q0 -9 -10 -9h-111z" />
    <glyph glyph-name="uni0965" unicode="&#x965;" horiz-adv-x="671" 
d="M199 0q-10 0 -10 9v585q0 9 10 9h112q10 0 10 -9v-585q0 -9 -10 -9h-112zM441 0q-10 0 -10 9v585q0 9 10 9h111q10 0 10 -9v-585q0 -9 -10 -9h-111z" />
    <glyph glyph-name="uni0966" unicode="&#x966;" horiz-adv-x="518" 
d="M257 70q-52 0 -92 11t-67.5 37t-41.5 69t-14 106t13.5 107t40.5 71.5t67.5 39.5t93.5 12q55 0 96 -12t68 -39.5t40.5 -71.5t13.5 -107t-14.5 -106t-42 -69t-68.5 -37t-93 -11zM258 184q24 0 41 4t27 15.5t14.5 33t4.5 56.5q0 34 -4 56.5t-14 35.5t-27 18t-42 5
q-24 0 -40.5 -5t-26.5 -18t-14 -35.5t-4 -56.5q0 -35 4.5 -56t14.5 -33t26 -16t40 -4z" />
    <glyph glyph-name="uni0967" unicode="&#x967;" horiz-adv-x="468" 
d="M199 284q-171 0 -171 175q0 84 50 129t141 45q57 0 96 -16.5t63 -48.5t34.5 -80t10.5 -112v-23q0 -74 -14 -132.5t-35 -104.5t-44.5 -79.5t-41.5 -56.5q-11 -13 -25 -4q-21 14 -40 28.5t-42 31.5q-8 7 -7.5 12t6.5 13q19 22 37.5 46.5t34 52t25.5 58.5t12 66h-90z
M157 456q0 -30 14.5 -44t56.5 -14h61v32q0 51 -14.5 70.5t-52.5 19.5q-37 0 -51 -16.5t-14 -47.5z" />
    <glyph glyph-name="uni0968" unicode="&#x968;" horiz-adv-x="574" 
d="M365 22q4 -14 2.5 -19.5t-12.5 -7.5l-87 -21q-11 -2 -15.5 1t-7.5 15q-7 28 -11.5 62.5t-7.5 92.5q-55 0 -89.5 9.5t-54.5 27.5t-27.5 45.5t-7.5 63.5q0 66 33 102t113 36q32 0 59 -7.5t47 -24.5t31 -46.5t11 -72.5v-32q20 3 32 15t18 30t8 41t2 49q0 35 -7 60.5
t-24 41.5t-44.5 23.5t-68.5 7.5q-36 0 -69 -7.5t-66 -20.5q-13 -5 -18 -2.5t-8 9.5l-31 76q-4 10 -2.5 14t10.5 9q21 10 47.5 17.5t54 12.5t53 7.5t44.5 2.5q82 0 134 -20.5t80.5 -54.5t39 -78.5t10.5 -92.5q0 -122 -50.5 -177.5t-146.5 -62.5q5 -44 11.5 -71t14.5 -53z
M229 269q0 31 -6 44.5t-31 13.5q-23 0 -32 -11t-9 -29q0 -26 10 -36t48 -10h20v28z" />
    <glyph glyph-name="uni0969" unicode="&#x969;" horiz-adv-x="534" 
d="M301 -93q-1 -5 -3 -7.5t-10 -1.5l-86 9q-9 1 -11.5 5t-1.5 9q4 20 6.5 40t4.5 43q-39 0 -70 6t-52.5 20.5t-32.5 38t-11 58.5q0 64 36 97.5t102 33.5q30 0 55 -7t43 -25t28 -49.5t11 -80.5q54 0 54 91q0 60 -23 89t-75 29h-96q-12 0 -15 4t-3 14v72q0 11 3 13.5t14 2.5
h71q17 0 34.5 1t31.5 6t23 15t9 28q0 19 -6.5 29.5t-18 15.5t-27 6t-33.5 1q-24 0 -53.5 -6.5t-53.5 -16.5q-17 -7 -22 3l-34 83q-3 8 -2.5 12.5t9.5 9.5q39 19 83 27.5t88 8.5q40 0 76 -6.5t63.5 -23.5t44 -45.5t16.5 -72.5q0 -43 -18.5 -77t-69.5 -48q60 -12 88 -51.5
t28 -117.5q0 -49 -14 -84t-38.5 -58t-59 -34t-76.5 -12q0 -27 -1 -51t-5 -46zM205 94q0 41 -4.5 56.5t-30.5 15.5q-19 0 -25.5 -10.5t-6.5 -24.5q0 -26 13.5 -31.5t41.5 -5.5h12z" />
    <glyph glyph-name="uni096A" unicode="&#x96a;" horiz-adv-x="557" 
d="M369 614q0 11 5 13.5t13 2.5h100q10 0 14 -3t4 -16v-96q0 -49 -9.5 -83.5t-28 -60t-45.5 -44t-62 -35.5q50 -32 70 -65.5t20 -84.5q0 -44 -15.5 -72.5t-40.5 -45.5t-56.5 -24t-63.5 -7q-38 0 -70.5 8t-56.5 26.5t-38 48t-14 72.5q0 45 19.5 80t70.5 64q-39 19 -66 39.5
t-43.5 49t-24 67t-7.5 93.5v72q0 11 4.5 14t14.5 3h95q14 0 18 -3.5t4 -17.5v-77q0 -36 5 -64t16 -50.5t28.5 -40t43.5 -32.5q27 15 45.5 33t30 40.5t16 50t4.5 63.5v82zM326 158q0 21 -10.5 43t-43.5 44q-32 -20 -43 -43t-11 -44q0 -13 2 -24.5t8 -20.5t17 -14.5t29 -5.5
q32 0 42 20.5t10 44.5z" />
    <glyph glyph-name="uni096B" unicode="&#x96b;" horiz-adv-x="571" 
d="M393 21q5 -14 -9 -19l-93 -32q-5 -2 -10.5 -1t-9.5 10q-6 13 -11 33.5t-9 43.5t-7 46.5t-4 43.5q-108 4 -157 64.5t-49 161.5q0 57 17 100.5t48 76t75 54.5t98 36q12 3 16.5 0.5t6.5 -10.5l29 -89q3 -9 1.5 -13.5t-12.5 -7.5q-35 -10 -61.5 -23t-44.5 -32t-27 -45t-9 -62
q0 -47 13 -78t51 -37v30q0 83 40.5 118.5t113.5 35.5q28 0 55 -7t47.5 -22.5t33 -41.5t12.5 -64q0 -75 -44.5 -109t-135.5 -34q5 -47 16 -74.5t20 -52.5zM351 240q42 0 59 8t17 39q0 19 -7 29.5t-28 10.5q-20 0 -30.5 -8t-10.5 -36v-43z" />
    <glyph glyph-name="uni096C" unicode="&#x96c;" horiz-adv-x="535" 
d="M354 -60q2 -8 0.5 -12.5t-11.5 -6.5l-84 -22q-12 -3 -16 7q-3 8 -5.5 21t-5 27t-4.5 28t-3 24q-102 4 -147 51.5t-45 140.5q0 75 30 115t94 58q-53 15 -70.5 47t-17.5 75q0 42 16.5 69t43.5 43t62 22.5t73 6.5q42 0 87 -7.5t76 -18.5q8 -2 9.5 -6t-1.5 -14l-23 -84
q-2 -8 -6.5 -9t-14.5 2q-20 7 -44 12.5t-47 5.5q-20 0 -38 -1t-31.5 -6t-21.5 -15.5t-8 -29.5q0 -18 6.5 -28.5t17 -15t24.5 -5.5t29 -1h88q8 0 11.5 -2.5t3.5 -13.5v-71q0 -10 -2.5 -13t-12.5 -3h-101q-56 0 -78 -31t-22 -92q0 -42 13.5 -66.5t42.5 -24.5q-1 5 -1 10.5v8.5
q0 42 10.5 70t29 44.5t44 23.5t55.5 7q68 0 104 -30t36 -97q0 -68 -39 -97.5t-123 -29.5q2 -17 5.5 -30.5t11.5 -35.5zM347 91q24 0 36.5 8.5t12.5 33.5q0 16 -8 25.5t-27 9.5q-24 0 -30 -12t-6 -41q0 -6 0.5 -12t0.5 -12h21z" />
    <glyph glyph-name="uni096D" unicode="&#x96d;" horiz-adv-x="641" 
d="M415 248q-51 0 -83.5 14t-51 37t-25.5 53t-7 63q0 75 44 117t125 42q57 0 92.5 -12t55.5 -39t27 -70t7 -106q0 -110 -13.5 -179t-45 -108t-84 -53t-131.5 -14q-64 0 -115 12.5t-86 43t-54 80.5t-19 125v352q0 14 4 19t21 5h80q15 0 20 -5t5 -19v-348q0 -46 8 -75.5
t25.5 -46.5t44.5 -23.5t66 -6.5q37 0 64 4.5t45 19.5t26.5 43t8.5 75h-54zM469 407q0 39 -9 54t-43 15q-31 0 -40 -17t-9 -41q0 -25 8.5 -44t43.5 -19h49v52z" />
    <glyph glyph-name="uni096E" unicode="&#x96e;" horiz-adv-x="513" 
d="M37 139q0 35 11 73q5 19 16.5 51t25.5 70.5t30 80.5t31 81.5t28.5 73.5t22.5 57q5 11 10.5 11.5t12.5 -1.5l94 -33q6 -2 9.5 -6.5t-0.5 -15.5q-11 -31 -30 -81t-39 -101.5t-37.5 -96.5t-23.5 -66q-4 -14 -9 -30t-5 -35q0 -46 71 -46q22 0 48.5 2.5t52 6t48 8.5t38.5 11
t20 -11l24 -96q2 -9 0.5 -13t-8.5 -6q-69 -20 -125 -26t-114 -6q-103 0 -152.5 34t-49.5 110z" />
    <glyph glyph-name="uni096F" unicode="&#x96f;" horiz-adv-x="468" 
d="M171 284q1 -35 11.5 -66t26 -58.5t34 -52t37.5 -46.5q6 -8 6.5 -13.5t-7.5 -11.5l-82 -60q-14 -9 -25 4q-18 23 -41.5 56.5t-44.5 79.5t-35 104.5t-14 132.5v23q0 64 10.5 112t34.5 80t63 48.5t96 16.5q91 0 141 -45t50 -129q0 -175 -171 -175h-90zM303 456
q0 31 -14 47.5t-51 16.5q-38 0 -52.5 -19.5t-14.5 -70.5v-32h61q42 0 56.5 14t14.5 44z" />
    <glyph glyph-name="uni0970" unicode="&#x970;" horiz-adv-x="528" 
d="M265 110q-103 0 -153.5 47t-50.5 159t48.5 161.5t154.5 49.5q55 0 93.5 -12t63 -37.5t35.5 -65.5t11 -96q0 -112 -48.5 -159t-153.5 -47zM265 221q46 0 65 20t19 77q0 28 -4 47t-13.5 30.5t-25.5 16.5t-40 5q-46 0 -65.5 -21.5t-19.5 -77.5t21.5 -76.5t62.5 -20.5z" />
    <glyph glyph-name="uni0971" unicode="&#x971;" horiz-adv-x="362" 
d="M121 679q-16 0 -16 15v102q0 15 16 15h95q17 0 17 -15v-102q0 -15 -17 -15h-95z" />
    <glyph glyph-name="uni0972" unicode="&#x972;" horiz-adv-x="727" 
d="M408 237q16 -14 23 -36.5t7 -47.5q0 -45 -17 -76.5t-46 -51t-67.5 -28t-80.5 -8.5q-39 0 -70.5 7t-57 17t-44.5 22t-32 23q-7 5 -8.5 8.5t5.5 13.5l47 71q5 7 8.5 5.5t17.5 -9.5q31 -20 60.5 -30t61.5 -10q49 0 72.5 18.5t23.5 61.5q0 25 -5.5 40.5t-17.5 23.5t-30 10.5
t-42 2.5h-80q-11 0 -14 3.5t-3 14.5v71q0 11 3.5 13.5t14.5 2.5h88q30 0 44.5 14.5t14.5 46.5q0 35 -18 49.5t-52 14.5q-27 0 -49.5 -6t-41.5 -16q-10 -4 -13 -5t-8 7l-37 69q-5 8 -4.5 13.5t9.5 10.5q31 20 74 33t94 13q36 0 67 -8t54 -26t36.5 -48t13.5 -73
q0 -37 -14 -67.5t-45 -47.5h162q10 0 10 9v155h-56q-10 0 -10 9v77q0 10 10 10h276q10 0 10 -10v-76q0 -10 -10 -10h-87v-495q0 -7 -1.5 -9.5t-8.5 -2.5h-113q-5 0 -7.5 2t-2.5 10v217q0 8 -10 8h-104zM564 751q46 0 76.5 16t30.5 61q0 10 2.5 13t12.5 3h90q11 0 11 -13
q-1 -49 -19 -80.5t-49 -50t-71 -25.5t-84 -7q-41 0 -81 6t-72 23.5t-52 48.5t-21 81q0 12 3.5 14.5t11.5 2.5h89q6 0 9 -2.5t3 -14.5q1 -23 9 -38t22 -23.5t34 -11.5t45 -3z" />
    <glyph glyph-name="uni0973" unicode="&#x973;" horiz-adv-x="741" 
d="M408 237q16 -14 23 -36.5t7 -47.5q0 -45 -17 -76.5t-46 -51t-67.5 -28t-80.5 -8.5q-39 0 -70.5 7t-57 17t-44.5 22t-32 23q-7 5 -8.5 8.5t5.5 13.5l47 71q5 8 8.5 6l17.5 -10q31 -20 60.5 -30t61.5 -10q49 0 72.5 18.5t23.5 61.5q0 25 -5.5 40.5t-17.5 23.5t-30 10.5
t-42 2.5h-80q-11 0 -14 3.5t-3 14.5v71q0 11 3.5 13.5t14.5 2.5h88q30 0 44.5 14.5t14.5 46.5q0 35 -18 49.5t-52 14.5q-27 0 -49 -6.5t-42 -15.5q-10 -5 -13 -5.5t-8 7.5l-37 69q-5 8 -4.5 13.5t9.5 10.5q31 20 74 33t94 13q36 0 67 -8t54 -26t36.5 -48t13.5 -73
q0 -37 -14 -67.5t-45 -47.5h162q10 0 10 9v155h-56q-10 0 -10 9v77q0 10 10 10h56v123q0 15 16 15h101q16 0 16 -15v-123h87q10 0 10 -10v-76q0 -10 -10 -10h-87v-495q0 -7 -1.5 -9.5t-8.5 -2.5h-113q-5 0 -7.5 2t-2.5 10v217q0 8 -10 8h-104z" />
    <glyph glyph-name="uni0974" unicode="&#x974;" horiz-adv-x="1013" 
d="M408 237q16 -14 23 -36.5t7 -47.5q0 -45 -17 -76.5t-46 -51t-67.5 -28t-80.5 -8.5q-39 0 -70.5 7t-57 17t-44.5 22t-32 23q-7 5 -8.5 8.5t5.5 13.5l47 71q5 8 8.5 6l17.5 -10q31 -20 60.5 -30t61.5 -10q49 0 72.5 18.5t23.5 61.5q0 25 -5.5 40.5t-17.5 23.5t-30 10.5
t-42 2.5h-80q-11 0 -14 3.5t-3 14.5v71q0 11 3.5 13.5t14.5 2.5h88q30 0 44.5 14.5t14.5 46.5q0 35 -18 49.5t-52 14.5q-27 0 -49 -6.5t-42 -15.5q-10 -5 -13 -5.5t-8 7.5l-37 69q-5 8 -4.5 13.5t9.5 10.5q31 20 74 33t94 13q36 0 67 -8t54 -26t36.5 -48t13.5 -73
q0 -37 -14 -67.5t-45 -47.5h162q10 0 10 9v155h-63q-10 0 -10 9v77q0 10 10 10h331v124q0 15 16 15h103q16 0 16 -15v-124h87q10 0 10 -10v-77q0 -9 -10 -9h-87v-497q0 -10 -10 -10h-115q-10 0 -10 10v497h-135v-495q0 -7 -1.5 -9.5t-8.5 -2.5h-113q-5 0 -7.5 2t-2.5 10v217
q0 8 -10 8h-104z" />
    <glyph glyph-name="uni0975" unicode="&#x975;" horiz-adv-x="1016" 
d="M806 0q-10 0 -10 10v497h-141v-497q0 -5 -1.5 -7.5t-9.5 -2.5h-112q-10 0 -10 10v212q0 10 -4.5 12.5t-9.5 2.5h-100q16 -14 23 -36.5t7 -47.5q0 -45 -17 -76.5t-46 -51t-67.5 -28t-80.5 -8.5q-39 0 -70.5 7t-57 17t-44.5 22t-32 23q-7 5 -8.5 8.5t5.5 13.5l46 69
q5 7 9 7t15 -7q31 -20 62 -31t63 -11q49 0 72.5 18.5t23.5 61.5q0 27 -6 42t-19 23t-32 10t-45 2h-73q-11 0 -14 3.5t-3 14.5v71q0 11 3.5 13.5t14.5 2.5h64q21 0 36.5 2t26 8.5t15.5 18.5t5 32q0 35 -18 49.5t-52 14.5q-27 0 -49.5 -6.5t-41.5 -15.5q-10 -5 -13 -5.5
t-8 7.5l-37 69q-5 8 -4.5 13.5t9.5 10.5q31 20 74 33t94 13q36 0 67 -8t54 -26t36.5 -48t13.5 -73q0 -37 -14 -67.5t-45 -47.5h157q7 0 11 2.5t4 12.5v149h-63q-10 0 -10 9v77q0 10 10 10h346q-4 16 -10.5 25.5t-18 15t-29.5 7t-44 1.5h-90q-40 0 -71.5 3t-53 16.5t-33 40
t-11.5 73.5q0 9 11 9h88q10 0 10 -9q0 -14 3.5 -23t12 -14t23.5 -6.5t38 -1.5h92q14 -1 31 -3t34 -9.5t32.5 -22t26.5 -38.5q-8 48 -21.5 75.5t-32.5 41.5t-43 17.5t-51 3.5h-29q-61 0 -100.5 4t-62.5 18t-32 40.5t-9 71.5q0 9 11 9h91q10 0 10 -9q0 -18 2.5 -27.5
t11.5 -14.5t27 -6t49 -1h58q61 0 99.5 -19.5t60 -56.5t29.5 -90.5t9 -120.5h95q10 0 10 -10v-77q0 -9 -10 -9h-87v-497q0 -10 -10 -10h-115z" />
    <glyph glyph-name="uni0976" unicode="&#x976;" horiz-adv-x="743" 
d="M408 237q16 -14 23 -36.5t7 -47.5q0 -45 -17 -76.5t-46 -51t-67.5 -28t-80.5 -8.5q-39 0 -70.5 7t-57 17t-44.5 22t-32 23q-7 5 -8.5 8.5t5.5 13.5l47 71q5 8 8.5 6l17.5 -10q31 -20 60.5 -30t61.5 -10q49 0 72.5 18.5t23.5 61.5q0 25 -5.5 40.5t-17.5 23.5t-30 10.5
t-42 2.5h-80q-11 0 -14 3.5t-3 14.5v71q0 11 3.5 13.5t14.5 2.5h88q30 0 44.5 14.5t14.5 46.5q0 35 -18 49.5t-52 14.5q-27 0 -49 -6.5t-42 -15.5q-10 -5 -13 -5.5t-8 7.5l-37 69q-5 8 -4.5 13.5t9.5 10.5q31 20 74 33t94 13q36 0 67 -8t54 -26t36.5 -48t13.5 -73
q0 -37 -14 -67.5t-45 -47.5h162q10 0 10 9v155h-56q-10 0 -10 9v77q0 10 10 10h276q10 0 10 -10v-76q0 -10 -10 -10h-87v-495q0 -7 -1.5 -9.5t-8.5 -2.5h-113q-5 0 -7.5 2t-2.5 10v217q0 8 -10 8h-104zM601 -99q-13 -39 -36 -63t-52.5 -38t-64 -19t-70.5 -5q-37 0 -72 4.5
t-65 18.5t-53.5 38.5t-35.5 65.5q-2 8 1.5 11t8.5 5l76 20q6 2 9.5 1t8.5 -12q14 -34 45.5 -49.5t74.5 -15.5q44 0 74 13.5t50 51.5q5 10 8.5 11t10.5 -1l72 -21q5 -2 8.5 -5t1.5 -11z" />
    <glyph glyph-name="uni0977" unicode="&#x977;" horiz-adv-x="743" 
d="M408 237q16 -14 23 -36.5t7 -47.5q0 -45 -17 -76.5t-46 -51t-67.5 -28t-80.5 -8.5q-39 0 -70.5 7t-57 17t-44.5 22t-32 23q-7 5 -8.5 8.5t5.5 13.5l47 71q5 8 8.5 6l17.5 -10q31 -20 60.5 -30t61.5 -10q49 0 72.5 18.5t23.5 61.5q0 25 -5.5 40.5t-17.5 23.5t-30 10.5
t-42 2.5h-80q-11 0 -14 3.5t-3 14.5v71q0 11 3.5 13.5t14.5 2.5h88q30 0 44.5 14.5t14.5 46.5q0 35 -18 49.5t-52 14.5q-27 0 -49 -6.5t-42 -15.5q-10 -5 -13 -5.5t-8 7.5l-37 69q-5 8 -4.5 13.5t9.5 10.5q31 20 74 33t94 13q36 0 67 -8t54 -26t36.5 -48t13.5 -73
q0 -37 -14 -67.5t-45 -47.5h162q10 0 10 9v155h-56q-10 0 -10 9v77q0 10 10 10h276q10 0 10 -10v-76q0 -10 -10 -10h-87v-495q0 -7 -1.5 -9.5t-8.5 -2.5h-113q-5 0 -7.5 2t-2.5 10v217q0 8 -10 8h-104zM601 -99q-13 -39 -36 -63t-52.5 -38t-64 -19t-70.5 -5q-37 0 -72 4.5
t-65 18.5t-53.5 38.5t-35.5 65.5q-2 8 1.5 11t8.5 5l76 20q6 2 9.5 1t8.5 -12q14 -34 45.5 -49.5t74.5 -15.5q44 0 74 13.5t50 51.5q5 10 8.5 11t10.5 -1l72 -21q5 -2 8.5 -5t1.5 -11zM601 -273q-13 -39 -36 -63t-52.5 -38t-64 -19t-70.5 -5q-37 0 -72 4.5t-65 18.5
t-53.5 38.5t-35.5 65.5q-2 8 1.5 11t8.5 5l76 20q6 2 9.5 1t8.5 -12q14 -34 45.5 -49.5t74.5 -15.5q44 0 74 13.5t50 51.5q5 10 8.5 11t10.5 -1l72 -21q5 -2 8.5 -5t1.5 -11z" />
    <glyph glyph-name="uni0979" unicode="&#x979;" horiz-adv-x="745" 
d="M527 439v68h-530q-9 0 -9 10v77q0 9 9 9h748q9 0 9 -10v-77q0 -9 -9 -9h-84v-497q0 -10 -10 -10h-114q-10 0 -10 10v309q0 10 -10 10h-110q18 -15 32 -41t14 -65q0 -53 -17 -87.5t-45 -54.5t-63.5 -28.5t-72.5 -8.5q-48 0 -84.5 13t-64 32t-48 41.5t-36.5 40.5q-6 8 1 15
l71 62q3 2 6 2.5t8 -4.5q13 -15 27 -30.5t30.5 -28t35.5 -21t41 -8.5q48 0 64 22.5t16 67.5t-14.5 63t-58.5 18h-53q-10 0 -10 8v85q0 8 10 8h321q10 0 10 9zM300 -116q-16 0 -16 14v105q0 15 16 15h97q16 0 16 -15v-105q0 -14 -16 -14h-97zM90 -116q-16 0 -16 14v105
q0 15 16 15h97q16 0 16 -15v-105q0 -14 -16 -14h-97zM196 -281q-16 0 -16 14v105q0 15 16 15h97q16 0 16 -15v-105q0 -14 -16 -14h-97z" />
    <glyph glyph-name="uni097A" unicode="&#x97a;" horiz-adv-x="645" 
d="M431 0q-10 0 -10 10v73q-24 -8 -49.5 -11t-49.5 -3q-98 0 -163.5 24.5t-94.5 93.5q-14 34 -16.5 74.5t-2.5 86.5q0 10 3 13.5t14 3.5h16q26 0 43.5 1.5t28 9t15 23.5t4.5 46v62h-170q-10 0 -10 10v76q0 10 10 10h645q9 0 9 -10v-77q0 -9 -9 -9h-89v-497q0 -10 -10 -10
h-114zM331 178q33 0 68 9l-114 135q-13 -28 -39 -35t-68 -7q-1 -5 -1 -10.5v-10.5q3 -29 15 -45t32.5 -24t47.5 -10t59 -2zM298 429l123 -142v220h-123v-78z" />
    <glyph glyph-name="uni097B" unicode="&#x97b;" horiz-adv-x="708" 
d="M489 507h-82v-220q0 -95 -42 -136t-140 -41q-39 0 -71.5 6.5t-56.5 23.5t-37.5 46t-13.5 75q0 40 10.5 67.5t32 44t54.5 23.5t79 7h54v104h-277q-10 0 -10 10v76q0 10 10 10h712q10 0 10 -10v-76q0 -10 -10 -10h-87v-521q0 -8 -2.5 -10.5t-9.5 -2.5h-595q-9 0 -9 8v73
q0 8 9 8h460q12 0 12 13v432zM224 213q35 0 44 14.5t9 46.5v32h-47q-38 0 -49.5 -10.5t-11.5 -37.5q0 -25 13.5 -35t41.5 -10z" />
    <glyph glyph-name="uni097C" unicode="&#x97c;" horiz-adv-x="749" 
d="M207 422h316v84h-524q-10 0 -10 9v79q0 9 10 9h750q10 0 10 -10v-78q0 -9 -10 -9h-91v-531q0 -13 -12 -13h-595q-9 0 -9 8v73q0 8 9 8h457q15 0 15 13v264h-113q15 -13 24.5 -35.5t9.5 -58.5q0 -43 -17.5 -70t-44 -42.5t-58 -21.5t-60.5 -6q-40 0 -74 9.5t-62.5 25.5
t-51.5 36.5t-42 42.5q-6 8 2 16l70 59q7 6 15 -2q32 -33 64.5 -51.5t73.5 -18.5q29 0 43.5 14t14.5 46q0 36 -12.5 46.5t-46.5 10.5h-51q-9 0 -9 8v79q0 7 9 7z" />
    <glyph glyph-name="uni097D" unicode="&#x97d;" horiz-adv-x="572" 
d="M251 9q0 -9 -10 -9h-106q-10 0 -10 9v255q0 14 14 14h138q25 0 46 3t36 13.5t23.5 29.5t8.5 52q0 34 -8.5 54.5t-25 31t-40 13.5t-54.5 3q-38 0 -77 -12.5t-67 -32.5q-16 -10 -24 3l-44 73q-5 8 -6.5 12.5t5.5 9.5q51 38 113.5 55t122.5 17q116 0 177 -52.5t61 -170.5
q0 -113 -57 -161t-169 -48h-47v-162z" />
    <glyph glyph-name="uni097E" unicode="&#x97e;" horiz-adv-x="559" 
d="M257 374q-26 0 -35.5 -3.5t-9.5 -18.5q0 -8 2.5 -12.5t9.5 -6.5t20.5 -2.5t36.5 -0.5h57q36 0 66 -3.5t52 -16.5t34.5 -37t12.5 -66q0 -57 -22 -88.5t-55.5 -46.5t-73 -18t-74.5 -3q-36 0 -71 7t-66.5 19t-57.5 27.5t-44 32.5q-9 9 0 19l49 65q5 7 9.5 6t11.5 -6
q39 -31 84 -44t83 -13q49 0 73.5 6t24.5 34q0 23 -13 27.5t-42 4.5h-85q-45 0 -74 6.5t-46 20t-23.5 35t-6.5 51.5q0 37 10 59.5t29.5 35.5t48.5 17.5t66 4.5h79v41h-319q-10 0 -10 9v77q0 10 10 10h566q10 0 10 -10v-76q0 -10 -10 -10h-118v-120q0 -13 -10 -13h-179z
M498 15q9 0 9 -8v-70q0 -8 -9 -8h-451q-9 0 -9 7v71q0 8 9 8h451z" />
    <glyph glyph-name="uni097F" unicode="&#x97f;" horiz-adv-x="559" 
d="M362 234q2 5 2.5 11.5t0.5 10.5v87q-16 13 -37 22.5t-54 9.5q-13 0 -23.5 -1t-20.5 -4zM271 182q14 0 23.5 1.5t18.5 4.5l-132 140q-12 -16 -12 -51q0 -48 23.5 -71.5t78.5 -23.5zM365 57v58q-29 -17 -59 -22t-68 -5q-45 0 -81 13.5t-61 38.5t-38 59.5t-13 76.5
q0 45 10.5 81t35 60.5t65 38t100.5 13.5q27 0 56 -5.5t53 -16.5v60h-370q-10 0 -10 10v77q0 9 10 9h564q10 0 10 -10v-77q0 -9 -10 -9h-67v-539q0 -6 -4.5 -9.5t-10.5 -3.5h-446q-9 0 -9 8v73q0 8 9 8h323q11 0 11 13z" />
    <glyph glyph-name="uni200C" unicode="&#x200c;" horiz-adv-x="40" 
d="M40 -396h-40v1457h40v-1457z" />
    <glyph glyph-name="uni200D" unicode="&#x200d;" horiz-adv-x="40" 
d="M0 -396v1427l-65 -65l-23 24l83 83l-83 84l23 23l84 -83l83 83l24 -23l-83 -84l83 -83l-24 -24l-62 64v-1426h-40z" />
    <glyph glyph-name="endash" unicode="&#x2013;" horiz-adv-x="535" 
d="M30 207q-10 0 -10 10v97q0 10 10 10h475q10 0 10 -10v-97q0 -10 -10 -10h-475z" />
    <glyph glyph-name="emdash" unicode="&#x2014;" horiz-adv-x="894" 
d="M30 207q-10 0 -10 10v97q0 10 10 10h834q10 0 10 -10v-97q0 -10 -10 -10h-834z" />
    <glyph glyph-name="quoteleft" unicode="&#x2018;" horiz-adv-x="231" 
d="M66 472q-10 0 -10 10v105q0 13 9 21l83 67q8 7 16 7q11 0 11 -11v-189q0 -10 -10 -10h-99z" />
    <glyph glyph-name="quoteright" unicode="&#x2019;" horiz-adv-x="231" 
d="M67 470q-11 0 -11 11v189q0 10 10 10h99q10 0 10 -10v-105q0 -13 -9 -21l-83 -67q-8 -7 -16 -7z" />
    <glyph glyph-name="quotesinglbase" unicode="&#x201a;" horiz-adv-x="231" 
d="M67 -90q-11 0 -11 11v189q0 10 10 10h99q10 0 10 -10v-104q0 -14 -9 -22l-83 -66q-8 -8 -16 -8z" />
    <glyph glyph-name="quotedblleft" unicode="&#x201c;" horiz-adv-x="417" 
d="M252 472q-10 0 -10 10v105q0 13 9 21l83 67q8 7 16 7q11 0 11 -11v-189q0 -10 -10 -10h-99zM66 472q-10 0 -10 10v105q0 13 9 21l83 67q8 7 16 7q11 0 11 -11v-189q0 -10 -10 -10h-99z" />
    <glyph glyph-name="quotedblright" unicode="&#x201d;" horiz-adv-x="417" 
d="M253 470q-11 0 -11 11v189q0 10 10 10h99q10 0 10 -10v-105q0 -13 -9 -21l-83 -67q-8 -7 -16 -7zM67 470q-11 0 -11 11v189q0 10 10 10h99q10 0 10 -10v-105q0 -13 -9 -21l-83 -67q-8 -7 -16 -7z" />
    <glyph glyph-name="quotedblbase" unicode="&#x201e;" horiz-adv-x="417" 
d="M253 -90q-11 0 -11 11v189q0 10 10 10h99q10 0 10 -10v-104q0 -14 -9 -22l-83 -66q-8 -8 -16 -8zM67 -90q-11 0 -11 11v189q0 10 10 10h99q10 0 10 -10v-104q0 -14 -9 -22l-83 -66q-8 -8 -16 -8z" />
    <glyph glyph-name="dagger" unicode="&#x2020;" horiz-adv-x="548" 
d="M216 -180q-10 0 -10 10v503q0 6 -6 6h-144q-10 0 -10 10v102q0 10 10 10h144q6 0 6 6v203q0 10 10 10h116q10 0 10 -10v-203q0 -6 6 -6h144q10 0 10 -10v-102q0 -10 -10 -10h-144q-6 0 -6 -6v-503q0 -10 -10 -10h-116z" />
    <glyph glyph-name="daggerdbl" unicode="&#x2021;" horiz-adv-x="548" 
d="M216 -180q-10 0 -10 10v170q0 6 -6 6h-144q-10 0 -10 10v102q0 10 10 10h144q6 0 6 6v232q0 6 -6 6h-144q-10 0 -10 10v102q0 10 10 10h144q6 0 6 6v170q0 10 10 10h116q10 0 10 -10v-170q0 -6 6 -6h144q10 0 10 -10v-102q0 -10 -10 -10h-144q-6 0 -6 -6v-232q0 -6 6 -6
h144q10 0 10 -10v-102q0 -10 -10 -10h-144q-6 0 -6 -6v-170q0 -10 -10 -10h-116z" />
    <glyph glyph-name="bullet" unicode="&#x2022;" horiz-adv-x="475" 
d="M237 158q-33 0 -60.5 11t-47.5 31t-31 47.5t-11 60.5t11 60.5t31 48t47.5 31.5t60.5 11t60.5 -11t48 -31.5t31.5 -48t11 -60.5t-11 -60.5t-31.5 -47.5t-48 -31t-60.5 -11z" />
    <glyph glyph-name="ellipsis" unicode="&#x2026;" horiz-adv-x="777" 
d="M588 0q-10 0 -10 10v120q0 10 10 10h119q10 0 10 -10v-120q0 -10 -10 -10h-119zM329 0q-10 0 -10 10v120q0 10 10 10h119q10 0 10 -10v-120q0 -10 -10 -10h-119zM70 0q-10 0 -10 10v120q0 10 10 10h119q10 0 10 -10v-120q0 -10 -10 -10h-119z" />
    <glyph glyph-name="perthousand" unicode="&#x2030;" horiz-adv-x="1136" 
d="M163 -11q-5 0 -6 3t1 7l395 682q6 10 16 10h84q5 0 6 -3t-1 -7l-395 -682q-6 -10 -16 -10h-84zM198 330q-48 0 -82 22t-47 60q-2 7 -4 14.5t-3 18t-1.5 25.5t-0.5 39t0.5 39t1.5 25.5t3 17.5t4 15q13 38 47 60t82 22q49 0 83 -22t46 -60q3 -8 4.5 -15t2.5 -17.5
t1.5 -25.5t0.5 -39t-0.5 -39t-1.5 -25.5t-2.5 -18t-4.5 -14.5q-12 -38 -46 -60t-83 -22zM198 409q27 0 36 23q1 3 1.5 7t1 12t0.5 21.5v36.5v36.5t-0.5 21.5t-1 12t-1.5 7q-9 23 -36 23q-12 0 -21.5 -6t-13.5 -17q-1 -3 -2 -7t-1.5 -12t-0.5 -21.5v-36.5v-36.5t0.5 -21.5
t1.5 -12t2 -7q4 -11 13.5 -17t21.5 -6zM938 -9q-49 0 -83 22.5t-46 60.5q-3 7 -4.5 14.5t-2.5 18t-1.5 25.5t-0.5 38q0 24 0.5 39t1.5 25.5t2.5 17.5t4.5 15q12 38 46 60t83 22q48 0 82 -22t46 -60q3 -8 4.5 -15t3 -17.5t2 -25.5t0.5 -39q0 -23 -0.5 -38t-2 -25.5t-3 -18
t-4.5 -14.5q-12 -38 -46 -60.5t-82 -22.5zM616 -9q-48 0 -82 22.5t-47 60.5q-2 7 -4 14.5t-3 18t-1.5 25.5t-0.5 38q0 24 0.5 39t1.5 25.5t3 17.5t4 15q13 38 47 60t82 22q49 0 82.5 -22t46.5 -60q3 -8 4.5 -15t2.5 -17.5t1.5 -25.5t0.5 -39q0 -23 -0.5 -38t-1.5 -25.5
t-2.5 -18t-4.5 -14.5q-13 -38 -46.5 -60.5t-82.5 -22.5zM938 70q12 0 21.5 6t13.5 18q1 3 2 6.5t1.5 11.5t0.5 21.5v36.5v36.5t-0.5 21.5t-1.5 12t-2 7q-4 11 -13.5 17t-21.5 6q-28 0 -36 -23q-1 -3 -1.5 -7t-1 -12t-0.5 -21.5v-36.5v-36.5t0.5 -21.5t1 -11.5t1.5 -6.5
q4 -12 13.5 -18t22.5 -6zM616 70q27 0 35 24q1 3 2 6.5t1.5 11.5t0.5 21.5v36.5v36.5t-0.5 21.5t-1.5 12t-2 7q-8 23 -35 23t-35 -23q-1 -3 -2 -7t-1.5 -12t-0.5 -21.5v-36.5v-36.5t0.5 -21.5t1.5 -11.5t2 -6.5q7 -24 35 -24z" />
    <glyph glyph-name="guilsinglleft" unicode="&#x2039;" horiz-adv-x="319" 
d="M28 257q-7 7 0 14l220 219q3 3 6.5 2t3.5 -6v-117q0 -6 -2 -10t-8 -10l-82 -81q-4 -4 0 -8l82 -81q10 -10 10 -20v-117q0 -5 -3.5 -6t-6.5 2z" />
    <glyph glyph-name="guilsinglright" unicode="&#x203a;" horiz-adv-x="319" 
d="M71 38q-3 -3 -6.5 -2t-3.5 6v117q0 10 10 20l82 81q4 4 0 8l-82 81q-6 6 -8 10t-2 10v117q0 5 3.5 6t6.5 -2l220 -219q7 -7 0 -14z" />
    <glyph glyph-name="fraction" unicode="&#x2044;" horiz-adv-x="166" 
d="M-162 -11q-5 0 -6 3t1 7l395 682q6 10 16 10h84q5 0 6 -3t-1 -7l-395 -682q-6 -10 -16 -10h-84z" />
    <glyph glyph-name="Euro" unicode="&#x20ac;" horiz-adv-x="556" 
d="M316 -11q-80 0 -134.5 36.5t-77.5 107.5q-7 20 -10.5 43t-3.5 55q0 6 -6 6h-36q-10 0 -10 10v62q0 10 10 10h36q6 0 6 6v34q0 6 -6 6h-36q-10 0 -10 10v62q0 10 10 10h36q6 0 6 6q0 29 3.5 51.5t10.5 42.5q23 71 77.5 107.5t134.5 36.5q78 0 127 -34t75 -87q4 -9 -5 -14
l-95 -44q-10 -3 -15 5q-15 27 -34.5 41.5t-50.5 14.5q-59 0 -79 -59q-3 -10 -5 -24t-2 -37q0 -6 6 -6h166q10 0 10 -10l-10 -62q-1 -10 -10 -10h-156q-6 0 -6 -6v-34q0 -6 6 -6h146q10 0 10 -10l-10 -62q-1 -10 -10 -10h-136q-6 0 -6 -6q0 -26 2 -40.5t5 -24.5
q20 -59 79 -59q31 0 50.5 14.5t34.5 41.5q5 8 15 5l95 -44q9 -5 5 -14q-26 -53 -75 -87t-127 -34z" />
    <glyph glyph-name="uni20B9" unicode="&#x20b9;" horiz-adv-x="633" 
d="M559 618q8 0 8 -8v-76q0 -7 -8 -7h-127q14 -8 24 -23t15 -32h88q8 0 8 -7v-77q0 -7 -8 -7h-79q-9 -74 -60.5 -111t-157.5 -37h-31l209 -163q11 -7 1 -19q-9 -11 -16 -19.5t-14.5 -17t-15.5 -17t-18 -20.5t-21 -1l-243 242q-3 3 -3.5 4.5t-0.5 5.5v87q0 7 5 7h117
q51 0 78 13.5t35 45.5h-290q-8 0 -8 6v78q0 7 8 7h291q-8 31 -31.5 43t-70.5 12h-189q-8 0 -8 6v77q0 8 8 8h505z" />
    <glyph glyph-name="uni2113" unicode="&#x2113;" horiz-adv-x="461" 
d="M89 139q-8 -5 -14 2l-45 64q-5 9 2 14l87 65v191q0 100 39.5 158t122.5 58q65 0 104 -40t39 -112q0 -77 -45.5 -151t-130.5 -148v-86q0 -28 11 -40t30 -12q15 0 28.5 6.5t26.5 17.5q9 6 14 -2l45 -65q5 -6 -3 -14q-26 -25 -63.5 -40.5t-75.5 -15.5q-72 0 -107 41.5
t-35 121.5v9zM248 380q33 36 51.5 76.5t18.5 83.5q0 25 -8.5 39t-23.5 14q-18 0 -28 -19t-10 -77v-117z" />
    <glyph glyph-name="trademark" unicode="&#x2122;" horiz-adv-x="846" 
d="M715 286q-10 0 -10 10v194h-2l-62 -138q-5 -10 -13 -10h-47q-8 0 -13 10l-62 138h-3v-194q0 -10 -10 -10h-69q-10 0 -10 10v374q0 10 10 10h68q9 0 14 -10l98 -216h3l96 216q5 10 15 10h66q10 0 10 -10v-374q0 -10 -10 -10h-69zM159 286q-10 0 -10 10v294q0 6 -6 6h-96
q-10 0 -10 10v64q0 10 10 10h300q10 0 10 -10v-64q0 -10 -10 -10h-95q-6 0 -6 -6v-294q0 -10 -10 -10h-77z" />
    <glyph glyph-name="estimated" unicode="&#x212e;" horiz-adv-x="586" 
d="M292 -11q-54 0 -97.5 20t-74 54.5t-47.5 80.5t-17 99t17 99t47.5 80t74 53.5t97.5 19.5q53 0 97 -18.5t75 -52t48.5 -80t17.5 -101.5h-370v-167q52 -52 132 -52q57 0 99.5 26t76.5 84l33 -21q-21 -32 -43 -55.5t-46.5 -38.5t-54 -22.5t-65.5 -7.5zM426 409
q-29 27 -62.5 41.5t-71.5 14.5q-79 0 -132 -56v-133h266v133z" />
    <glyph glyph-name="partialdiff" unicode="&#x2202;" horiz-adv-x="549" 
d="M250 -11q-48 0 -87 15.5t-66 43.5t-42 66.5t-15 83.5q0 46 15 86.5t42.5 70.5t66 47t86.5 17q35 0 68 -11t59 -35h1q0 44 -9 81t-25.5 63.5t-40.5 41.5t-56 15q-29 0 -53.5 -11t-47.5 -28q-8 -5 -14 3l-51 75q-4 7 2 15q31 26 76 44.5t96 18.5q117 0 185.5 -84.5
t68.5 -247.5q0 -78 -15.5 -145.5t-47.5 -117.5t-80.5 -78.5t-115.5 -28.5zM260 108q95 0 112 163q-20 17 -46 27t-56 10q-45 0 -72 -27.5t-27 -79.5q0 -42 24 -67.5t65 -25.5z" />
    <glyph glyph-name="product" unicode="&#x220f;" horiz-adv-x="668" 
d="M462 -180q-10 0 -10 10v773q0 6 -6 6h-224q-6 0 -6 -6v-773q0 -10 -10 -10h-127q-10 0 -10 10v900q0 10 10 10h510q10 0 10 -10v-900q0 -10 -10 -10h-127z" />
    <glyph glyph-name="summation" unicode="&#x2211;" horiz-adv-x="544" 
d="M44 -180q-10 0 -10 10v107q0 5 2 9l173 371l-168 291q-3 6 -3 11v111q0 10 10 10h442q10 0 10 -10v-111q0 -10 -10 -10h-286l157 -276q3 -7 0 -14l-170 -368h309q10 0 10 -10v-111q0 -10 -10 -10h-456z" />
    <glyph glyph-name="minus" unicode="&#x2212;" horiz-adv-x="556" 
d="M61 217q-10 0 -10 10v98q0 10 10 10h434q10 0 10 -10v-98q0 -10 -10 -10h-434z" />
    <glyph glyph-name="uni2215" unicode="&#x2215;" horiz-adv-x="166" 
d="M-162 -11q-5 0 -6 3t1 7l395 682q6 10 16 10h84q5 0 6 -3t-1 -7l-395 -682q-6 -10 -16 -10h-84z" />
    <glyph glyph-name="uni2219" unicode="&#x2219;" horiz-adv-x="259" 
d="M70 195q-10 0 -10 10v119q0 10 10 10h119q10 0 10 -10v-119q0 -10 -10 -10h-119z" />
    <glyph glyph-name="radical" unicode="&#x221a;" horiz-adv-x="649" 
d="M278 -180q-9 0 -13 10l-123 250q-3 6 -9 3l-57 -28q-10 -5 -13 4l-36 73q-5 9 4 13l159 77q10 5 14 -4l107 -225h3l196 737q3 10 12 10h106q11 0 8 -10l-249 -900q-3 -10 -13 -10h-96z" />
    <glyph glyph-name="infinity" unicode="&#x221e;" horiz-adv-x="753" 
d="M555 80q-48 0 -90.5 23t-88.5 70q-47 -48 -90.5 -70.5t-88.5 -22.5q-35 0 -65 12t-52 34t-34.5 52.5t-12.5 67.5t12.5 68t34.5 53t52.5 34t66.5 12q45 0 85.5 -22.5t91.5 -74.5q25 26 47.5 44.5t43.5 30t42.5 17t44.5 5.5q35 0 65.5 -12t53 -33.5t35 -52.5t12.5 -69
q0 -37 -12.5 -67.5t-34.5 -52.5t-52 -34t-66 -12zM550 172q35 0 53.5 22.5t18.5 53.5q0 30 -18.5 51.5t-53.5 21.5q-22 0 -46 -16t-64 -59q37 -41 61 -57.5t49 -16.5zM203 172q23 0 47 16.5t62 57.5q-37 42 -61.5 58.5t-47.5 16.5q-35 0 -53.5 -21.5t-18.5 -51.5
q0 -32 18.5 -54t53.5 -22z" />
    <glyph glyph-name="integral" unicode="&#x222b;" horiz-adv-x="430" 
d="M111 -180q-13 0 -27 0.5t-25 2.5q-10 2 -10 11v96q0 13 10 11q15 -3 32 -3q28 0 41 17t13 59v516q0 114 42.5 162t131.5 48q13 0 27 -0.5t25 -2.5q10 -2 10 -11v-96q0 -13 -10 -11q-15 3 -31 3q-29 0 -42 -17t-13 -59v-516q0 -114 -42.5 -162t-131.5 -48z" />
    <glyph glyph-name="approxequal" unicode="&#x2248;" horiz-adv-x="556" 
d="M510 399q-21 -47 -58.5 -76t-85.5 -29q-32 0 -55.5 9t-49.5 26q-19 12 -33.5 18.5t-31.5 6.5q-21 0 -36 -11.5t-29 -37.5q-5 -9 -15 -2l-67 41q-7 5 -3 14q21 47 58.5 76t85.5 29q32 0 55.5 -9t49.5 -26q19 -12 33.5 -18.5t31.5 -6.5q21 0 36 11.5t29 37.5q5 9 15 2
l67 -41q7 -4 3 -14zM510 192q-21 -47 -58.5 -76t-85.5 -29q-32 0 -55.5 9t-49.5 26q-19 12 -33.5 18.5t-31.5 6.5q-21 0 -36 -11.5t-29 -37.5q-5 -9 -15 -2l-67 41q-7 5 -3 14q21 47 58.5 76t85.5 29q32 0 55.5 -9t49.5 -26q19 -12 33.5 -18.5t31.5 -6.5q21 0 36 11.5
t29 37.5q5 9 15 2l67 -41q7 -4 3 -14z" />
    <glyph glyph-name="notequal" unicode="&#x2260;" horiz-adv-x="556" 
d="M105 4q-5 0 -6 3t1 7l48 98h-87q-10 0 -10 10v98q0 10 10 10h144l45 92h-189q-10 0 -10 10v98q0 10 10 10h247l48 98q5 10 15 10h80q5 0 6 -3t-1 -7l-48 -98h87q10 0 10 -10v-98q0 -10 -10 -10h-145l-45 -92h190q10 0 10 -10v-98q0 -10 -10 -10h-247l-48 -98
q-5 -10 -15 -10h-80z" />
    <glyph glyph-name="lessequal" unicode="&#x2264;" horiz-adv-x="556" 
d="M61 333q-10 3 -10 14v84q0 11 10 14l434 170q10 3 10 -6v-109q0 -9 -10 -13l-265 -97v-2l265 -97q10 -4 10 -13v-108q0 -10 -10 -7zM61 0q-10 0 -10 10v98q0 10 10 10h434q10 0 10 -10v-98q0 -10 -10 -10h-434z" />
    <glyph glyph-name="greaterequal" unicode="&#x2265;" horiz-adv-x="556" 
d="M61 163q-10 -3 -10 7v108q0 9 10 13l265 97v2l-265 97q-10 4 -10 13v109q0 9 10 6l434 -170q10 -3 10 -14v-84q0 -11 -10 -14zM61 0q-10 0 -10 10v98q0 10 10 10h434q10 0 10 -10v-98q0 -10 -10 -10h-434z" />
    <glyph glyph-name="lozenge" unicode="&#x25ca;" horiz-adv-x="563" 
d="M232 -52q-11 0 -15 10l-174 364q-3 7 0 14l174 364q4 10 15 10h99q11 0 15 -10l174 -364q3 -7 0 -14l-174 -364q-4 -10 -15 -10h-99zM393 329l-111 251h-2l-111 -251l113 -251h2z" />
    <glyph glyph-name="uni25CC" unicode="&#x25cc;" horiz-adv-x="706" 
d="M440 184q0 31 21 53t53 22t53.5 -22t21.5 -53q0 -32 -21.5 -53t-53.5 -21t-53 21t-21 53zM111 184q0 31 21 53t53 22t53.5 -22t21.5 -53q0 -32 -21.5 -53t-53.5 -21t-53 21t-21 53zM440 525q0 32 21 53t53 21t53.5 -21t21.5 -53t-21.5 -53t-53.5 -21t-53 21t-21 53z
M111 525q0 32 21 53t53 21t53.5 -21t21.5 -53t-21.5 -53t-53.5 -21t-53 21t-21 53zM516 355q0 31 21.5 52.5t53.5 21.5q30 0 52.5 -21.5t22.5 -52.5t-22.5 -52.5t-52.5 -21.5q-32 0 -53.5 21.5t-21.5 52.5zM35 355q0 31 21 52.5t53 21.5t53 -21.5t21 -52.5t-21 -52.5
t-53 -21.5t-53 21.5t-21 52.5zM276 101q0 31 21 52.5t53 21.5t53.5 -21.5t21.5 -52.5t-21.5 -52.5t-53.5 -21.5t-53 21.5t-21 52.5zM276 607q0 32 21 53.5t53 21.5t53.5 -21.5t21.5 -53.5q0 -31 -21.5 -52t-53.5 -21t-53 21t-21 52z" />
    <glyph glyph-name="uniF8FF" unicode="&#xf8ff;" horiz-adv-x="506" 
d="M10 0q-10 0 -10 10v660q0 10 10 10h486q10 0 10 -10v-660q0 -10 -10 -10h-486zM431 65q6 0 6 6v538q0 6 -6 6h-356q-6 0 -6 -6v-538q0 -6 6 -6h356zM209 243q-10 0 -10 10v24q0 19 5 30.5t14 23.5l46 60q12 16 17.5 27t5.5 25q0 18 -11 30t-30 12q-21 0 -32 -11t-16 -28
q-2 -11 -11 -9l-65 10q-10 0 -8 11q9 48 43.5 76.5t92.5 28.5q28 0 51.5 -9t40.5 -25t26 -37.5t9 -45.5q0 -46 -32 -82l-45 -60q-6 -8 -9.5 -16.5t-3.5 -21.5v-13q0 -10 -10 -10h-68zM208 114q-10 0 -10 10v67q0 10 10 10h71q10 0 10 -10v-67q0 -10 -10 -10h-71z" />
    <glyph glyph-name="uniFB01" unicode="&#xfb01;" horiz-adv-x="605" 
d="M91 0q-10 0 -10 10v365q0 6 -6 6h-30q-10 0 -10 10v83q0 10 10 10h30q6 0 6 6v23q0 89 41.5 128t128.5 39h55q10 0 10 -10v-94q0 -10 -10 -10h-31q-33 0 -44 -10.5t-11 -41.5v-24q0 -6 6 -6h79q10 0 10 -10v-83q0 -10 -10 -10h-79q-6 0 -6 -6v-365q0 -10 -10 -10h-119z
M412 561q-10 0 -10 10v99q0 10 10 10h120q10 0 10 -10v-99q0 -10 -10 -10h-120zM412 0q-10 0 -10 10v464q0 10 10 10h120q10 0 10 -10v-464q0 -10 -10 -10h-120z" />
    <glyph glyph-name="uniFB02" unicode="&#xfb02;" horiz-adv-x="643" 
d="M91 0q-10 0 -10 10v365q0 6 -6 6h-30q-10 0 -10 10v83q0 10 10 10h30q6 0 6 6v23q0 89 41.5 128t128.5 39h55q10 0 10 -10v-94q0 -10 -10 -10h-31q-33 0 -44 -10.5t-11 -41.5v-24q0 -6 6 -6h79q10 0 10 -10v-83q0 -10 -10 -10h-79q-6 0 -6 -6v-365q0 -10 -10 -10h-119z
M550 -6q-81 0 -115.5 36.5t-34.5 117.5v522q0 10 10 10h120q10 0 10 -10v-511q0 -25 10 -35.5t32 -10.5h21q10 0 10 -10v-99q0 -10 -10 -10h-53z" />
    <glyph glyph-name="uni0905_uni093C.nukt" horiz-adv-x="742" 
d="M184 -183q-15 0 -15 13v99q0 14 15 14h89q16 0 16 -14v-99q0 -13 -16 -13h-89zM408 237q16 -14 23 -36.5t7 -47.5q0 -45 -17 -76.5t-46 -51t-67.5 -28t-80.5 -8.5q-39 0 -70.5 7t-57 17t-44.5 22t-32 23q-7 5 -8.5 8.5t5.5 13.5l47 71q5 7 8.5 5.5t17.5 -9.5
q31 -20 60.5 -30t61.5 -10q49 0 72.5 18.5t23.5 61.5q0 25 -5.5 40.5t-17.5 23.5t-30 10.5t-42 2.5h-80q-11 0 -14 3.5t-3 14.5v71q0 11 3.5 13.5t14.5 2.5h88q30 0 44.5 14.5t14.5 46.5q0 35 -18 49.5t-52 14.5q-27 0 -49.5 -6t-41.5 -16q-10 -4 -13 -5t-8 7l-37 69
q-5 8 -4.5 13.5t9.5 10.5q31 20 74 33t94 13q36 0 67 -8t54 -26t36.5 -48t13.5 -73q0 -37 -14 -67.5t-45 -47.5h162q10 0 10 9v155h-56q-10 0 -10 9v77q0 10 10 10h276q10 0 10 -10v-76q0 -10 -10 -10h-87v-495q0 -7 -1.5 -9.5t-8.5 -2.5h-113q-5 0 -7.5 2t-2.5 10v217
q0 8 -10 8h-104z" />
    <glyph glyph-name="uni0906_uni093C.nukt" horiz-adv-x="1027" 
d="M181 -186q-15 0 -15 13v99q0 14 15 14h89q15 0 15 -14v-99q0 -13 -15 -13h-89zM815 0q-10 0 -10 10v497h-150v-495q0 -7 -1.5 -9.5t-8.5 -2.5h-113q-5 0 -7.5 2t-2.5 10v217q0 8 -10 8h-104q16 -14 23 -36.5t7 -47.5q0 -45 -17 -76.5t-46 -51t-67.5 -28t-80.5 -8.5
q-39 0 -70.5 7t-57 17t-44.5 22t-32 23q-7 5 -8.5 8.5t5.5 13.5l46 70q5 8 10 6.5t12 -6.5q30 -20 62.5 -31.5t64.5 -11.5q49 0 72.5 18.5t23.5 61.5q0 25 -5.5 40.5t-17.5 23.5t-30 10.5t-42 2.5h-80q-11 0 -14 3.5t-3 14.5v71q0 11 3.5 13.5t14.5 2.5h88q30 0 44.5 14.5
t14.5 46.5q0 35 -18 49.5t-52 14.5q-27 0 -49 -6.5t-42 -15.5q-10 -5 -13 -5.5t-8 7.5l-37 69q-5 8 -4.5 13.5t9.5 10.5q31 20 74 33t94 13q36 0 67 -8t54 -26t36.5 -48t13.5 -73q0 -37 -14 -67.5t-45 -47.5h162q10 0 10 9v155h-56q-10 0 -10 9v77q0 10 10 10h561
q10 0 10 -10v-77q0 -9 -10 -9h-88v-497q0 -10 -10 -10h-114z" />
    <glyph glyph-name="uni0907_uni093C.nukt" horiz-adv-x="558" 
d="M322 318q42 0 74.5 -7.5t54 -26.5t33 -52t11.5 -84q0 -49 -10.5 -82t-31 -53.5t-50.5 -29.5t-69 -10v-84q0 -6 -4 -6h-106q-8 0 -8 9v76q-77 0 -118 25t-41 92q0 50 33 82t101 32q75 0 107.5 -34t35.5 -109q18 2 28.5 22t10.5 59q0 42 -14 66t-55 24h-76q-46 0 -75 6.5
t-45.5 20t-23 35t-6.5 51.5q0 35 9 57t27 34.5t45.5 17t64.5 4.5h76v54h-299q-10 0 -10 9v77q0 10 10 10h550q9 0 9 -10v-76q0 -10 -10 -10h-119v-135q0 -13 -11 -13h-166q-27 0 -38.5 -2.5t-11.5 -16.5q0 -16 11.5 -19t51.5 -3h55zM167 86q0 -18 7 -24.5t24 -6.5h18v20
q0 22 -4 30.5t-21 8.5q-24 0 -24 -28zM377 -188q-15 0 -15 13v99q0 14 15 14h89q15 0 15 -14v-99q0 -13 -15 -13h-89z" />
    <glyph glyph-name="uni0908_uni093C.nukt" horiz-adv-x="556" 
d="M319 318q42 0 74.5 -7.5t54 -26.5t33 -52t11.5 -84q0 -49 -10.5 -82t-31 -53.5t-50.5 -29.5t-69 -10v-84q0 -6 -4 -6h-106q-8 0 -8 9v76q-77 0 -118 25t-41 92q0 50 33 82t101 32q75 0 107.5 -34t35.5 -109q18 2 28.5 22t10.5 59q0 42 -14 66t-55 24h-76q-46 0 -75 6.5
t-45.5 20t-23 35t-6.5 51.5q0 35 9 57t27 34.5t45.5 17t64.5 4.5h76v54h-299q-10 0 -10 9v77q0 10 10 10h277q-10 17 -16 37.5t-6 41.5q0 72 41.5 106t119.5 34q45 0 84 -17q8 -4 10 -8t-1 -13l-26 -69q-4 -11 -21 -6q-20 6 -38 6q-29 0 -38 -15.5t-9 -41.5q0 -23 10 -39
t36 -16h127q9 0 9 -10v-76q0 -10 -10 -10h-119v-135q0 -13 -11 -13h-166q-27 0 -38.5 -2.5t-11.5 -16.5q0 -16 11.5 -19t51.5 -3h55zM164 86q0 -18 7 -24.5t24 -6.5h18v20q0 22 -4 30.5t-21 8.5q-24 0 -24 -28zM392 -176q-15 0 -15 13v99q0 14 15 14h89q15 0 15 -14v-99
q0 -13 -15 -13h-89z" />
    <glyph glyph-name="uni0909_uni093C.nukt" horiz-adv-x="503" 
d="M390 455q0 -36 -15 -69t-56 -48q33 -8 53.5 -22.5t32.5 -35t16.5 -46.5t4.5 -57q0 -87 -49.5 -137t-149.5 -50q-40 0 -74 8t-62 19.5t-49.5 25t-34.5 25.5q-5 5 -5.5 9t4.5 11l51 66q5 8 9 6t13 -7q34 -20 65 -34t66 -14q55 0 73.5 25.5t18.5 66.5q0 25 -6.5 39.5
t-18.5 22t-30 10t-41 2.5h-68q-12 0 -15 4t-3 14v69q0 12 4 14t13 2h76q32 0 43 19.5t11 51.5q0 37 -13 49.5t-43 12.5h-213q-10 0 -10 9v77q0 10 10 10h504q9 0 9 -10v-76q0 -10 -9 -10h-122q10 -25 10 -52zM171 -174q-15 0 -15 13v99q0 14 15 14h89q15 0 15 -14v-99
q0 -13 -15 -13h-89z" />
    <glyph glyph-name="uni090A_uni093C.nukt" horiz-adv-x="699" 
d="M417 455q0 -36 -15 -69t-56 -48q29 -8 47 -19q16 22 41.5 35.5t64.5 13.5q88 0 129 -45t41 -127q0 -38 -13.5 -75.5t-36.5 -63.5q-6 -7 -13 -2l-81 51q-6 3 0 10q11 14 21 33t10 49q0 48 -16.5 65.5t-51.5 17.5q-34 0 -47 -20q7 -17 9.5 -38.5t2.5 -45.5
q0 -87 -49.5 -137t-149.5 -50q-40 0 -74 8t-62 19.5t-49.5 25t-34.5 25.5q-5 5 -5.5 9t4.5 11l51 66q5 8 9 6t13 -7q34 -20 65 -34t66 -14q55 0 73.5 25.5t18.5 66.5q0 25 -6.5 39.5t-18.5 22t-30 10t-41 2.5h-68q-12 0 -15 4t-3 14v69q0 12 4 14t13 2h76q32 0 43 19.5
t11 51.5q0 37 -13 49.5t-43 12.5h-213q-10 0 -10 9v77q0 10 10 10h674q9 0 9 -10v-76q0 -10 -9 -10h-292q10 -25 10 -52zM202 -167q-15 0 -15 13v99q0 14 15 14h89q15 0 15 -14v-99q0 -13 -15 -13h-89z" />
    <glyph glyph-name="uni090D_uni093C.nukt" horiz-adv-x="572" 
d="M403 -77q-44 29 -82 53.5t-72.5 46.5t-68 44t-68.5 47q-21 14 -32.5 24.5t-17 27t-6.5 44.5t-1 78v219h-59q-10 0 -10 10v76q0 10 10 10h575q9 0 9 -10v-77q0 -9 -9 -9h-74v-179q0 -46 -5 -77.5t-23.5 -51t-54.5 -28.5t-97 -9q-9 0 -13 2.5t-4 13.5v75q0 9 2.5 12.5
t12.5 3.5q19 0 30 2t16.5 9.5t7 22.5t1.5 42v162h-181v-225q0 -31 0.5 -48.5t2 -27t5.5 -14t10 -8.5q23 -17 54 -35.5t67 -38t75 -40.5t77 -43q12 -7 4 -21l-51 -82q-9 -16 -30 -1zM104 -128q-15 0 -15 13v99q0 14 15 14h89q15 0 15 -14v-99q0 -13 -15 -13h-89zM294 761
q46 0 76.5 16t30.5 61q0 10 2.5 13t12.5 3h90q11 0 11 -13q-1 -49 -19 -80.5t-49 -50t-71 -25.5t-84 -7q-41 0 -81 6t-72 23.5t-52 48.5t-21 81q0 12 3.5 14.5t11.5 2.5h89q6 0 9 -2.5t3 -14.5q1 -23 9 -38t22 -23.5t34 -11.5t45 -3z" />
    <glyph glyph-name="uni090E_uni093C.nukt" horiz-adv-x="572" 
d="M9 818q0 9 11 9h94q10 0 10 -9q0 -21 1.5 -32.5t8 -17t20.5 -6.5t40 -1h85q68 0 109.5 -4.5t64.5 -20.5t31 -47.5t9 -85.5h78q9 0 9 -10v-77q0 -9 -9 -9h-74v-179q0 -46 -5 -77.5t-23.5 -51t-54.5 -28.5t-97 -9q-9 0 -13 2.5t-4 13.5v75q0 9 2.5 12.5t12.5 3.5q19 0 30 2
t16.5 9.5t7 22.5t1.5 42v162h-181v-225q0 -31 0.5 -48.5t2 -27t5.5 -14t10 -8.5q23 -17 54 -35.5t67 -38t75 -40.5t77 -43q12 -7 4 -21l-51 -82q-9 -16 -30 -1q-44 29 -82 53.5t-72.5 46.5t-68 44t-68.5 47q-21 14 -32.5 24.5t-17 27t-6.5 44.5t-1 78v219h-59q-10 0 -10 10
v76q0 10 10 10h375q-1 24 -5 38t-15.5 21t-31.5 9t-53 2h-109q-50 0 -79 6t-44.5 22t-20 44.5t-4.5 72.5zM104 -128q-15 0 -15 13v99q0 14 15 14h89q15 0 15 -14v-99q0 -13 -15 -13h-89z" />
    <glyph glyph-name="uni090F_uni093C.nukt" horiz-adv-x="571" 
d="M403 -77q-44 29 -82 53.5t-72.5 46.5t-68 44t-68.5 47q-21 14 -32.5 24.5t-17 27t-6.5 44.5t-1 78v219h-59q-10 0 -10 10v76q0 10 10 10h575q9 0 9 -10v-77q0 -9 -9 -9h-74v-179q0 -46 -5 -77.5t-23.5 -51t-54.5 -28.5t-97 -9q-9 0 -13 2.5t-4 13.5v75q0 9 2.5 12.5
t12.5 3.5q19 0 30 2t16.5 9.5t7 22.5t1.5 42v162h-181v-225q0 -31 0.5 -48.5t2 -27t5.5 -14t10 -8.5q23 -17 54 -35.5t67 -38t75 -40.5t77 -43q12 -7 4 -21l-51 -82q-9 -16 -30 -1zM104 -128q-15 0 -15 13v99q0 14 15 14h89q15 0 15 -14v-99q0 -13 -15 -13h-89z" />
    <glyph glyph-name="uni0910_uni093C.nukt" horiz-adv-x="569" 
d="M407 -80q-44 29 -82.5 54t-74 47.5t-69.5 45t-69 47.5q-21 14 -32.5 24.5t-17 27t-6.5 44.5t-1 78v219h-59q-10 0 -10 10v76q0 10 10 10h375q-1 38 -7.5 59.5t-25.5 31.5t-53 12t-89 2h-109q-9 0 -11 3t-4 10l-13 83q-2 11 8 11h193q69 0 114.5 -14t72 -41t37.5 -66.5
t12 -90.5h75q9 0 9 -10v-77q0 -9 -9 -9h-74v-179q0 -46 -5.5 -77.5t-24.5 -51t-55.5 -28.5t-97.5 -9q-9 0 -11.5 2.5t-2.5 13.5v75q0 9 2.5 12.5t12.5 3.5q19 0 30 2t16.5 9.5t7 22.5t1.5 42v162h-181v-225q0 -31 0.5 -48.5t2 -27t5.5 -14t10 -8.5q23 -17 54 -35.5t67 -38
t75 -40.5t77 -43q12 -7 4 -21l-52 -83q-5 -7 -9.5 -9t-15.5 6zM104 -128q-15 0 -15 13v99q0 14 15 14h89q15 0 15 -14v-99q0 -13 -15 -13h-89z" />
    <glyph glyph-name="uni0911_uni093C.nukt" horiz-adv-x="1013" 
d="M800 0q-10 0 -10 10v497h-135v-495q0 -7 -1.5 -9.5t-8.5 -2.5h-113q-5 0 -7.5 2t-2.5 10v217q0 8 -10 8h-104q16 -14 23 -36.5t7 -47.5q0 -45 -17 -76.5t-46 -51t-67.5 -28t-80.5 -8.5q-39 0 -70.5 7t-57 17t-44.5 22t-32 23q-7 5 -8.5 8.5t5.5 13.5l46 70q5 8 10 6.5
t12 -6.5q30 -20 62.5 -31.5t64.5 -11.5q49 0 72.5 18.5t23.5 61.5q0 25 -5.5 40.5t-17.5 23.5t-30 10.5t-42 2.5h-80q-11 0 -14 3.5t-3 14.5v71q0 11 3.5 13.5t14.5 2.5h88q30 0 44.5 14.5t14.5 46.5q0 35 -18 49.5t-52 14.5q-27 0 -49 -6.5t-42 -15.5q-10 -5 -13 -5.5
t-8 7.5l-37 69q-5 8 -4.5 13.5t9.5 10.5q31 20 74 33t94 13q36 0 67 -8t54 -26t36.5 -48t13.5 -73q0 -37 -14 -67.5t-45 -47.5h162q10 0 10 9v155h-56q-10 0 -10 9v77q0 10 10 10h546q10 0 10 -10v-77q0 -9 -10 -9h-88v-497q0 -10 -10 -10h-114zM729 772q46 0 76.5 16
t30.5 61q0 10 2.5 13t12.5 3h90q11 0 11 -13q-1 -49 -19 -80.5t-49 -50t-71 -25.5t-84 -7q-41 0 -81 6t-72 23.5t-52 48.5t-21 81q0 12 3.5 14.5t11.5 2.5h89q6 0 9 -2.5t3 -14.5q1 -23 9 -38t22 -23.5t34 -11.5t45 -3zM171 -186q-15 0 -15 13v99q0 14 15 14h89q15 0 15 -14
v-99q0 -13 -15 -13h-89z" />
    <glyph glyph-name="uni0912_uni093C.nukt" horiz-adv-x="1004" 
d="M792 0q-10 0 -10 10v497h-127v-495q0 -7 -1.5 -9.5t-8.5 -2.5h-113q-5 0 -7.5 2t-2.5 10v217q0 8 -10 8h-104q16 -14 23 -36.5t7 -47.5q0 -45 -17 -76.5t-46 -51t-67.5 -28t-80.5 -8.5q-39 0 -70.5 7t-57 17t-44.5 22t-32 23q-7 5 -8.5 8.5t5.5 13.5l46 70q5 8 10 6.5
t12 -6.5q30 -20 62.5 -31.5t64.5 -11.5q49 0 72.5 18.5t23.5 61.5q0 25 -5.5 40.5t-17.5 23.5t-30 10.5t-42 2.5h-80q-11 0 -14 3.5t-3 14.5v71q0 11 3.5 13.5t14.5 2.5h88q30 0 44.5 14.5t14.5 46.5q0 35 -18 49.5t-52 14.5q-27 0 -49 -6.5t-42 -15.5q-10 -5 -13 -5.5
t-8 7.5l-37 69q-5 8 -4.5 13.5t9.5 10.5q31 20 74 33t94 13q36 0 67 -8t54 -26t36.5 -48t13.5 -73q0 -37 -14 -67.5t-45 -47.5h162q10 0 10 9v155h-56q-10 0 -10 9v77q0 10 10 10h320q-1 24 -5 38t-15.5 21t-31.5 9t-53 2h-109q-50 0 -79 6t-44.5 22t-20 44.5t-4.5 72.5
q0 9 11 9h94q10 0 10 -9q0 -21 1.5 -32.5t8 -17t20.5 -6.5t40 -1h85q68 0 109.5 -4.5t64.5 -20.5t31 -47.5t9 -85.5h96q10 0 10 -10v-77q0 -9 -10 -9h-88v-497q0 -10 -10 -10h-114zM181 -186q-15 0 -15 13v99q0 14 15 14h89q15 0 15 -14v-99q0 -13 -15 -13h-89z" />
    <glyph glyph-name="uni0913_uni093C.nukt" horiz-adv-x="1005" 
d="M786 0q-10 0 -10 10v497h-131v-495q0 -7 -1.5 -9.5t-8.5 -2.5h-113q-5 0 -7.5 2t-2.5 10v217q0 8 -10 8h-104q16 -14 23 -36.5t7 -47.5q0 -45 -17 -76.5t-46 -51t-67.5 -28t-80.5 -8.5q-39 0 -70.5 7t-57 17t-44.5 22t-32 23q-7 5 -8.5 8.5t5.5 13.5l46 70q5 8 10 6.5
t12 -6.5q30 -20 62.5 -31.5t64.5 -11.5q49 0 72.5 18.5t23.5 61.5q0 25 -5.5 40.5t-17.5 23.5t-30 10.5t-42 2.5h-80q-11 0 -14 3.5t-3 14.5v71q0 11 3.5 13.5t14.5 2.5h88q30 0 44.5 14.5t14.5 46.5q0 35 -18 49.5t-52 14.5q-27 0 -49 -6.5t-42 -15.5q-10 -5 -13 -5.5
t-8 7.5l-37 69q-5 8 -4.5 13.5t9.5 10.5q31 20 74 33t94 13q36 0 67 -8t54 -26t36.5 -48t13.5 -73q0 -37 -14 -67.5t-45 -47.5h162q10 0 10 9v155h-56q-10 0 -10 9v77q0 10 10 10h324q0 30 -4 51.5t-16.5 35t-35.5 19.5t-61 6h-142q-9 0 -10 6l-10 79q-3 12 7 12h166
q72 0 116.5 -14t70 -40.5t34.5 -65.5t9 -89h99q10 0 10 -10v-77q0 -9 -10 -9h-92v-497q0 -10 -10 -10h-115zM181 -186q-15 0 -15 13v99q0 14 15 14h89q15 0 15 -14v-99q0 -13 -15 -13h-89z" />
    <glyph glyph-name="uni0914_uni093C.nukt" horiz-adv-x="1009" 
d="M1010 603q7 0 8.5 -2t1.5 -8v-77q0 -9 -10 -9h-89v-497q0 -10 -13 -10h-22h-89q-10 0 -10 10v497h-132v-495q0 -7 -1.5 -9.5t-8.5 -2.5h-113q-5 0 -7.5 2t-2.5 10v217q0 8 -10 8h-104q16 -14 23 -36.5t7 -47.5q0 -45 -17 -76.5t-46 -51t-67.5 -28t-80.5 -8.5
q-39 0 -70.5 7t-57 17t-44.5 22t-32 23q-7 5 -8.5 8.5t5.5 13.5l46 70q5 8 10 6.5t12 -6.5q30 -20 62.5 -31.5t64.5 -11.5q49 0 72.5 18.5t23.5 61.5q0 25 -5.5 40.5t-17.5 23.5t-30 10.5t-42 2.5h-80q-11 0 -14 3.5t-3 14.5v71q0 11 3.5 13.5t14.5 2.5h88q30 0 44.5 14.5
t14.5 46.5q0 35 -18 49.5t-52 14.5q-27 0 -49 -6.5t-42 -15.5q-10 -5 -13 -5.5t-8 7.5l-37 69q-5 8 -4.5 13.5t9.5 10.5q31 20 74 33t94 13q36 0 67 -8t54 -26t36.5 -48t13.5 -73q0 -37 -14 -67.5t-45 -47.5h162q10 0 10 9v155h-56q-10 0 -10 9v77q0 10 10 10h335
q-26 37 -64.5 46t-88.5 9h-113q-7 0 -9 8l-10 68q-1 8 9 8h90q80 0 132.5 -16t87.5 -65q-11 47 -26 73.5t-41 39t-68.5 15.5t-108.5 3h-75q-8 0 -9 8l-11 68q-1 10 6 10h179q75 0 120 -17.5t69.5 -52t33 -86t8.5 -119.5h98zM181 -186q-15 0 -15 13v99q0 14 15 14h89
q15 0 15 -14v-99q0 -13 -15 -13h-89z" />
    <glyph glyph-name="uni0918_uni093C.nukt" horiz-adv-x="614" 
d="M400 0q-10 0 -10 10v75q-20 -13 -55 -22t-81 -9q-42 0 -80 7.5t-66.5 26t-45.5 49.5t-17 78q0 48 26 82t74 45q-52 8 -73 37.5t-21 66.5t15 61h-68q-10 0 -10 10v76q0 10 10 10h617q9 0 9 -10v-77q0 -9 -9 -9h-91v-497q0 -10 -10 -10h-114zM277 159q36 0 58 6.5
t34.5 21.5t16.5 40t4 63v217h-142q-23 0 -36 -4t-20 -11t-8.5 -18t-1.5 -24q0 -24 13.5 -38t45.5 -14h47q14 0 14 -13v-74q0 -9 -11 -9h-43q-20 0 -33.5 -5.5t-21 -14t-10.5 -19.5t-3 -23q0 -42 20.5 -61.5t76.5 -19.5zM199 -118q-15 0 -15 13v99q0 14 15 14h89q15 0 15 -14
v-99q0 -13 -15 -13h-89z" />
    <glyph glyph-name="uni0919_uni093C.nukt" horiz-adv-x="729" 
d="M251 355q-29 0 -39.5 -4t-10.5 -22q0 -11 2 -17.5t9 -9.5t21.5 -4t40.5 -1h54q36 0 67 -2.5t53.5 -14.5t35 -36t12.5 -67q0 -62 -22.5 -98.5t-56.5 -55.5t-74 -24.5t-74 -5.5q-37 0 -73 7.5t-67.5 19.5t-57.5 28t-44 34q-7 6 -6 11t4 9l50 63q5 8 9.5 7t11.5 -6
q41 -33 86 -46.5t85 -13.5q44 0 72 10t28 46q0 28 -14 34t-49 6h-79q-48 0 -77.5 8.5t-46 24.5t-22.5 39.5t-6 53.5q0 35 9 58.5t27.5 37t46.5 19t65 5.5h85v59h-308q-10 0 -10 9v77q0 10 10 10h733q10 0 10 -10v-76q0 -10 -10 -10h-294v-139q0 -13 -11 -13h-175zM557 176
q-15 0 -15 15v104q0 14 15 14h98q16 0 16 -14v-104q0 -15 -16 -15h-98zM235 -183q-15 0 -15 13v99q0 14 15 14h89q15 0 15 -14v-99q0 -13 -15 -13h-89z" />
    <glyph glyph-name="uni091A_uni093C.nukt" horiz-adv-x="639" 
d="M352 413q9 0 9 -8v-81q0 -8 -9 -8h-52q-23 0 -37 -6.5t-21.5 -16.5t-10 -22.5t-2.5 -24.5q0 -36 20 -58t69 -22q51 0 78.5 18t27.5 66v257h-426q-10 0 -10 10v76q0 10 10 10h642q9 0 9 -10v-77q0 -9 -9 -9h-82v-497q0 -7 -2 -8.5t-9 -1.5h-113q-10 0 -10 10v77
q-24 -15 -61 -21t-73 -6q-35 0 -69 7.5t-61 25t-43.5 46t-16.5 70.5q0 32 13.5 61t39.5 46h-103q-9 0 -9 7v82q0 8 9 8h302zM234 -120q-15 0 -15 13v99q0 14 15 14h89q15 0 15 -14v-99q0 -13 -15 -13h-89z" />
    <glyph glyph-name="uni091B_uni093C.nukt" horiz-adv-x="681" 
d="M339 -12q-147 0 -220 50.5t-73 150.5q0 52 24 90t74 52q-45 9 -66 39t-21 72q0 39 18 65h-79q-10 0 -10 10v76q0 10 10 10h687q10 0 10 -10v-77q0 -9 -10 -9h-124v-66q44 -17 59.5 -60.5t15.5 -112.5q0 -60 -12 -111t-44.5 -88.5t-90 -59t-148.5 -21.5zM334 324
q0 22 4.5 42.5t16 37.5t30.5 29t48 18v56h-178q-40 0 -57.5 -15t-17.5 -45q0 -28 13.5 -46t47.5 -18h33q8 0 10.5 -2.5t2.5 -9.5v-79q0 -8 -10 -8h-26q-45 0 -60 -23.5t-15 -57.5q0 -31 10.5 -51.5t30.5 -32.5t50.5 -17t69.5 -5q49 0 81.5 5.5t52 17.5t29 31.5t13.5 48.5
q-14 -1 -25.5 -1h-22.5q-66 1 -98.5 30.5t-32.5 94.5zM523 281q1 6 1 12.5v11.5q0 17 -0.5 31t-5 24t-13.5 15.5t-25 5.5q-33 0 -40.5 -16t-7.5 -38q0 -8 2 -16.5t7.5 -15t16 -10.5t27.5 -4h38zM282 -186q-15 0 -15 13v99q0 14 15 14h89q15 0 15 -14v-99q0 -13 -15 -13h-89z
" />
    <glyph glyph-name="uni091D_uni093C.nukt" horiz-adv-x="801" 
d="M487 169q1 -8 1 -15.5v-14.5q0 -49 -11.5 -80.5t-33.5 -50.5t-52.5 -26.5t-69.5 -8.5v-84q0 -6 -4 -6h-106q-8 0 -8 9v76q-77 0 -118 25t-41 92q0 51 34 81t103 30q71 0 105.5 -30.5t34.5 -109.5q22 4 34 22.5t12 54.5q0 50 -15 72.5t-61 22.5h-66q-78 0 -114 25.5
t-36 86.5q0 35 11 57t30.5 34.5t46 17t58.5 4.5h76v54h-299q-10 0 -10 9v77q0 10 10 10h800q9 0 9 -10v-76q0 -10 -10 -10h-94v-497q0 -5 -1.5 -7.5t-8.5 -2.5h-115q-10 0 -10 10v150q0 9 -10 9h-71zM251 359q-29 0 -39.5 -3.5t-10.5 -21.5q0 -14 12.5 -17t50.5 -3h55
q48 0 82.5 -9t55.5 -34h101q10 0 10 9v227h-140v-135q0 -13 -11 -13h-166zM154 86q0 -18 7 -24.5t24 -6.5h18v20q0 22 -4 30.5t-21 8.5q-24 0 -24 -28zM427 -168q-15 0 -15 13v99q0 14 15 14h89q15 0 15 -14v-99q0 -13 -15 -13h-89z" />
    <glyph glyph-name="uni091E_uni093C.nukt" horiz-adv-x="697" 
d="M-4 507q-9 0 -9 10v76q0 10 9 10h701q10 0 10 -10v-75q0 -8 -1.5 -9.5t-8.5 -1.5h-87v-497q0 -10 -10 -10h-114q-10 0 -10 10v183q0 6 -1.5 12t-8.5 6h-60q-8 -84 -49.5 -122.5t-134.5 -38.5q-18 0 -41 3.5t-47 11.5t-47.5 19.5t-42.5 28.5q-7 5 -6 9.5t5 9.5l46 64
q5 6 9 7t15 -6q29 -20 55 -26t45 -6q44 0 58.5 22t14.5 67q0 52 -16.5 68.5t-55.5 16.5q-23 0 -42.5 -4.5t-33.5 -11.5q-10 -5 -12.5 -4.5t-5.5 5.5l-40 71q-6 11 4 17q13 9 30.5 15.5t36 11t36 7t32.5 2.5q45 0 77 -8t54 -23.5t34.5 -38.5t17.5 -52h64q10 0 10 8v173h-480z
M190 -126q-15 0 -15 13v99q0 14 15 14h89q15 0 15 -14v-99q0 -13 -15 -13h-89z" />
    <glyph glyph-name="uni091F_uni093C.nukt" horiz-adv-x="577" 
d="M509 69q-47 -38 -101 -53t-127 -15q-60 0 -106 12t-77 39t-46.5 70.5t-15.5 106.5q0 55 11.5 93.5t38 63t70 35.5t108.5 11h52v75h-315q-10 0 -10 9v77q0 10 10 10h577q10 0 10 -10v-76q0 -10 -10 -10h-136v-161q0 -8 -2.5 -11t-11.5 -3h-125q-31 0 -55.5 -2t-42 -11
t-27 -28.5t-9.5 -54.5t5.5 -58.5t20 -37.5t41 -20t68.5 -6t77.5 12t61.5 32q11 8 15 7t9 -9l41 -65q5 -8 6 -12.5t-5 -9.5zM229 -183q-15 0 -15 13v99q0 14 15 14h89q15 0 15 -14v-99q0 -13 -15 -13h-89z" />
    <glyph glyph-name="uni0920_uni093C.nukt" horiz-adv-x="607" 
d="M449 507v-88q66 -22 89 -69.5t23 -111.5q0 -62 -15 -106t-46 -72t-78.5 -41t-113.5 -13q-75 0 -127 13.5t-83.5 40.5t-45.5 68t-14 97q0 58 13.5 98.5t39.5 65.5t64 36t87 11h77v71h-323q-10 0 -10 9v77q0 10 10 10h610q10 0 10 -10v-76q0 -10 -10 -10h-157zM306 115
q37 0 62 6t40 20t21 38t6 60q0 56 -18.5 76.5t-54.5 20.5h-79q-28 0 -49.5 -2t-36 -12.5t-22 -31.5t-7.5 -60q0 -30 5 -51.5t20 -35.5t42 -21t71 -7zM246 -176q-15 0 -15 13v99q0 14 15 14h89q15 0 15 -14v-99q0 -13 -15 -13h-89z" />
    <glyph glyph-name="uni0923_uni093C.nukt" horiz-adv-x="786" 
d="M571 0q-10 0 -10 10v497h-104v-178q0 -55 -7 -97t-28.5 -70t-60 -42.5t-101.5 -14.5q-65 0 -104 14t-60 42.5t-27.5 71t-6.5 98.5v176h-66q-10 0 -10 10v76q0 10 10 10h789q10 0 10 -10v-77q0 -9 -10 -9h-90v-497q0 -10 -10 -10h-114zM263 218q23 0 35.5 6.5t18.5 20
t7 35t1 51.5v176h-131v-177q0 -30 1.5 -51t8.5 -34.5t21 -20t38 -6.5zM208 -85q-15 0 -15 13v99q0 14 15 14h89q15 0 15 -14v-99q0 -13 -15 -13h-89z" />
    <glyph glyph-name="uni0924_uni093C.nukt" horiz-adv-x="584" 
d="M363 292q0 10 -10 10h-98q-25 0 -40 -5.5t-23.5 -14t-11.5 -19.5t-3 -22q0 -38 18.5 -91t41.5 -115q6 -17 -6 -21l-95 -36q-8 -3 -12.5 -2t-9.5 13q-13 33 -26 68.5t-23.5 71.5t-17.5 70.5t-7 63.5q0 24 4 50t21 47.5t51 36t93 14.5h144q10 0 10 9v87h-363q-10 0 -10 10
v77q0 9 10 9h583q10 0 10 -10v-76q0 -10 -10 -10h-86v-497q0 -10 -10 -10h-115q-9 0 -9 10v282zM196 -169q-15 0 -15 13v99q0 14 15 14h89q15 0 15 -14v-99q0 -13 -15 -13h-89z" />
    <glyph glyph-name="uni0925_uni093C.nukt" horiz-adv-x="666" 
d="M358 454q0 -55 -13.5 -91.5t-36.5 -58.5t-54.5 -31t-68.5 -9v-15t1 -13q3 -24 18.5 -37t39 -19t51 -7t54.5 -1q23 0 52 4.5t47 14.5v316h-34q-9 0 -9 10v76q0 10 9 10h256q10 0 10 -10v-77q0 -9 -10 -9h-88v-497q0 -10 -11 -10h-113q-10 0 -10 10v70q-29 -11 -59.5 -14.5
t-60.5 -3.5q-42 0 -81 5.5t-72.5 18.5t-59 34.5t-40.5 52.5q-17 35 -20 72.5t-3 85.5q0 10 3 14t14 4h29q27 0 51 2.5t43 13t30 31.5t11 59q0 28 -2.5 46t-7.5 27.5t-12.5 13t-18.5 3.5q-22 0 -30 -13t-8 -36q0 -10 2 -18t4 -13q4 -11 5.5 -13.5t-5.5 -6.5l-79 -44
q-8 -5 -11 -3.5t-10 13.5q-7 10 -13 32t-6 46q0 30 9 56t27.5 46t46.5 31.5t66 11.5q37 0 68 -6t53.5 -25t34.5 -54.5t12 -94.5zM211 -119q-15 0 -15 13v99q0 14 15 14h89q15 0 15 -14v-99q0 -13 -15 -13h-89z" />
    <glyph glyph-name="uni0926_uni093C.nukt" horiz-adv-x="614" 
d="M370 74q47 0 61.5 12.5t14.5 42.5q0 19 -7 32t-30 13q-21 0 -31.5 -11t-10.5 -44q0 -11 0.5 -21t2.5 -24zM408 -116q3 -10 -1 -14.5t-12 -6.5l-81 -20q-13 -4 -18 8q-8 20 -14 57t-11 76q-122 3 -179 58t-57 173q0 109 54.5 164t179.5 55h102v73h-371q-10 0 -10 9v77
q0 10 10 10h613q10 0 10 -10v-76q0 -10 -10 -10h-112v-158q0 -9 -3.5 -13t-14.5 -4h-202q-56 0 -84.5 -28t-28.5 -100q0 -35 7.5 -59.5t20.5 -39.5t30 -22t36 -7q-2 16 -3 29t-1 22q1 76 42.5 109t109.5 33q33 0 60 -7t46.5 -23.5t30 -43t10.5 -65.5q0 -37 -9 -63.5t-30 -44
t-54.5 -27t-81.5 -11.5q5 -27 11 -47.5t15 -52.5zM84 -173q-15 0 -15 13v99q0 14 15 14h89q15 0 15 -14v-99q0 -13 -15 -13h-89z" />
    <glyph glyph-name="uni0927_uni093C.nukt" horiz-adv-x="669" 
d="M456 0q-10 0 -10 10v67q-27 -20 -68.5 -30t-92.5 -10q-46 0 -88 6t-74 23.5t-51 48t-19 78.5q0 20 5 39.5t16.5 35t30.5 26.5t46 14q-33 8 -53 25.5t-30.5 39.5t-14 47t-3.5 49q0 84 38.5 124.5t123.5 40.5q43 0 70.5 -10t43 -27t21 -38.5t5.5 -45.5q0 -64 -36 -86
t-111 -22q-11 0 -21.5 0.5t-24.5 0.5q11 -26 33.5 -35t57.5 -9h47q13 0 13 -12v-74q0 -8 -10 -8h-47q-32 0 -49.5 -10.5t-17.5 -45.5q0 -23 9 -36t24.5 -20.5t35.5 -9.5t42 -2q45 0 74 5.5t45.5 22t23 48t6.5 83.5v204h-39q-10 0 -10 10v76q0 10 10 10h263q9 0 9 -9v-78
q0 -9 -9 -9h-96v-497q0 -10 -10 -10h-108zM194 484q19 0 31 0.5t18 3.5t8 9t2 17q0 18 -8 27t-35 9q-33 0 -41.5 -17t-8.5 -49h34zM202 -139q-15 0 -15 13v99q0 14 15 14h89q15 0 15 -14v-99q0 -13 -15 -13h-89z" />
    <glyph glyph-name="uni092A_uni093C.nukt" horiz-adv-x="572" 
d="M357 0q-10 0 -10 10v120q-14 -8 -38.5 -14.5t-55.5 -6.5q-66 0 -105.5 14t-61 43.5t-28 75t-6.5 108.5v157h-53q-5 0 -7.5 1.5t-2.5 9.5v75q0 10 10 10h572q9 0 9 -10v-77q0 -9 -9 -9h-90v-497q0 -10 -10 -10h-114zM268 223q42 0 60.5 17t18.5 66v201h-161v-155
q0 -36 2 -60.5t10 -40t24.5 -22t45.5 -6.5zM161 -64q-15 0 -15 13v99q0 14 15 14h89q15 0 15 -14v-99q0 -13 -15 -13h-89z" />
    <glyph glyph-name="uni092C_uni093C.nukt" horiz-adv-x="567" 
d="M358 0q-10 0 -10 10v58q-43 -27 -109 -27q-209 0 -209 205q0 45 11 83t36 65t65.5 42.5t99.5 15.5q27 0 55 -5t51 -16v76h-351q-10 0 -10 10v76q0 10 10 10h567q10 0 10 -10v-77q0 -9 -10 -9h-87v-497q0 -10 -10 -10h-109zM257 132q25 0 43 6l-132 173q-11 -22 -11 -66
q0 -55 24.5 -84t75.5 -29zM348 328q-15 14 -36 23t-52 9q-12 0 -22.5 -1t-20.5 -4l129 -170q2 3 2 8v10v125zM146 -123q-15 0 -15 13v99q0 14 15 14h89q15 0 15 -14v-99q0 -13 -15 -13h-89z" />
    <glyph glyph-name="uni092D_uni093C.nukt" horiz-adv-x="723" 
d="M203 234q-35 0 -44 -15t-9 -37q0 -20 9.5 -34t34.5 -14q27 0 34 15.5t7 44.5v40h-32zM366 234v-31q0 -90 -41 -129.5t-126 -39.5q-78 0 -119 36.5t-41 123.5q0 73 38.5 108t123.5 35h31v135q0 45 -6 62t-29 17q-41 0 -41 -48q0 -9 2.5 -21t6.5 -19q5 -10 5.5 -13t-5.5 -7
l-81 -45q-11 -6 -17 4q-10 17 -17.5 44.5t-7.5 49.5q0 67 44.5 106t118.5 39q35 0 64.5 -6.5t51 -25t33.5 -52.5t12 -89v-131h121q10 0 10 11v159h-56q-9 0 -9 10v76q0 10 9 10h281q10 0 10 -10v-76q0 -10 -10 -10h-91v-497q0 -7 -2.5 -8.5t-9.5 -1.5h-112q-10 0 -10 10v215
q0 9 -10 9h-121zM149 -137q-15 0 -15 13v99q0 14 15 14h89q15 0 15 -14v-99q0 -13 -15 -13h-89z" />
    <glyph glyph-name="uni092E_uni093C.nukt" horiz-adv-x="719" 
d="M191 236q-16 0 -25 -3.5t-14 -10.5t-6.5 -16t-1.5 -20q0 -19 7 -34.5t33 -15.5q28 0 34.5 14.5t6.5 43.5v42h-34zM358 236v-27q0 -92 -40.5 -130t-128.5 -38q-77 0 -118.5 33.5t-41.5 112.5q0 84 40 117.5t128 33.5h28v169h-231q-10 0 -10 10v76q0 10 10 10h726
q9 0 9 -10v-76q0 -10 -10 -10h-95v-497q0 -5 -1.5 -7.5t-8.5 -2.5h-114q-10 0 -10 10v217q0 9 -10 9h-122zM358 338h122q10 0 10 9v160h-132v-169zM153 -137q-15 0 -15 13v99q0 14 15 14h89q15 0 15 -14v-99q0 -13 -15 -13h-89z" />
    <glyph glyph-name="uni0932_uni093C.nukt" horiz-adv-x="723" 
d="M155 -26q-10 11 -28 33t-35.5 52.5t-30.5 68t-13 79.5q0 102 49.5 161t156.5 59q24 0 48.5 -5.5t46.5 -17.5t39.5 -32.5t27.5 -50.5l81 82v104h-498q-10 0 -10 10v76q0 10 10 10h723q9 0 9 -10v-77q0 -9 -9 -9h-92v-497q0 -10 -10 -10h-113q-10 0 -10 10v251l-134 -137
q-12 -12 -20 -2l-63 62q-7 7 -7.5 11.5t7.5 11.5l49 47q-3 30 -18 49.5t-48 19.5q-39 0 -58.5 -23.5t-19.5 -78.5q0 -31 7 -56t17 -44t21 -32.5t19 -21.5t7.5 -12.5t-8.5 -12.5l-73 -67q-4 -4 -9 -6t-11 5zM289 -156q-15 0 -15 13v99q0 14 15 14h89q15 0 15 -14v-99
q0 -13 -15 -13h-89z" />
    <glyph glyph-name="uni0935_uni093C.nukt" horiz-adv-x="557" 
d="M342 0q-10 0 -10 10v71q-25 -20 -56 -27.5t-58 -7.5q-50 0 -86 14.5t-58.5 41t-33 63.5t-10.5 83q0 43 10 80t32 64.5t57.5 43t87.5 15.5q28 0 57 -6t58 -25v87h-330q-10 0 -10 10v76q0 10 10 10h552q10 0 10 -10v-77q0 -9 -10 -9h-88v-497q0 -10 -10 -10h-114zM332 266
q0 26 -6 42t-16.5 24.5t-24.5 11.5t-31 3q-48 0 -65.5 -23t-17.5 -73q0 -47 15.5 -74t63.5 -27q36 0 59 14t23 59v43zM152 -115q-15 0 -15 13v99q0 14 15 14h89q15 0 15 -14v-99q0 -13 -15 -13h-89z" />
    <glyph glyph-name="uni0936_uni093C.nukt" horiz-adv-x="707" 
d="M240 628q44 0 75 -11t51 -32.5t30 -53t13 -71.5q1 -11 1 -23v-25q-1 -45 -11.5 -82t-31.5 -64t-53.5 -42t-77.5 -15q-24 0 -41 10l167 -152q6 -5 7.5 -10.5t-5.5 -12.5l-69 -65q-7 -7 -12 -4.5t-10 8.5l-256 288q-4 5 -4.5 8.5t4.5 8.5l61 54q10 10 19 -1q16 -19 29 -31
t25 -18.5t24.5 -8.5t27.5 -2q34 0 55 17t22 67h-56q-80 0 -113 34t-33 93q0 67 38.5 101.5t123.5 34.5zM495 0q-10 0 -10 10v497h-37q-10 0 -10 10v76q0 10 10 10h259q9 0 9 -10v-77q0 -9 -9 -9h-87v-497q0 -10 -10 -10h-115zM47 -65q-15 0 -15 13v99q0 14 15 14h89
q15 0 15 -14v-99q0 -13 -15 -13h-89zM284 457v15q0 34 -10 49.5t-42 15.5q-20 0 -33 -8.5t-13 -31.5q0 -22 11.5 -31t40.5 -9h46z" />
    <glyph glyph-name="uni0937_uni093C.nukt" horiz-adv-x="594" 
d="M387 0q-10 0 -10 10v116q-17 -10 -45.5 -18.5t-63.5 -8.5q-69 0 -112 15t-66.5 45.5t-32 76.5t-8.5 108v163h-50q-10 0 -10 10v76q0 10 10 10h597q9 0 9 -10v-77q0 -9 -9 -9h-90v-497q0 -10 -10 -10h-109zM279 203q25 0 44 6t30 20l-175 208v-98q0 -38 3.5 -63.5t14 -42
t30.5 -23.5t53 -7zM377 315v192h-165zM183 -89q-15 0 -15 13v99q0 14 15 14h89q15 0 15 -14v-99q0 -13 -15 -13h-89z" />
    <glyph glyph-name="uni0938_uni093C.nukt" horiz-adv-x="702" 
d="M295 235q-32 0 -59.5 4.5t-44.5 17.5l157 -201q2 -2 4 -8.5t-9 -14.5l-81 -58q-13 -9 -21 4l-220 328q-7 11 5 18l70 45q5 3 8 3t8 -7l20 -28q10 -14 17.5 -18.5t17.5 -4.5q12 0 18.5 4.5t9.5 17.5t3.5 37t0.5 64v69h-201q-10 0 -10 9v77q0 10 10 10h700q10 0 10 -10v-76
q0 -10 -10 -10h-96v-499q0 -5 -1.5 -6.5t-7.5 -1.5h-114q-10 0 -10 10v216q0 9 -10 9h-164zM458 338q5 0 8 1.5t3 8.5v159h-142v-64q0 -26 -1.5 -54.5t-6.5 -50.5h139zM63 -89q-15 0 -15 13v99q0 14 15 14h89q15 0 15 -14v-99q0 -13 -15 -13h-89z" />
    <glyph glyph-name="uni0939_uni093C.nukt" horiz-adv-x="558" 
d="M367 126q7 7 12.5 17t5.5 26q0 22 -16 26.5t-44 4.5h-61q-48 0 -72 -15t-24 -60q0 -35 22 -56.5t57 -34t80 -18.5t90 -9q11 -1 15 -3.5t2 -13.5l-11 -92q-1 -8 -4.5 -9.5t-13.5 -0.5q-92 6 -160.5 19t-114.5 38.5t-69 67t-23 104.5q0 51 21.5 89t72.5 51q-38 11 -53 37
t-15 60q0 33 12.5 53.5t33.5 32t49.5 15t61.5 3.5h74v49h-297q-10 0 -10 9v77q0 10 10 10h560q10 0 10 -10v-76q0 -10 -10 -10h-135v-133q0 -14 -11 -14h-168q-25 0 -38 -3.5t-13 -21.5q0 -10 3 -16t10.5 -9t21 -4t35.5 -1h71q42 0 75 -5.5t55.5 -20.5t34.5 -41t12 -68
q0 -37 -16 -65.5t-32 -46.5q-5 -6 -8.5 -7t-10.5 4q-21 15 -38 27.5t-38 28.5q-8 6 -1 15zM83 -242q-15 0 -15 13v99q0 14 15 14h89q15 0 15 -14v-99q0 -13 -15 -13h-89z" />
    <glyph glyph-name="uni0930_uni094D.rphf" 
d="M-6 733q-15 0 -30.5 -2.5t-28 -12.5t-21 -29.5t-8.5 -52.5v-73h-119v56q0 66 14 109t39.5 68.5t62 35.5t81.5 10h26q9 0 8 -8l-12 -93q-1 -8 -12 -8z" />
    <glyph glyph-name="uni0930_uni094D.blwf" 
d="M-416 -220q-9 -9 -16 -1l-64 68q-7 7 -6 12.5t6 9.5l215 158q8 5 12 5.5t12 -4.5l210 -158q10 -7 1 -17l-63 -72q-7 -9 -16 -1l-140 134q-5 5 -10 0z" />
    <glyph glyph-name="uni0915_uni094D.half" horiz-adv-x="557" 
d="M607 244q0 53 -14.5 74.5t-56.5 21.5q-26 0 -42 -5t-25 -18.5t-12 -38.5t-3 -64v-204q0 -10 -10 -10h-110q-10 0 -10 10v78q-7 -9 -19.5 -16t-27.5 -12.5t-31.5 -8t-30.5 -2.5q-48 0 -81.5 13.5t-54.5 39.5t-30.5 62.5t-9.5 83.5q0 42 7 78.5t26 63t52 42t85 15.5
q30 0 61.5 -8t53.5 -28v96h-329q-10 0 -10 10v76q0 10 10 10h562q10 0 10 -10v-76q0 -10 -10 -10h-103v-105q18 21 49 33.5t64 12.5q48 0 80 -13t51.5 -38.5t27.5 -63.5t8 -89h-127zM324 273q0 42 -22 55t-54 13q-44 0 -58.5 -24t-14.5 -67q0 -51 14.5 -73.5t58.5 -22.5
q32 0 54 11.5t22 51.5v56z" />
    <glyph glyph-name="uni0916_uni094D.half" horiz-adv-x="499" 
d="M620 182q12 -20 24.5 -41.5t22.5 -39.5q-29 -22 -60 -36.5t-67 -23.5t-77.5 -13t-90.5 -4q-126 0 -199 30t-104 102q-8 18 -12 41t-5.5 48.5t-2 52t-0.5 50.5q0 10 3 13.5t14 3.5h26q23 0 37 1.5t21.5 10t10 27t2.5 51.5v52h-162q-10 0 -10 10v76q0 10 11 10h502
q10 0 10 -10v-77q0 -9 -10 -9h-215v-101q0 -45 -6 -70t-19 -37.5t-34 -15.5t-51 -3q-1 -6 -1 -12v-11q2 -38 14.5 -63.5t39 -40.5t69.5 -21t107 -6q30 0 60 3t58 10t52 17.5t42 25.5zM433 309q0 -35 9.5 -51.5t43.5 -16.5q17 0 35 3.5t33 18.5l43 -47q-22 -25 -57.5 -37.5
t-80.5 -12.5q-73 0 -106.5 36t-33.5 104q0 33 6.5 60t23.5 45.5t46 28.5t74 10q32 0 56 -9q5 -3 3 -10l-13 -60q-1 -6 -10 -5q-6 1 -9 1h-8q-30 0 -42.5 -13.5t-12.5 -44.5z" />
    <glyph glyph-name="uni0917_uni094D.half" horiz-adv-x="466" 
d="M469 603q10 0 10 -10v-76q0 -10 -10 -10h-69v-270q0 -47 -9 -82t-30 -58t-56 -34t-87 -11q-41 0 -74.5 8t-57 26.5t-36 49t-12.5 75.5q0 40 10.5 67.5t32 44t54.5 23.5t79 7h54v154h-269q-10 0 -10 10v76q0 10 10 10h470zM217 158q36 0 44.5 15t8.5 47v32h-44
q-38 0 -51.5 -9.5t-13.5 -36.5q0 -25 13 -36.5t43 -11.5z" />
    <glyph glyph-name="uni0918_uni094D.half" horiz-adv-x="390" 
d="M292 507q-27 0 -42 -3.5t-23 -10.5t-10 -18t-2 -25q0 -24 13.5 -38t45.5 -14h48q13 0 13 -13v-74q0 -9 -10 -9h-44q-39 0 -53 -19t-14 -45q0 -21 4.5 -35.5t15 -24.5t28.5 -14.5t46 -4.5q58 0 94.5 15t66.5 40l57 -80q-53 -48 -108.5 -64.5t-112.5 -16.5q-44 0 -84.5 6.5
t-72 24t-50.5 49t-19 81.5q0 44 21 79.5t76 46.5q-52 12 -72 40t-20 66t16 61h-103q-5 0 -7 1.5t-2 7.5v77q0 10 10 10h393q10 0 10 -9v-78q0 -9 -9 -9h-100z" />
    <glyph glyph-name="uni0919_uni094D.half" horiz-adv-x="730" 
d="M251 355q-29 0 -39.5 -4t-10.5 -22q0 -11 2 -17.5t9 -9.5t21.5 -4t40.5 -1h54q36 0 67 -2.5t53.5 -14.5t35 -36t12.5 -67q0 -62 -22.5 -98.5t-56.5 -55.5t-74 -24.5t-74 -5.5q-37 0 -73 7.5t-67.5 19.5t-57.5 28t-44 34q-7 6 -6 11t4 9l50 63q5 8 9.5 7t11.5 -6
q41 -33 86 -46.5t85 -13.5q44 0 72 10t28 46q0 28 -14 34t-49 6h-79q-48 0 -77.5 8.5t-46 24.5t-22.5 39.5t-6 53.5q0 35 9 58.5t27.5 37t46.5 19t65 5.5h85v59h-308q-10 0 -10 9v77q0 10 10 10h733q10 0 10 -10v-76q0 -10 -10 -10h-294v-139q0 -13 -11 -13h-175zM557 176
q-15 0 -15 15v104q0 14 15 14h98q16 0 16 -14v-104q0 -15 -16 -15h-98zM444 -160q7 -5 1 -13l-53 -65q-5 -7 -11 -2l-176 141q-7 6 -2 12l48 60q5 6 12 0z" />
    <glyph glyph-name="uni091A_uni094D.half" horiz-adv-x="392" 
d="M351 413q9 0 9 -8v-81q0 -8 -9 -8h-49q-23 0 -37.5 -6.5t-22.5 -16.5t-10.5 -22.5t-2.5 -24.5q0 -44 25.5 -62.5t80.5 -18.5q45 0 75.5 10t56.5 32l49 -83q-42 -37 -94 -51t-113 -14q-37 0 -74 6.5t-67 23.5t-49 46t-19 75q0 32 13 60.5t40 45.5h-103q-5 0 -7 1.5t-2 7.5
v80q0 8 9 8h301zM-2 507q-10 0 -10 10v76q0 10 10 10h398q10 0 10 -10v-77q0 -9 -9 -9h-399z" />
    <glyph glyph-name="uni091B_uni094D.half" horiz-adv-x="678" 
d="M339 -12q-147 0 -220 50.5t-73 150.5q0 52 24 90t74 52q-45 9 -66 39t-21 72q0 39 18 65h-79q-10 0 -10 10v76q0 10 10 10h687q10 0 10 -10v-77q0 -9 -10 -9h-124v-66q44 -17 59.5 -60.5t15.5 -112.5q0 -60 -12 -111t-44.5 -88.5t-90 -59t-148.5 -21.5zM334 324
q0 22 4.5 42.5t16 37.5t30.5 29t48 18v56h-178q-40 0 -57.5 -15t-17.5 -45q0 -28 13.5 -46t47.5 -18h33q8 0 10.5 -2.5t2.5 -9.5v-79q0 -8 -10 -8h-26q-45 0 -60 -23.5t-15 -57.5q0 -31 10.5 -51.5t30.5 -32.5t50.5 -17t69.5 -5q49 0 81.5 5.5t52 17.5t29 31.5t13.5 48.5
q-14 -1 -25.5 -1h-22.5q-66 1 -98.5 30.5t-32.5 94.5zM523 281q1 6 1 12.5v11.5q0 17 -0.5 31t-5 24t-13.5 15.5t-25 5.5q-33 0 -40.5 -16t-7.5 -38q0 -8 2 -16.5t7.5 -15t16 -10.5t27.5 -4h38zM494 -167q7 -5 1 -13l-53 -65q-5 -7 -11 -2l-176 141q-7 6 -2 12l48 60
q5 6 12 0z" />
    <glyph glyph-name="uni091C_uni094D.half" horiz-adv-x="521" 
d="M-3 507q-9 0 -9 10v77q0 9 9 9h525q10 0 10 -10v-77q0 -9 -10 -9h-525zM411 288q25 -19 35 -48t10 -65q0 -50 -17 -83t-44.5 -53t-61.5 -28.5t-68 -8.5q-47 0 -84.5 11t-67 28t-52 39t-40.5 45q-7 7 2 15l74 65q6 6 14 -2q13 -15 27.5 -30.5t31 -28.5t35 -21t40.5 -8
q48 0 64 22.5t16 67.5q0 46 -15 64.5t-61 18.5h-55q-5 0 -8.5 2t-3.5 11v80q0 8 9 8h416q9 0 9 -9v-84q0 -8 -9 -8h-196z" />
    <glyph glyph-name="uni091D_uni094D.half" horiz-adv-x="550" 
d="M628 179q0 -10 -10 -10h-131q1 -8 1 -15.5v-14.5q0 -49 -11.5 -80.5t-33.5 -50.5t-52.5 -26.5t-69.5 -8.5v-84q0 -6 -4 -6h-106q-8 0 -8 9v76q-77 0 -118 25t-41 92q0 51 34 81t103 30q71 0 105.5 -30.5t34.5 -109.5q22 4 34 22.5t12 54.5q0 50 -15 72.5t-61 22.5h-66
q-78 0 -114 25.5t-36 86.5q0 35 11 57t30.5 34.5t46 17t58.5 4.5h76v54h-299q-10 0 -10 9v77q0 10 10 10h551q9 0 9 -10v-76q0 -10 -10 -10h-120v-135q0 -13 -11 -13h-166q-29 0 -39.5 -3.5t-10.5 -21.5q0 -14 12.5 -17t50.5 -3h55q48 0 82.5 -9t55.5 -34h161q10 0 10 -10
v-82zM154 86q0 -18 7 -24.5t24 -6.5h18v20q0 22 -4 30.5t-21 8.5q-24 0 -24 -28z" />
    <glyph glyph-name="uni091E_uni094D.half" horiz-adv-x="496" 
d="M-4 507q-9 0 -9 10v76q0 10 9 10h498q10 0 10 -10v-75q0 -8 -1.5 -9.5t-8.5 -1.5h-498zM556 223q0 -6 -1.5 -9t-8.5 -3h-140q-8 -84 -49.5 -122.5t-134.5 -38.5q-18 0 -41 3.5t-47 11.5t-47.5 19.5t-42.5 28.5q-7 5 -6 9.5t5 9.5l46 64q5 6 9 7t15 -6q29 -20 55 -26
t45 -6q44 0 58.5 22t14.5 67q0 52 -16.5 68.5t-55.5 16.5q-23 0 -42.5 -4.5t-33.5 -11.5q-10 -5 -12.5 -4.5t-5.5 5.5l-40 71q-6 11 4 17q13 9 30.5 15.5t36 11t36 7t32.5 2.5q45 0 77 -8t54 -23.5t34.5 -38.5t17.5 -52h144q5 0 7.5 -2t2.5 -10v-91z" />
    <glyph glyph-name="uni091F_uni094D.half" horiz-adv-x="576" 
d="M509 69q-47 -38 -101 -53t-127 -15q-60 0 -106 12t-77 39t-46.5 70.5t-15.5 106.5q0 55 11.5 93.5t38 63t70 35.5t108.5 11h52v75h-315q-10 0 -10 9v77q0 10 10 10h577q10 0 10 -10v-76q0 -10 -10 -10h-136v-161q0 -8 -2.5 -11t-11.5 -3h-125q-31 0 -55.5 -2t-42 -11
t-27 -28.5t-9.5 -54.5t5.5 -58.5t20 -37.5t41 -20t68.5 -6t77.5 12t61.5 32q11 8 15 7t9 -9l41 -65q5 -8 6 -12.5t-5 -9.5zM458 -158q7 -5 1 -13l-53 -65q-5 -7 -11 -2l-176 141q-7 6 -2 12l48 60q5 6 12 0z" />
    <glyph glyph-name="uni0920_uni094D.half" horiz-adv-x="604" 
d="M449 507v-88q66 -22 89 -69.5t23 -111.5q0 -62 -15 -106t-46 -72t-78.5 -41t-113.5 -13q-75 0 -127 13.5t-83.5 40.5t-45.5 68t-14 97q0 58 13.5 98.5t39.5 65.5t64 36t87 11h77v71h-323q-10 0 -10 9v77q0 10 10 10h610q10 0 10 -10v-76q0 -10 -10 -10h-157zM306 115
q37 0 62 6t40 20t21 38t6 60q0 56 -18.5 76.5t-54.5 20.5h-79q-28 0 -49.5 -2t-36 -12.5t-22 -31.5t-7.5 -60q0 -30 5 -51.5t20 -35.5t42 -21t71 -7zM469 -151q7 -5 1 -13l-53 -65q-5 -7 -11 -2l-176 141q-7 6 -2 12l48 60q5 6 12 0z" />
    <glyph glyph-name="uni0921_uni094D.half" horiz-adv-x="551" 
d="M251 355q-29 0 -39.5 -4t-10.5 -22q0 -11 2 -17.5t9 -9.5t21.5 -4t40.5 -1h54q36 0 67 -2.5t53.5 -14.5t35 -36t12.5 -67q0 -62 -22.5 -98.5t-56.5 -55.5t-74 -24.5t-74 -5.5q-75 0 -137.5 24t-104.5 65q-7 6 -6 11t4 9l50 63q5 8 9.5 7t11.5 -6q41 -32 86 -46t85 -14
q44 0 72 10t28 46q0 28 -14 34t-49 6h-79q-48 0 -77.5 8.5t-46 24.5t-22.5 39.5t-6 53.5q0 35 9 58.5t27.5 37t46.5 19t65 5.5h85v59h-308q-10 0 -10 9v77q0 10 10 10h553q10 0 10 -10v-76q0 -10 -10 -10h-114v-139q0 -13 -11 -13h-175zM448 -168q7 -5 1 -13l-53 -65
q-5 -7 -11 -2l-176 141q-7 6 -2 12l48 60q5 6 12 0z" />
    </font>
</defs>
</svg>
